<svg width="130" height="53" viewBox="0 0 130 53" fill="none" xmlns="http://www.w3.org/2000/svg">
<path d="M0 26.4344C0 4.66568 4.66568 0 26.4344 0C48.2032 0 52.8689 4.66568 52.8689 26.4344C52.8689 48.2032 48.2032 52.8689 26.4344 52.8689C4.66568 52.8689 0 48.2032 0 26.4344Z" fill="#FFD600"/>
<path d="M11.9117 18.3949C18.6467 6.72969 22.5903 5.67298 34.2556 12.4079C45.9208 19.1428 46.9775 23.0865 40.2426 34.7517C33.5077 46.4169 29.564 47.4736 17.8988 40.7387C6.23353 34.0038 5.17682 30.0601 11.9117 18.3949Z" fill="#1F1F1F"/>
<path d="M66.0241 34.8381C65.3656 34.8381 64.8544 34.6562 64.4905 34.2923C64.1439 33.9283 63.9706 33.4258 63.9706 32.7846V18.514C63.9706 17.8382 64.1439 17.3269 64.4905 16.9804C64.837 16.6338 65.3396 16.4605 65.9981 16.4605C66.6393 16.4605 67.1332 16.6338 67.4798 16.9804C67.8263 17.3269 67.9996 17.8382 67.9996 18.514V31.4329H74.966C75.5205 31.4329 75.9451 31.5802 76.2397 31.8748C76.5516 32.1694 76.7076 32.5853 76.7076 33.1225C76.7076 33.6771 76.5516 34.1016 76.2397 34.3962C75.9451 34.6908 75.5205 34.8381 74.966 34.8381H66.0241ZM84.5411 35.1241C83.1721 35.1241 81.9763 34.8555 80.9539 34.3183C79.9488 33.7811 79.169 33.0099 78.6145 32.0048C78.0599 30.9997 77.7827 29.8127 77.7827 28.4436C77.7827 27.4212 77.9386 26.5028 78.2506 25.6883C78.5625 24.8738 79.013 24.1807 79.6022 23.6088C80.2088 23.0196 80.9279 22.5777 81.7597 22.2831C82.5915 21.9712 83.5186 21.8152 84.5411 21.8152C85.9101 21.8152 87.0971 22.0838 88.1022 22.621C89.1246 23.1582 89.9131 23.9207 90.4677 24.9085C91.0395 25.8962 91.3255 27.0746 91.3255 28.4436C91.3255 29.4834 91.1608 30.4105 90.8316 31.225C90.5197 32.0395 90.0691 32.7413 89.4799 33.3305C88.8907 33.9197 88.1715 34.3702 87.3224 34.6822C86.4906 34.9768 85.5635 35.1241 84.5411 35.1241ZM84.5411 32.1868C85.1129 32.1868 85.6068 32.0481 86.0227 31.7709C86.4386 31.4936 86.7679 31.0864 87.0105 30.5491C87.2531 29.9946 87.3744 29.2928 87.3744 28.4436C87.3744 27.1786 87.1145 26.2515 86.5946 25.6623C86.0747 25.0558 85.3902 24.7525 84.5411 24.7525C83.9865 24.7525 83.4926 24.8825 83.0594 25.1424C82.6435 25.4024 82.3143 25.8096 82.0716 26.3641C81.8464 26.9013 81.7337 27.5945 81.7337 28.4436C81.7337 29.7087 81.9937 30.6531 82.5135 31.277C83.0334 31.8835 83.7093 32.1868 84.5411 32.1868ZM99.851 35.1241C98.6553 35.1241 97.6502 34.9248 96.8358 34.5262C96.0386 34.1276 95.4407 33.5471 95.0422 32.7846C94.6609 32.0221 94.4703 31.0604 94.4703 29.8993V25.0125H93.3786C92.8934 25.0125 92.5121 24.8825 92.2348 24.6226C91.9749 24.3626 91.8449 24.0074 91.8449 23.5568C91.8449 23.0716 91.9749 22.7077 92.2348 22.4651C92.5121 22.2051 92.8934 22.0752 93.3786 22.0752H94.4703V20.0996C94.4703 19.4411 94.6436 18.9472 94.9902 18.618C95.3368 18.2714 95.822 18.0981 96.4458 18.0981C97.087 18.0981 97.5722 18.2714 97.9015 18.618C98.2308 18.9472 98.3954 19.4411 98.3954 20.0996V22.0752H100.865C101.35 22.0752 101.723 22.2051 101.983 22.4651C102.242 22.7077 102.372 23.0716 102.372 23.5568C102.372 24.0074 102.242 24.3626 101.983 24.6226C101.723 24.8825 101.35 25.0125 100.865 25.0125H98.3954V29.7433C98.3954 30.4712 98.56 31.017 98.8893 31.381C99.2359 31.7449 99.7817 31.9268 100.527 31.9268C100.787 31.9268 101.029 31.9008 101.255 31.8488C101.48 31.7969 101.688 31.7622 101.879 31.7449C102.121 31.7275 102.32 31.8055 102.476 31.9788C102.632 32.1348 102.71 32.49 102.71 33.0446C102.71 33.4605 102.641 33.8244 102.502 34.1363C102.364 34.4482 102.121 34.6735 101.775 34.8121C101.549 34.8988 101.237 34.9681 100.839 35.0201C100.458 35.0894 100.128 35.1241 99.851 35.1241Z" fill="#1F1F1F"/>
<path d="M112.1 35.1241C110.904 35.1241 109.899 34.9248 109.084 34.5262C108.287 34.1276 107.689 33.5471 107.291 32.7846C106.909 32.0221 106.719 31.0604 106.719 29.8993V25.0125H105.627C105.142 25.0125 104.761 24.8825 104.483 24.6226C104.223 24.3626 104.093 24.0074 104.093 23.5568C104.093 23.0716 104.223 22.7077 104.483 22.4651C104.761 22.2051 105.142 22.0752 105.627 22.0752H106.719V20.0996C106.719 19.4411 106.892 18.9472 107.239 18.618C107.585 18.2714 108.071 18.0981 108.694 18.0981C109.336 18.0981 109.821 18.2714 110.15 18.618C110.479 18.9472 110.644 19.4411 110.644 20.0996V22.0752H113.113C113.599 22.0752 113.971 22.2051 114.231 22.4651C114.491 22.7077 114.621 23.0716 114.621 23.5568C114.621 24.0074 114.491 24.3626 114.231 24.6226C113.971 24.8825 113.599 25.0125 113.113 25.0125H110.644V29.7433C110.644 30.4712 110.809 31.017 111.138 31.381C111.484 31.7449 112.03 31.9268 112.775 31.9268C113.035 31.9268 113.278 31.9008 113.503 31.8488C113.729 31.7969 113.936 31.7622 114.127 31.7449C114.37 31.7275 114.569 31.8055 114.725 31.9788C114.881 32.1348 114.959 32.49 114.959 33.0446C114.959 33.4605 114.89 33.8244 114.751 34.1363C114.612 34.4482 114.37 34.6735 114.023 34.8121C113.798 34.8988 113.486 34.9681 113.087 35.0201C112.706 35.0894 112.377 35.1241 112.1 35.1241ZM122.846 35.1241C121.338 35.1241 120.038 34.8555 118.947 34.3183C117.872 33.7637 117.04 32.9926 116.451 32.0048C115.879 30.9997 115.594 29.8213 115.594 28.4696C115.594 27.1526 115.871 26.0002 116.425 25.0125C116.98 24.0074 117.751 23.2275 118.739 22.673C119.744 22.1011 120.879 21.8152 122.144 21.8152C123.062 21.8152 123.894 21.9712 124.639 22.2831C125.385 22.5777 126.026 23.0109 126.563 23.5828C127.1 24.1373 127.507 24.8218 127.785 25.6363C128.062 26.4335 128.201 27.3259 128.201 28.3137C128.201 28.6429 128.097 28.8942 127.889 29.0675C127.681 29.2235 127.377 29.3014 126.979 29.3014H118.817V27.2739H125.367L124.951 27.6378C124.951 26.9273 124.847 26.3381 124.639 25.8703C124.431 25.385 124.128 25.0211 123.73 24.7785C123.348 24.5359 122.872 24.4146 122.3 24.4146C121.659 24.4146 121.113 24.5619 120.662 24.8565C120.212 25.1511 119.865 25.5757 119.623 26.1302C119.38 26.6847 119.259 27.3519 119.259 28.1317V28.3397C119.259 29.6567 119.562 30.6271 120.168 31.251C120.792 31.8748 121.711 32.1868 122.924 32.1868C123.34 32.1868 123.816 32.1348 124.353 32.0308C124.891 31.9268 125.393 31.7622 125.861 31.5369C126.26 31.3463 126.615 31.2856 126.927 31.355C127.239 31.4069 127.481 31.5456 127.655 31.7709C127.828 31.9961 127.923 32.2561 127.941 32.5507C127.975 32.8453 127.915 33.1399 127.759 33.4345C127.603 33.7117 127.343 33.9457 126.979 34.1363C126.39 34.4656 125.722 34.7082 124.977 34.8641C124.249 35.0374 123.539 35.1241 122.846 35.1241Z" fill="#1F1F1F"/>
</svg>
