<svg width="280" height="325" viewBox="0 0 280 325" fill="none" xmlns="http://www.w3.org/2000/svg">
<path fill-rule="evenodd" clip-rule="evenodd" d="M167.413 311.155C171.164 307.523 183.664 294.102 187.706 290.964C187.83 290.831 187.997 290.747 188.177 290.726C188.357 290.705 188.539 290.748 188.691 290.848C188.842 290.948 188.953 291.099 189.004 291.273C189.054 291.447 189.042 291.634 188.968 291.8C186.956 295.432 169.408 311.923 168.385 312.895C167.686 313.764 164.684 317.38 163.866 318.13C163.891 318.809 163.713 319.48 163.355 320.058C162.996 320.635 162.473 321.092 161.853 321.37C159.656 322.116 157.504 322.987 155.407 323.979C155.1 324.252 154.742 323.979 154.827 323.689C155.878 322.372 156.761 320.928 157.454 319.392C157.603 318.375 158.119 317.449 158.904 316.786C159.689 316.123 160.69 315.77 161.717 315.794C161.836 315.572 166.355 311.854 167.413 311.155ZM161.666 316.067C160.744 316.12 159.873 316.502 159.209 317.144C158.546 317.785 158.135 318.643 158.05 319.562C157.666 320.719 157.089 321.803 156.345 322.768C160.66 320.978 162.126 321.234 163.064 319.784C163.361 319.302 163.547 318.761 163.61 318.198C162.416 317.874 161.58 315.862 161.666 316.067ZM167.072 311.786C165.741 312.997 164.36 314.293 162.331 316.049C162.629 316.642 163.075 317.147 163.627 317.516L168.078 312.758C167.685 312.505 167.348 312.174 167.089 311.786H167.072ZM159.483 291.697C161.427 290.418 187.808 273.058 188.064 273.911C188.32 274.763 162.177 294.545 161.956 294.682C160.847 295.944 153.429 303.942 152.457 304.283C151.22 304.237 150.048 303.718 149.183 302.833C147.997 301.621 147.12 300.141 146.625 298.519C146.301 297.359 158.426 292.141 159.483 291.697ZM147.46 299.286C147.796 300.367 148.403 301.344 149.224 302.123C150.046 302.903 151.053 303.458 152.15 303.737C150.922 302.577 148.33 300.105 147.46 299.286ZM152.576 295.347C150.704 296.239 148.907 297.283 147.204 298.467C147.426 299.201 147.204 298.467 148.91 299.883C150.294 300.969 151.507 302.256 152.508 303.703C153.361 303.072 156.823 299.627 156.618 299.815C155.34 298.249 153.973 296.757 152.525 295.347H152.576ZM159.551 291.936C156.737 293.249 154.861 294.17 152.73 295.21C154.421 296.291 155.793 297.804 156.703 299.593C157.726 298.57 161.205 295.04 161.717 294.477C161.222 294 159.926 292.516 159.5 291.97L159.551 291.936ZM200.871 272.444C201.741 264.804 203.02 255.305 204.06 255.254C205.101 255.203 203.975 264.804 202.901 272.495C206.311 272.785 210.37 274.661 209.722 277.901C209.753 278.478 209.678 279.056 209.5 279.606C211.206 291.186 209.688 293.573 209.807 293.386C208.814 294.582 207.571 295.546 206.166 296.212C204.761 296.878 203.228 297.228 201.673 297.24C200.112 297.248 198.567 296.923 197.141 296.288C195.715 295.653 194.44 294.722 193.402 293.556C191.987 291.424 192.89 282.42 193.163 279.913C193.012 279.386 192.926 278.842 192.907 278.293C192.702 277.396 192.818 276.456 193.236 275.636C193.653 274.816 194.346 274.169 195.193 273.808C196.937 272.873 198.893 272.403 200.871 272.444ZM209.176 287.417C207.829 290.18 204.06 291.049 201.025 291.049C200.984 291.867 200.892 292.681 200.752 293.488C200.616 294.136 200.462 294.699 199.797 294.682C198.837 294.487 197.992 293.924 197.444 293.113C197 292.448 197.103 292.107 197.665 290.64C196.926 290.447 196.239 290.095 195.649 289.609C195.06 289.124 194.584 288.515 194.255 287.826C194.262 289.35 194.416 290.869 194.715 292.362C195.075 293.041 195.589 293.625 196.216 294.068C200.07 297.206 204.742 296.319 208.648 292.959C208.818 291.697 209.057 289.225 209.176 287.417ZM193.521 280.596C193.402 282.659 192.942 291.373 194.101 293.079C194.994 294.116 196.122 294.923 197.392 295.432C196.061 294.782 194.978 293.717 194.306 292.396C194.013 290.57 193.915 288.718 194.016 286.871C193.908 286.354 193.928 285.818 194.073 285.31C194.219 284.802 194.486 284.337 194.852 283.955C196.062 282.557 196.352 283.358 195.244 282.591C194.519 282.101 193.927 281.439 193.521 280.664V280.596ZM198.109 290.657C197.902 291.21 197.748 291.781 197.648 292.362C197.648 292.942 199.183 294.238 199.865 294.17C200.104 294.17 200.172 293.812 200.257 293.386C200.409 292.614 200.511 291.834 200.564 291.049C199.736 291.033 198.913 290.924 198.109 290.725V290.657ZM209.296 280.186C208.71 281.267 207.813 282.146 206.721 282.71C208.682 283.324 209.978 284.637 209.449 286.632C209.449 287.707 209.449 288.764 209.347 289.719C209.176 293.283 209.057 293.13 209.227 292.874C210.029 289.838 209.62 283.461 209.296 280.254V280.186ZM206.431 282.864C204.836 283.636 203.087 284.038 201.315 284.04C201.317 285.059 201.185 286.074 200.922 287.059C200.991 288.195 200.991 289.334 200.922 290.469C203.058 290.542 205.17 290.004 207.011 288.918C209.722 287.212 210.148 284.126 206.431 282.932V282.864ZM199.388 287.127C199.285 287.366 198.433 289.736 198.279 290.163C199.044 290.349 199.828 290.446 200.616 290.452C200.616 289.617 200.786 288.014 200.769 287.178C200.315 287.278 199.844 287.284 199.388 287.195V287.127ZM196.199 283.171C192.924 285.422 194.306 289.003 197.904 290.094C198.262 289.19 198.825 287.929 199.234 287.059C199.281 286.041 199.395 285.027 199.575 284.023C198.409 283.934 197.267 283.646 196.199 283.171ZM199.729 284.04L199.575 286.803C199.865 286.803 200.803 286.939 200.701 286.803C200.598 286.667 200.923 285.2 201.042 284.074C200.598 284.109 200.155 284.092 199.729 284.057V284.04ZM209.006 279.521C205.97 283.324 196.796 283.375 193.658 279.521C193.989 280.376 194.535 281.131 195.243 281.713C195.951 282.296 196.797 282.686 197.699 282.847C201.588 283.904 207.437 283.051 209.006 279.538V279.521ZM202.645 274.269C202.133 277.799 201.69 280.664 201.536 281.602C204.111 281.602 207.556 280.664 208.75 278.583C208.375 275.923 205.339 274.542 202.645 274.286V274.269ZM200.667 274.269C199.259 274.338 197.895 274.785 196.719 275.562C195.543 276.339 194.598 277.418 193.982 278.686C195.073 280.391 197.819 281.329 199.933 281.533C200.019 280.596 200.292 277.765 200.667 274.286V274.269ZM200.837 272.768C198.978 272.836 197.166 273.369 195.568 274.32C194.05 275.292 193.027 276.793 193.862 278.413C194.444 277.069 195.393 275.917 196.599 275.087C197.805 274.258 199.221 273.785 200.684 273.723L200.837 272.768ZM202.901 272.939C202.901 273.229 202.815 273.518 202.764 273.808C205.578 274.064 208.528 275.514 208.989 278.242C209.603 276.69 208.579 275.292 207.147 274.388C205.852 273.605 204.404 273.11 202.901 272.939ZM219.238 279.862C218.436 275.889 211.956 246.284 214.122 244.562C214.891 244.138 215.727 243.849 216.595 243.709C218.982 243.198 234.211 241.151 234.91 243.215C235.609 245.278 231.499 276.707 231.192 278.396C231.192 279.538 230.766 282.727 230.766 282.727C230.323 283.652 229.667 284.459 228.853 285.081C228.038 285.703 227.087 286.123 226.078 286.306C225.069 286.489 224.031 286.43 223.05 286.134C222.068 285.838 221.171 285.313 220.432 284.603C219.862 283.071 219.462 281.481 219.238 279.862ZM234.04 247C227.51 247.088 220.995 247.658 214.548 248.706C215.077 255.868 218.18 272.581 219.528 279.709C221.303 280.68 223.326 281.102 225.342 280.923C227.357 280.744 229.275 279.971 230.851 278.703C231.039 277.253 233.904 248.91 234.04 247ZM232.505 256.891C232.505 256.891 232.608 255.732 231.175 256.022C229.743 256.312 227.133 258.767 223.927 258.494C220.721 258.222 217.669 256.431 216.714 257.625C215.759 258.818 219.801 262.587 225.036 261.7C231.039 260.694 232.625 258.222 232.505 256.891ZM215.622 244.784C215.367 244.784 214.667 245.056 214.599 245.278C214.454 246.359 214.454 247.454 214.599 248.535L216.305 248.211C215.919 247.106 215.689 245.952 215.622 244.784ZM218.573 244.153C217.703 244.306 216.68 244.494 215.844 244.715C216.097 245.84 216.285 246.979 216.407 248.126C217.055 248.007 218.863 247.7 219.391 247.649C219.34 247.529 218.931 246.114 218.573 244.153ZM221.83 243.726C220.756 243.846 219.732 243.982 218.794 244.118C219.212 245.259 219.465 246.454 219.545 247.666L222.41 247.307C222.307 246.745 221.949 244.971 221.83 243.726ZM225.019 243.419C224.439 243.419 223.211 243.556 222.052 243.692C222.411 244.858 222.589 246.071 222.58 247.29L225.65 247C225.599 246.711 225.241 245.176 225.07 243.419H225.019ZM228.43 243.198L225.241 243.402C225.608 244.561 225.804 245.768 225.82 246.983C226.809 246.983 227.901 246.847 228.873 246.813C228.873 246.779 228.481 243.419 228.481 243.198H228.43ZM232.556 243.198C232.495 244.392 232.364 245.582 232.164 246.762H234.057C234.057 246.335 234.347 243.47 234.057 243.351C233.563 243.254 233.06 243.208 232.556 243.215V243.198ZM232.335 243.198H228.668C228.998 244.373 229.125 245.595 229.043 246.813H232.011C231.959 245.599 232.068 244.383 232.335 243.198ZM103.991 266.68C106.225 266.68 108.05 267.499 108.05 268.539C108.05 269.579 106.225 270.398 103.991 270.398C101.757 270.398 99.9496 269.562 99.9496 268.539C99.9496 267.516 101.689 266.68 103.991 266.68ZM60.8804 256.857C60.8804 257.233 60.1812 257.574 59.2945 257.608C58.4077 257.642 57.5891 257.352 57.5891 256.96C57.6232 256.056 60.8463 255.885 60.8804 256.857Z" fill="#1F1F1F"/>
<path d="M77.0299 299.9C78.1225 299.9 79.0081 299.373 79.0081 298.723C79.0081 298.073 78.1225 297.546 77.0299 297.546C75.9374 297.546 75.0518 298.073 75.0518 298.723C75.0518 299.373 75.9374 299.9 77.0299 299.9Z" fill="#1F1F1F"/>
<path fill-rule="evenodd" clip-rule="evenodd" d="M162.194 242.243C163.9 242.243 165.366 242.737 165.366 243.334C165.366 243.931 163.951 244.442 162.194 244.442C160.438 244.442 159.039 243.948 159.039 243.334C159.039 242.72 160.455 242.243 162.194 242.243ZM53.6157 198.705C53.6157 199.132 53.3599 202.355 53.4963 207.062C53.4963 207.693 53.6157 209.841 53.6157 209.841C53.6157 209.841 53.8203 209.961 53.8203 209.841C53.8203 209.722 53.9227 207.693 53.9397 207.062C54.042 203.139 53.8203 198.535 53.8203 198.705C53.8203 198.678 53.8096 198.652 53.7904 198.633C53.7712 198.614 53.7452 198.603 53.718 198.603C53.6909 198.603 53.6649 198.614 53.6457 198.633C53.6265 198.652 53.6157 198.678 53.6157 198.705ZM124.643 12.3636C126.775 12.9434 130.543 14.1542 131.908 15.9107C131.957 15.9751 131.983 16.0537 131.984 16.1347C131.985 16.2157 131.959 16.2947 131.911 16.3599C131.863 16.4252 131.795 16.4731 131.718 16.4967C131.64 16.5202 131.557 16.518 131.481 16.4905C124.66 13.7108 113.797 17.2579 106.907 20.1228C104.179 21.2654 120.55 2.79664 132.317 5.6957C132.397 5.72022 132.468 5.76991 132.518 5.83746C132.568 5.905 132.595 5.98683 132.595 6.07088C132.595 6.15493 132.568 6.23676 132.518 6.3043C132.468 6.37185 132.397 6.42154 132.317 6.44605C129.642 7.07331 127.015 7.8882 124.455 8.88468C126.416 8.96995 130.936 9.25985 132.453 10.59C132.513 10.642 132.557 10.7105 132.579 10.787C132.601 10.8634 132.6 10.9446 132.577 11.0206C132.553 11.0966 132.508 11.1641 132.447 11.2148C132.385 11.2655 132.311 11.2973 132.232 11.3063C129.685 11.5275 127.153 11.8804 124.643 12.3636ZM130.305 6.1732C126.955 6.16095 123.661 7.03147 120.755 8.69709C115.554 11.4561 110.925 15.177 107.112 19.6624C113.643 16.8315 122.938 13.6255 129.912 15.2285C127.712 14.1048 125.373 13.279 122.955 12.7728C122.867 12.7542 122.788 12.7059 122.731 12.6361C122.675 12.5662 122.644 12.479 122.644 12.3891C122.644 12.2992 122.675 12.2121 122.731 12.1422C122.788 12.0724 122.867 12.0241 122.955 12.0054C125.553 11.3054 128.205 10.8262 130.884 10.573C128.269 9.95623 125.591 9.64717 122.903 9.65208C122.816 9.65459 122.73 9.62773 122.66 9.57579C122.589 9.52384 122.538 9.44979 122.514 9.36545C122.491 9.2811 122.496 9.1913 122.53 9.11035C122.563 9.0294 122.623 8.96197 122.699 8.91879C125.123 7.72166 127.675 6.80068 130.305 6.1732ZM15.1434 148.824C13.4473 149.047 11.7378 149.149 10.0274 149.131C9.94048 149.135 9.8551 149.108 9.78581 149.055C9.71653 149.003 9.66764 148.928 9.6475 148.843C9.62736 148.759 9.63723 148.67 9.67541 148.592C9.71359 148.514 9.77771 148.451 9.85682 148.415C11.9714 147.273 16.951 146.147 19.509 144.374L25.8358 140.144C25.8486 140.13 25.8644 140.118 25.882 140.11C25.8996 140.102 25.9188 140.098 25.9381 140.098C25.9575 140.098 25.9766 140.102 25.9943 140.11C26.0119 140.118 26.0276 140.13 26.0404 140.144C26.228 140.366 25.8358 140.383 23.7041 143.197C22.2891 144.939 21.1398 146.882 20.2935 148.961C19.3789 151.135 18.5764 153.355 17.8889 155.612C17.8889 156.123 16.6611 156.498 17.0022 153.702C17.1433 152.658 17.3368 151.622 17.582 150.598C15.8128 151.875 13.9485 153.015 12.0055 154.009C11.9356 154.049 11.8549 154.066 11.7745 154.059C11.6941 154.052 11.6179 154.02 11.5564 153.968C11.4948 153.915 11.4509 153.845 11.4306 153.767C11.4102 153.689 11.4145 153.607 11.4428 153.531C12.315 151.709 13.5786 150.102 15.1434 148.824ZM24.7956 141.27C16.4394 147.153 20.1741 145.022 11.835 148.347C13.4308 148.343 15.0171 148.102 16.5417 147.631L16.7293 147.477C17.1045 147.187 17.7696 147.767 17.0363 148.245C15.3971 149.533 13.95 151.049 12.7388 152.747C14.6275 151.78 16.3961 150.596 18.0083 149.217C18.0683 149.147 18.1509 149.1 18.2417 149.085C18.3325 149.07 18.4257 149.088 18.5049 149.135C18.5842 149.181 18.6445 149.254 18.6753 149.341C18.7061 149.428 18.7054 149.523 18.6734 149.609C18.3207 150.895 18.0361 152.198 17.8207 153.514C19.1687 148.949 21.5561 144.758 24.7956 141.27ZM25.9552 133.306C28.8472 128.62 32.9785 124.825 37.8925 122.341C44.5092 119.22 46.9308 122.545 43.9294 128.514C41.3736 133.282 37.7203 137.374 33.2711 140.451C33.772 142.201 33.9738 144.023 33.8679 145.84C33.4245 147.545 25.0855 150.41 23.9429 150.274C23.8563 150.27 23.7725 150.242 23.7004 150.194C23.6283 150.146 23.5706 150.079 23.5336 150.001C23.3631 149.609 23.7553 149.251 24.1305 148.961C26.2124 147.44 28.3945 146.061 30.6619 144.834L30.5425 142.003L29.5705 142.481C29.5072 142.498 29.4402 142.498 29.3771 142.48C29.3139 142.462 29.2569 142.427 29.2124 142.378L23.8406 137.143C23.8154 137.115 23.8015 137.078 23.8015 137.041C23.8015 137.003 23.8154 136.966 23.8406 136.938C23.8406 136.938 24.0111 136.58 24.3692 135.949H21.3849C20.9415 136.87 17.9742 142.873 17.0192 143.282C16.9506 143.315 16.8751 143.331 16.7989 143.329C16.7227 143.327 16.6481 143.307 16.5813 143.271C16.5146 143.234 16.4575 143.182 16.415 143.118C16.3726 143.055 16.3458 142.983 16.3371 142.907C16.1325 141.628 18.6563 133.289 20.3276 132.794C22.1832 132.624 24.0542 132.75 25.8699 133.169C25.8967 133.18 25.9195 133.199 25.9348 133.224C25.9501 133.248 25.9573 133.277 25.9552 133.306ZM32.8959 140.571C32.219 141.022 31.5188 141.438 30.7983 141.815L31.1565 145.039C31.1565 145.294 31.1565 145.141 27.7458 147.392C26.7055 148.057 25.6482 148.756 24.932 149.285C27.5196 148.572 30.0149 147.559 32.3672 146.266C32.5548 146.147 33.0494 145.806 33.1176 145.584C33.2978 143.911 33.223 142.221 32.8959 140.571ZM25.3754 134.994C24.7103 135.983 24.301 136.699 24.1475 136.989L29.4341 141.884C30.048 141.577 30.7131 141.202 31.4122 140.775C29.2096 139.057 27.187 137.12 25.3754 134.994ZM25.8017 133.545C24.0426 133.295 22.2572 133.295 20.4981 133.545C19.9012 133.749 18.878 136.461 18.6905 136.955C18.0883 138.561 17.6038 140.208 17.2409 141.884C18.2641 140.366 21.0609 135.403 20.9415 135.642C20.9646 135.595 21.0011 135.555 21.0466 135.527C21.092 135.5 21.1444 135.487 21.1973 135.489L24.5227 135.659C24.8638 135.011 25.273 134.346 25.8017 133.545ZM35.1981 124.694C31.3326 127.318 28.0473 130.707 25.5459 134.653C27.8104 136.392 29.8802 138.37 31.7192 140.554C35.6106 137.989 38.9503 134.673 41.5419 130.799L35.1981 124.694ZM32.1455 128.974C31.8175 129.318 31.5603 129.723 31.3887 130.166C31.2172 130.609 31.1346 131.082 31.1457 131.557C31.1568 132.032 31.2613 132.5 31.4533 132.935C31.6454 133.37 31.9212 133.762 32.2649 134.09C32.6087 134.418 33.0137 134.676 33.4568 134.847C33.9 135.019 34.3726 135.101 34.8476 135.09C35.3227 135.079 35.7909 134.975 36.2256 134.783C36.6603 134.59 37.0528 134.315 37.3809 133.971C38.0435 133.277 38.4032 132.348 38.3808 131.388C38.3584 130.429 37.9558 129.518 37.2615 128.855C36.5673 128.192 35.6383 127.833 34.6788 127.855C33.7194 127.877 32.8081 128.28 32.1455 128.974ZM36.9034 129.247C37.4524 129.811 37.7596 130.566 37.7596 131.353C37.7596 132.14 37.4524 132.896 36.9034 133.459C36.3652 133.959 35.6567 134.234 34.9226 134.228C34.1885 134.223 33.484 133.938 32.9531 133.431C32.4221 132.924 32.1047 132.233 32.0655 131.5C32.0264 130.767 32.2685 130.047 32.7424 129.486C33.27 128.915 33.9986 128.571 34.7747 128.527C35.5508 128.482 36.314 128.74 36.9034 129.247ZM35.9655 130.219C36.1977 130.46 36.3539 130.764 36.4147 131.093C36.4754 131.422 36.438 131.762 36.3071 132.07C36.1762 132.378 35.9576 132.64 35.6785 132.825C35.3995 133.01 35.0723 133.108 34.7376 133.108C34.403 133.108 34.0758 133.01 33.7967 132.825C33.5177 132.64 33.2991 132.378 33.1682 132.07C33.0373 131.762 32.9999 131.422 33.0607 131.093C33.1214 130.764 33.2776 130.46 33.5098 130.219C33.6689 130.054 33.8596 129.923 34.0706 129.833C34.2815 129.744 34.5084 129.697 34.7376 129.697C34.9669 129.697 35.1938 129.744 35.4047 129.833C35.6157 129.923 35.8064 130.054 35.9655 130.219Z" fill="#1F1F1F"/>
<path fill-rule="evenodd" clip-rule="evenodd" d="M89.9564 14.3928C89.8005 14.2605 89.6781 14.0931 89.5992 13.9045C89.5204 13.7158 89.4872 13.5112 89.5026 13.3073C89.5179 13.1034 89.5813 12.906 89.6875 12.7313C89.7937 12.5566 89.9398 12.4095 90.1137 12.302C90.2877 12.1945 90.4846 12.1297 90.6884 12.1129C90.8921 12.0961 91.097 12.1277 91.2862 12.2052C91.4754 12.2827 91.6436 12.4039 91.7771 12.5588C91.9105 12.7138 92.0054 12.8981 92.0539 13.0967C92.0662 13.3113 92.0276 13.5259 91.9412 13.7227C91.8549 13.9196 91.7232 14.0933 91.557 14.2296C91.3907 14.366 91.1946 14.4611 90.9846 14.5072C90.7746 14.5533 90.5567 14.5492 90.3486 14.4951C90.3486 14.6656 90.0928 16.5585 89.5812 18.7755C91.9506 18.7845 94.2381 19.6438 96.0274 21.197C96.0533 21.1495 96.0958 21.1131 96.1467 21.0947C109.448 19.2188 110.83 23.6186 106.549 27.1487C101.74 31.1221 86.972 35.6753 78.8205 34.601C76.6889 34.3452 73.3805 33.3561 73.3464 31.3438C73.3464 28.7517 80.2871 25.8697 80.56 25.7332C81.6717 22.9178 83.8198 20.6354 86.5628 19.3553C85.352 18.0422 84.09 16.1322 83.8001 15.8082C82.3506 16.5926 80.9863 14.7338 82.0948 13.7788C82.339 13.5648 82.6572 13.4546 82.9816 13.4719C83.252 13.4171 83.5329 13.4551 83.7791 13.5795C84.0253 13.704 84.2225 13.9078 84.3387 14.158C84.4549 14.4082 84.4835 14.6903 84.4198 14.9587C84.3562 15.2271 84.2039 15.4663 83.9877 15.6376C84.5615 16.0509 85.0727 16.5449 85.5055 17.1042C87.9611 20.0715 85.8806 19.0483 88.9161 18.8096C89.0063 17.2884 89.3582 15.7943 89.9564 14.3928ZM80.2701 26.2107C78.7353 26.9611 73.7898 29.6214 73.858 31.3267C73.858 31.8895 74.3526 32.4522 75.2564 32.9468C81.6002 36.3575 100.478 31.0027 105.952 26.5518C109.073 24.0449 108.749 21.6404 102.815 21.2141C100.539 21.111 98.2587 21.1794 95.9932 21.4187C95.5669 22.4078 91.4571 30.1841 80.2701 26.2107ZM78.5647 30.2694C78.4905 30.4272 78.4502 30.5988 78.4466 30.7732C78.4429 30.9475 78.4759 31.1207 78.5434 31.2814C78.6109 31.4422 78.7115 31.587 78.8386 31.7064C78.9656 31.8259 79.1163 31.9173 79.281 31.9748C79.4445 32.0155 79.6144 32.0235 79.781 31.9984C79.9476 31.9733 80.1076 31.9155 80.2518 31.8283C80.396 31.7412 80.5216 31.6264 80.6213 31.4905C80.721 31.3547 80.7929 31.2005 80.8328 31.0368C80.9346 30.736 80.9127 30.4072 80.772 30.1225C80.6313 29.8379 80.3833 29.6208 80.0825 29.5191C79.7817 29.4173 79.4528 29.4392 79.1682 29.5799C78.8836 29.7206 78.6665 29.9686 78.5647 30.2694ZM79.9631 29.7919C80.7135 30.133 80.2019 31.4973 79.4856 31.2926C78.7694 31.088 79.1446 29.6384 79.9631 29.7919ZM91.7299 28.8199C91.6093 28.73 91.4701 28.6684 91.3225 28.6394C91.1749 28.6105 91.0228 28.615 90.8771 28.6526C90.7315 28.6903 90.5962 28.7601 90.4811 28.8569C90.3661 28.9537 90.2741 29.0751 90.2122 29.2121C90.0813 29.5178 90.0682 29.8611 90.1752 30.1759C90.2822 30.4907 90.5019 30.7549 90.792 30.9174C90.9305 31.0032 91.0865 31.0569 91.2485 31.0745C91.4104 31.0921 91.5743 31.0732 91.728 31.0193C91.8818 30.9653 92.0214 30.8776 92.1369 30.7626C92.2523 30.6476 92.3405 30.5082 92.395 30.3547C92.4906 30.0618 92.4758 29.744 92.3533 29.4613C92.2308 29.1785 92.009 28.9504 91.7299 28.8199ZM91.5935 29.0586C92.2756 29.5702 91.8322 30.764 91.116 30.3547C90.3997 29.9454 90.7749 28.7176 91.5935 29.0757V29.0586ZM100.717 24.1814C100.618 24.0886 100.499 24.0193 100.37 23.9788C100.24 23.9382 100.103 23.9273 99.9686 23.947C99.8342 23.9666 99.706 24.0163 99.5935 24.0923C99.481 24.1683 99.3871 24.2687 99.3187 24.386C99.1868 24.659 99.159 24.9708 99.2406 25.2628C99.3223 25.5548 99.5077 25.807 99.762 25.972C99.8757 26.0646 100.008 26.1308 100.151 26.1658C100.293 26.2008 100.442 26.2037 100.585 26.1743C100.729 26.145 100.864 26.084 100.981 25.9959C101.098 25.9079 101.195 25.7948 101.263 25.665C101.326 25.532 101.361 25.3877 101.368 25.2407C101.374 25.0937 101.352 24.9469 101.301 24.8088C101.25 24.6707 101.172 24.5441 101.072 24.4364C100.972 24.3287 100.851 24.242 100.717 24.1814ZM100.581 24.4031C101.092 24.8806 100.734 25.8355 100.137 25.4263C99.5403 25.017 99.8814 24.062 100.581 24.4031ZM82.9816 13.7277C83.2022 13.7358 83.4119 13.826 83.5696 13.9805C83.7273 14.135 83.8216 14.3429 83.8342 14.5633C83.8254 14.7608 83.7407 14.9474 83.5977 15.084C83.4548 15.2206 83.2646 15.2968 83.0668 15.2966C82.9638 15.3022 82.8607 15.2874 82.7634 15.2532C82.6661 15.2189 82.5764 15.1659 82.4996 15.097C82.3445 14.9578 82.251 14.7628 82.2397 14.5548C82.2284 14.3467 82.3002 14.1427 82.4393 13.9876C82.5785 13.8325 82.7735 13.739 82.9816 13.7277ZM90.5362 12.2781C90.7568 12.2863 90.9665 12.3764 91.1242 12.531C91.2819 12.6855 91.3763 12.8933 91.3889 13.1138C91.3801 13.3113 91.2953 13.4978 91.1524 13.6345C91.0094 13.7711 90.8192 13.8472 90.6215 13.847C90.5114 13.8684 90.3981 13.866 90.2891 13.8399C90.1802 13.8138 90.078 13.7646 89.9896 13.6958C89.9012 13.6269 89.8286 13.5398 89.7767 13.4405C89.7247 13.3412 89.6947 13.2319 89.6885 13.12C89.6824 13.0081 89.7003 12.8962 89.741 12.7918C89.7818 12.6874 89.8444 12.593 89.9247 12.5148C90.005 12.4366 90.1012 12.3766 90.2066 12.3387C90.3121 12.3008 90.4245 12.286 90.5362 12.2952V12.2781ZM174.694 96.948C175.495 95.4652 176.807 94.3241 178.386 93.7376C179.966 93.1511 181.705 93.1592 183.279 93.7604C184.853 94.3616 186.155 95.5149 186.941 97.0051C187.727 98.4953 187.945 100.221 187.553 101.859C190.061 103.08 192.458 104.518 194.715 106.157C195.704 107.044 195.568 107.862 193.811 107.743C190.761 107.471 187.745 106.899 184.807 106.037C183.867 106.724 182.769 107.163 181.615 107.315C180.461 107.466 179.287 107.324 178.202 106.903C177.117 106.482 176.155 105.795 175.405 104.904C174.655 104.014 174.141 102.949 173.91 101.808C172.205 100.99 166.287 97.9371 165.929 96.2147C165.81 95.5837 166.424 95.2938 167.072 95.2256C169.692 95.3634 172.27 95.9459 174.694 96.948ZM187.416 102.217C187.083 103.376 186.455 104.428 185.592 105.27C188.49 106.105 191.458 106.676 194.459 106.975C193.487 105.713 188.815 103.019 187.416 102.217ZM174.524 102.064C174.801 103.024 175.295 103.906 175.968 104.644C176.641 105.382 177.475 105.954 178.406 106.317C179.336 106.68 180.338 106.823 181.332 106.736C182.327 106.65 183.289 106.334 184.142 105.816C180.847 104.805 177.633 103.551 174.524 102.064ZM185.063 105.117C186.261 104.049 187.025 102.577 187.207 100.982C187.39 99.3875 186.978 97.7814 186.052 96.4705C185.566 95.7546 184.939 95.1453 184.21 94.6799C183.48 94.2146 182.664 93.9029 181.81 93.764C180.956 93.6252 180.082 93.662 179.243 93.8722C178.404 94.0825 177.616 94.4618 176.928 94.9869C176.002 95.6686 175.272 96.5824 174.811 97.6362C174.35 98.6899 174.174 99.8466 174.302 100.99C177.772 102.653 181.371 104.033 185.063 105.117ZM174.524 97.2891C173.262 96.8798 167.703 95.2768 166.696 96.0612C167.089 97.2891 172.631 100.171 173.91 100.7C173.813 99.5287 174.025 98.3527 174.524 97.2891ZM50.8872 202.389C52.9461 203.742 55.1136 204.923 57.3674 205.919C57.3893 205.926 57.4129 205.925 57.4343 205.917C57.4558 205.909 57.4738 205.893 57.4856 205.874C57.4975 205.854 57.5023 205.831 57.4994 205.808C57.4965 205.786 57.4861 205.764 57.4698 205.748C55.4084 204.399 53.2413 203.218 50.9895 202.218C50.9676 202.211 50.944 202.212 50.9226 202.22C50.9011 202.229 50.8831 202.244 50.8713 202.263C50.8595 202.283 50.8546 202.306 50.8575 202.329C50.8604 202.352 50.8708 202.373 50.8872 202.389ZM13.9155 52.6605C13.9155 48.5335 14.1543 44.6454 14.1543 44.8159C14.1655 44.7818 14.1872 44.7521 14.2163 44.731C14.2454 44.71 14.2804 44.6986 14.3163 44.6986C14.3522 44.6986 14.3872 44.71 14.4163 44.731C14.4454 44.7521 14.4671 44.7818 14.4783 44.8159C14.4783 46.0608 14.7 47.1693 14.717 52.9333C15.9772 52.1131 17.2809 51.3617 18.6222 50.6823C18.6402 50.6711 18.6601 50.6635 18.6809 50.66C18.7018 50.6565 18.7231 50.6572 18.7437 50.6619C18.7643 50.6667 18.7837 50.6754 18.8009 50.6877C18.8181 50.7 18.8327 50.7155 18.8439 50.7334C18.8551 50.7513 18.8627 50.7713 18.8662 50.7921C18.8697 50.813 18.869 50.8343 18.8643 50.8549C18.8595 50.8755 18.8508 50.8949 18.8385 50.9121C18.8262 50.9293 18.8107 50.9439 18.7928 50.9551C17.7011 51.8506 16.5626 52.6874 15.3821 53.462C17.8378 54.8092 18.3323 55.1673 19.509 55.8835C20.6857 56.5998 20.7027 56.5998 20.6175 56.7703C20.5322 56.9408 20.4469 56.8726 19.2703 56.3269C18.0936 55.7812 17.2921 55.4402 14.717 54.0247C14.717 60.5562 14.4612 63.5405 14.4612 63.37C14.45 63.4041 14.4283 63.4338 14.3992 63.4548C14.3701 63.4759 14.3351 63.4872 14.2992 63.4872C14.2633 63.4872 14.2283 63.4759 14.1992 63.4548C14.1701 63.4338 14.1484 63.4041 14.1372 63.37C14.1372 62.1421 13.8985 61.0678 13.8985 54.417C12.5678 55.2985 11.1901 56.1068 9.77155 56.8385C9.75363 56.8497 9.73369 56.8573 9.71285 56.8608C9.69201 56.8643 9.67069 56.8636 9.65011 56.8589C9.62952 56.8541 9.61007 56.8453 9.59287 56.8331C9.57567 56.8208 9.56105 56.8053 9.54986 56.7874C9.53866 56.7694 9.5311 56.7495 9.52761 56.7287C9.52412 56.7078 9.52477 56.6865 9.52952 56.6659C9.53427 56.6453 9.54303 56.6259 9.5553 56.6087C9.56757 56.5915 9.5831 56.5769 9.60102 56.5657C10.9437 55.4661 12.3502 54.4468 13.8132 53.5131C12.4319 52.7457 11.9885 52.4729 10.8971 51.8078C9.80566 51.1427 9.44754 50.9381 9.5328 50.7505C9.56496 50.7269 9.60379 50.7142 9.64365 50.7142C9.68351 50.7142 9.72234 50.7269 9.7545 50.7505C11.9032 51.552 13.1822 52.2853 13.9155 52.6605Z" fill="#1F1F1F"/>
<path fill-rule="evenodd" clip-rule="evenodd" d="M50.9895 205.919C52.8999 204.917 54.7102 203.735 56.3954 202.389C56.5148 202.389 56.3954 202.15 56.2931 202.218C54.384 203.222 52.574 204.404 50.8872 205.748C50.7849 205.817 50.8872 205.987 50.9895 205.919ZM103.855 103.087C103.855 107.879 104.025 108.647 104.025 109.516C104.018 109.534 104.015 109.554 104.018 109.573C104.02 109.593 104.026 109.611 104.037 109.628C104.048 109.644 104.063 109.657 104.08 109.666C104.098 109.675 104.117 109.68 104.136 109.68C104.156 109.68 104.175 109.675 104.192 109.666C104.209 109.657 104.224 109.644 104.235 109.628C104.246 109.611 104.253 109.593 104.255 109.573C104.257 109.554 104.254 109.534 104.247 109.516C104.247 109.687 104.435 106.924 104.435 102.797C105.757 103.545 107.117 104.222 108.51 104.827C108.647 104.827 108.766 104.69 108.63 104.622C107.429 103.82 106.189 103.08 104.912 102.405C105.757 101.884 106.571 101.314 107.351 100.7C107.374 100.682 107.39 100.657 107.395 100.628C107.401 100.599 107.396 100.57 107.381 100.545C107.367 100.52 107.343 100.501 107.316 100.492C107.288 100.482 107.258 100.484 107.231 100.495C107.231 100.495 105.833 101.211 104.435 102.115C104.435 97.8689 104.264 96.9992 104.264 96.2829C104.264 96.2513 104.252 96.2209 104.229 96.1985C104.207 96.1762 104.176 96.1636 104.145 96.1636C104.113 96.1636 104.083 96.1762 104.06 96.1985C104.038 96.2209 104.025 96.2513 104.025 96.2829C104.025 96.1124 103.872 99.0285 103.855 101.928C103.36 101.672 102.371 101.143 100.871 100.495C100.734 100.495 100.615 100.632 100.751 100.7C100.888 100.768 102.013 101.569 103.787 102.542C102.737 103.177 101.723 103.872 100.751 104.622C100.615 104.622 100.751 104.912 100.871 104.827C100.7 104.912 101.979 104.281 103.855 103.087ZM146.727 223.586C144.868 222.819 125.257 221.608 125.086 221.591C124.558 221.591 120.738 222.358 120.482 222.427C120.226 222.495 120.482 222.427 120.482 222.512C121.973 223.193 123.512 223.763 125.086 224.217C126.792 224.575 130.202 224.609 146.369 226.349C146.676 226.349 147.324 225.292 146.949 223.757C146.932 223.706 146.812 223.637 146.727 223.586ZM125.001 224.047L122.426 223.143C122.525 223.007 122.59 222.849 122.614 222.682C122.638 222.516 122.62 222.346 122.562 222.188C123.396 222.02 124.239 221.9 125.086 221.83C125.496 222.239 124.404 222.392 125.223 222.921C125.325 222.921 125.342 222.921 125.223 223.04C125.179 223.062 125.141 223.092 125.11 223.129C125.078 223.166 125.055 223.209 125.04 223.255C125.026 223.301 125.021 223.35 125.026 223.398C125.031 223.446 125.046 223.493 125.069 223.535C125.206 223.774 125.359 223.876 125.001 224.047ZM125.206 224.047C125.683 223.791 125.035 223.399 125.359 223.194C126.075 222.699 122.665 222.836 145.192 224.899C145.145 225.25 145.224 225.607 145.414 225.905L125.206 224.047ZM145.209 224.763C144.442 224.678 125.564 222.887 125.444 222.785C125.325 222.682 125.018 222.597 125.172 222.392C125.325 222.188 125.41 222 125.172 221.796C125.342 221.796 142.071 223.126 145.636 223.723C145.387 224.029 145.238 224.404 145.209 224.797V224.763ZM146.301 225.94C146.181 225.82 146.164 225.854 146.045 225.513C145.925 225.172 146.045 224.012 146.591 224.012C146.674 224.342 146.692 224.685 146.642 225.022C146.592 225.359 146.476 225.682 146.301 225.974V225.94ZM158.153 175.615C158.134 175.552 158.101 175.495 158.057 175.446C158.013 175.397 157.959 175.359 157.898 175.334C157.838 175.309 157.772 175.297 157.707 175.301C157.641 175.304 157.578 175.321 157.52 175.352C157.462 175.383 157.412 175.426 157.372 175.479C157.333 175.532 157.306 175.592 157.294 175.657C157.281 175.721 157.282 175.787 157.298 175.851C157.314 175.914 157.344 175.974 157.385 176.024C157.556 176.297 157.726 176.57 157.914 176.843C157.94 176.902 157.978 176.954 158.026 176.997C158.075 177.039 158.132 177.071 158.193 177.089C158.255 177.108 158.32 177.112 158.383 177.103C158.447 177.094 158.508 177.071 158.562 177.036C158.616 177.001 158.661 176.954 158.695 176.9C158.73 176.846 158.752 176.784 158.76 176.72C158.768 176.657 158.762 176.592 158.743 176.531C158.723 176.469 158.691 176.413 158.647 176.365C158.562 176.127 158.306 175.871 158.153 175.615ZM136.904 139.394C137.007 138.592 137.945 134.517 137.586 134.431C137.566 134.423 137.545 134.42 137.523 134.421C137.502 134.422 137.481 134.427 137.461 134.437C137.442 134.446 137.425 134.46 137.411 134.477C137.397 134.493 137.387 134.513 137.382 134.534C136.898 135.724 136.527 136.957 136.273 138.217C136.176 138.661 136.114 139.111 136.086 139.564C136.088 139.634 136.108 139.702 136.144 139.761C136.18 139.821 136.23 139.871 136.29 139.905C136.718 140.124 137.179 140.268 137.655 140.332C138.03 140.332 139.36 140.434 139.206 140.076C139.053 139.718 138.848 140.366 136.904 139.394ZM144.561 136.921V136.034C144.561 135.42 143.709 135.335 143.691 136.034V137.006C143.687 137.071 143.696 137.135 143.719 137.196C143.742 137.256 143.778 137.311 143.824 137.356C143.87 137.401 143.926 137.436 143.987 137.457C144.048 137.478 144.113 137.486 144.177 137.48C144.241 137.474 144.303 137.453 144.359 137.421C144.415 137.388 144.462 137.343 144.499 137.29C144.536 137.237 144.56 137.176 144.571 137.112C144.582 137.049 144.578 136.983 144.561 136.921ZM145.687 141.628C145.141 143.674 144.408 143.981 143.521 144.083C143.339 144.098 143.157 144.098 142.975 144.083C142.935 144.07 142.89 144.073 142.852 144.092C142.813 144.111 142.784 144.145 142.771 144.186C142.757 144.226 142.76 144.271 142.779 144.309C142.799 144.348 142.832 144.377 142.873 144.39C144.357 145.243 146.386 144.203 146.011 141.628C146 141.594 145.978 141.564 145.949 141.543C145.92 141.522 145.885 141.511 145.849 141.511C145.813 141.511 145.778 141.522 145.749 141.543C145.72 141.564 145.698 141.594 145.687 141.628ZM152.099 162.944C152.089 162.888 152.068 162.835 152.037 162.787C152.006 162.739 151.966 162.698 151.92 162.665C151.873 162.633 151.82 162.61 151.765 162.598C151.709 162.586 151.652 162.585 151.596 162.595C151.54 162.605 151.486 162.626 151.438 162.657C151.391 162.687 151.349 162.727 151.317 162.774C151.284 162.821 151.261 162.873 151.249 162.929C151.237 162.985 151.236 163.042 151.246 163.098C151.319 163.416 151.41 163.729 151.519 164.036C151.524 164.101 151.544 164.165 151.576 164.222C151.609 164.279 151.654 164.328 151.708 164.365C151.762 164.403 151.824 164.428 151.888 164.439C151.953 164.449 152.02 164.446 152.083 164.428C152.146 164.41 152.204 164.378 152.254 164.334C152.303 164.291 152.342 164.237 152.368 164.177C152.394 164.116 152.406 164.051 152.404 163.985C152.402 163.92 152.385 163.855 152.355 163.797C152.252 163.507 152.167 163.217 152.099 162.944ZM135.318 134.38C135.331 134.316 135.329 134.249 135.314 134.186C135.298 134.122 135.268 134.063 135.226 134.012C135.185 133.962 135.132 133.921 135.073 133.893C135.014 133.865 134.949 133.85 134.883 133.85C134.818 133.85 134.753 133.865 134.694 133.893C134.635 133.921 134.582 133.962 134.541 134.012C134.499 134.063 134.469 134.122 134.453 134.186C134.437 134.249 134.436 134.316 134.449 134.38V135.352C134.436 135.416 134.437 135.483 134.453 135.546C134.469 135.61 134.499 135.669 134.541 135.72C134.582 135.771 134.635 135.811 134.694 135.84C134.753 135.868 134.818 135.882 134.883 135.882C134.949 135.882 135.014 135.868 135.073 135.84C135.132 135.811 135.185 135.771 135.226 135.72C135.268 135.669 135.298 135.61 135.314 135.546C135.329 135.483 135.331 135.416 135.318 135.352C135.298 135.028 135.298 134.704 135.318 134.38ZM270.125 205.817C270.023 205.834 270.125 205.817 270.125 205.817V205.817Z" fill="#1F1F1F"/>
<path fill-rule="evenodd" clip-rule="evenodd" d="M278.635 204.725C276.742 203.804 272.24 204.572 270.108 205.015C269.325 204.14 268.337 203.474 267.233 203.075C266.128 202.676 264.942 202.558 263.781 202.73C261.871 203.207 261.411 205.561 261.496 207.539C260.268 207.317 258.938 207.164 257.71 207.044C257.812 206.669 258.136 206.141 258.034 205.765C257.979 205.631 257.895 205.511 257.789 205.412C257.683 205.314 257.557 205.239 257.419 205.194C257.281 205.149 257.136 205.133 256.992 205.15C256.848 205.166 256.709 205.213 256.585 205.288C256.244 205.559 255.93 205.862 255.647 206.192C255.647 205.595 256.141 204.64 255.544 204.486C254.947 204.333 253.089 206.004 252.56 206.601C248.644 206.17 244.692 206.17 240.776 206.601C235.649 206.969 230.817 209.137 227.133 212.723C247.87 188.849 256.977 172.443 256.738 151.996C256.499 131.549 232.198 121.795 222.205 121.539C212.502 121.3 202.491 126.655 201.98 126.655C193.214 128.36 170.226 125.819 165.4 127.832C165.46 125.671 165.072 123.521 164.262 121.517C163.452 119.513 162.237 117.697 160.694 116.184C157.931 113.166 153.514 112.04 149.029 112.228C142.634 112.518 136.29 115.195 133.118 120.755C132.067 122.555 131.448 124.575 131.311 126.655C131.311 127.184 130.219 135.881 133.016 142.463C133.647 144.13 134.656 145.628 135.964 146.838C137.272 148.048 138.843 148.938 140.554 149.438C137.797 153.093 135.268 156.915 132.982 160.881C132.453 161.99 132.846 162.586 133.613 162.586C134.38 162.586 135.404 162.382 136.12 162.416C134.994 165.503 132.129 173.552 131.43 176.741C127.924 179.102 124.767 181.943 122.051 185.182C116.935 191.048 114.547 197.409 108.749 200.803L107.044 201.758C109.363 194.715 113.746 180.731 112.16 180.714C110.574 180.697 106.72 194.152 104.264 203.276C101.638 204.725 100.308 205.646 99.3869 208.511C99.0867 209.235 98.9321 210.012 98.9321 210.796C98.9321 211.58 99.0867 212.357 99.3869 213.081C99.4963 213.314 99.6634 213.514 99.8725 213.663C100.081 213.813 100.325 213.906 100.581 213.934C100.785 213.934 100.785 213.746 100.222 214.991C99.9543 215.068 99.7007 215.189 99.4721 215.349L91.2695 210.353C91.0819 210.353 93.4353 210.029 43.5201 216.526C42.5822 215.827 41.5931 215.094 40.5699 214.292C16.0472 195.209 96.1297 174.728 102.542 148.654C108.289 125.308 75.2564 120.601 82.5893 98.6704C89.9223 76.7399 137.876 82.8791 183.016 80.2528C228.157 77.6266 246.114 32.0601 213.252 8.32183C180.39 -15.4164 146.625 18.298 138.644 26.91C130.663 35.5219 121.454 46.7942 95.601 45.6687C69.7482 44.5431 35.9143 48.9258 23.5166 86.4091C17.5479 104.349 22.9026 116.935 30.8665 126.911C33.5339 124.197 36.8327 122.187 40.4676 121.061C42.5822 120.55 44.6798 120.823 45.2766 122.92C46.4021 126.774 41.7295 132.76 39.0181 135.744C45.8394 142.327 52.3879 147.886 54.9629 153.633C59.2604 163.286 38.6599 170.431 29.9627 176.076C21.2655 181.72 7.98096 199.183 16.1325 216.134C16.7448 217.432 17.428 218.696 18.1789 219.92C0.886773 222.154 0.289906 222.154 0.119373 222.256C-0.0511606 222.358 -5.20935e-07 222.665 0.119373 222.836H0C1.5348 224.541 46.7091 289.105 74.4378 321.916L74.9324 322.018C80.9352 319.136 189.872 266.254 184.074 262.996C184.074 262.996 104.435 218.538 102.542 217.413C102.838 216.905 103.094 216.374 103.309 215.827C103.403 215.82 103.492 215.78 103.561 215.715C103.629 215.65 103.673 215.563 103.684 215.469V214.548C104.742 214.906 106.396 213.883 107.248 213.115C108.954 211.547 111.512 207.181 113.405 206.601C117.18 205.661 120.902 204.522 124.558 203.19C139.752 197.495 146.062 191.117 152.679 180.816C153.772 179.207 154.703 177.493 155.458 175.7C159.319 179.871 164.014 183.182 169.237 185.421C155.458 201.332 157.624 211.427 162.604 216.935C167.157 221.966 174.541 220.193 175.752 219.817C175.752 227.389 178.31 244.204 179.162 245.892C179.606 246.864 178.122 247.597 177.815 249.524C177.654 250.504 177.781 251.509 178.18 252.417C178.58 253.325 179.235 254.098 180.066 254.64C181.959 255.834 185.182 255.902 183.92 254.009C183.499 253.469 183.025 252.972 182.505 252.526C182.999 252.679 183.545 252.884 184.21 253.123C190.435 255.561 191.253 256.67 192.396 256.346C192.549 256.31 192.693 256.241 192.817 256.144C192.94 256.047 193.041 255.923 193.112 255.783C193.248 255.877 193.403 255.941 193.565 255.972C193.728 256.002 193.895 255.998 194.056 255.959C194.217 255.921 194.368 255.849 194.499 255.748C194.63 255.647 194.739 255.519 194.817 255.374C194.876 255.263 194.906 255.14 194.906 255.016C194.906 254.891 194.876 254.768 194.817 254.657C195.034 254.293 195.107 253.862 195.022 253.447C195.022 251.912 189.156 246.898 187.962 245.909C188.132 244.204 189.036 240.418 191.287 230.356C202.918 243.47 242.021 225.24 244.153 224.319C244.511 224.695 258.955 218.538 260.626 217.652C260.456 217.652 278.942 209.295 279.641 206.226C279.641 205.51 279.18 205.049 278.635 204.725ZM212.672 50.3242C212.954 50.3331 213.221 50.4526 213.416 50.6568C213.611 50.861 213.717 51.1336 213.712 51.4156C213.717 51.5559 213.694 51.6957 213.644 51.8268C213.594 51.9579 213.518 52.0778 213.421 52.1793C213.324 52.2809 213.208 52.3622 213.08 52.4185C212.951 52.4748 212.813 52.5049 212.672 52.507C212.531 52.5048 212.392 52.4748 212.262 52.4188C212.133 52.3627 212.016 52.2817 211.918 52.1803C211.819 52.079 211.742 51.9593 211.69 51.8281C211.638 51.6969 211.613 51.5567 211.615 51.4156C211.613 51.2745 211.638 51.1344 211.69 51.0032C211.742 50.872 211.819 50.7523 211.918 50.6509C212.016 50.5496 212.133 50.4685 212.262 50.4125C212.392 50.3564 212.531 50.3264 212.672 50.3242ZM203.037 20.5491C203.175 20.5491 203.312 20.5765 203.439 20.6299C203.566 20.6832 203.682 20.7614 203.779 20.8598C203.876 20.9582 203.952 21.0749 204.003 21.2031C204.054 21.3312 204.08 21.4684 204.077 21.6064C204.096 21.753 204.084 21.902 204.04 22.0433C203.997 22.1847 203.924 22.3153 203.827 22.4263C203.729 22.5373 203.609 22.6262 203.474 22.6871C203.34 22.7481 203.193 22.7796 203.046 22.7796C202.898 22.7796 202.752 22.7481 202.617 22.6871C202.482 22.6262 202.362 22.5373 202.264 22.4263C202.167 22.3153 202.094 22.1847 202.051 22.0433C202.008 21.902 201.995 21.753 202.014 21.6064C202.012 21.4698 202.036 21.3341 202.087 21.207C202.137 21.0799 202.211 20.964 202.306 20.8658C202.401 20.7676 202.515 20.6891 202.64 20.6348C202.766 20.5804 202.9 20.5513 203.037 20.5491ZM170.977 67.5993C170.855 67.5771 170.745 67.5129 170.666 67.4179C170.586 67.3228 170.543 67.2029 170.543 67.0791C170.543 66.9553 170.586 66.8354 170.666 66.7404C170.745 66.6453 170.855 66.5811 170.977 66.559C171.119 66.559 171.256 66.6156 171.357 66.7163C171.457 66.8171 171.514 66.9537 171.514 67.0962C171.514 67.2386 171.457 67.3753 171.357 67.476C171.256 67.5768 171.119 67.6334 170.977 67.6334V67.5993ZM166.338 20.7537C166.338 20.0716 168.044 19.7305 168.794 19.6282C170.033 19.4644 171.289 19.4644 172.529 19.6282C173.297 18.2176 174.243 16.911 175.342 15.74C175.701 15.4501 176.025 15.3478 176.349 15.74C177.12 17.2974 177.616 18.9763 177.815 20.7026C180.458 21.3847 184.142 22.6466 181.925 24.2326C181.243 24.7271 180.032 25.2387 178.719 25.9379C178.866 27.3141 178.912 28.6991 178.855 30.0819C178.855 30.7129 178.685 31.6679 178.054 31.7872C176.775 32.0089 175.786 30.2354 173.774 28.4959C171.847 29.4509 167.992 31.5655 167.907 29.5362C168.116 27.8053 168.63 26.1252 169.425 24.5737C167.464 22.7149 166.219 21.811 166.338 20.7878V20.7537ZM164.633 52.1148C164.629 53.3051 164.318 54.4744 163.731 55.5096C163.143 56.5448 162.299 57.4111 161.279 58.0248C160.259 58.6385 159.098 58.9789 157.908 59.013C156.718 59.0472 155.54 58.774 154.486 58.2199L164.411 50.3413C164.564 50.9319 164.644 51.5389 164.65 52.1489L164.633 52.1148ZM164.207 49.7103C161.478 51.8079 157.812 54.8263 154.145 58.0153C153.869 57.8489 153.607 57.6607 153.361 57.4525C156.925 53.8543 160.421 49.7956 162.587 47.2205C163.3 47.9406 163.857 48.7997 164.224 49.7444L164.207 49.7103ZM162.211 46.8624C161.529 47.5957 155.595 54.2806 153.037 57.0944C152.308 56.4258 151.728 55.6126 151.331 54.7069C153.923 52.8311 157.454 50.2219 161.376 47.1352L161.99 46.6407L162.211 46.8624ZM157.726 45.1571C159.094 45.1556 160.431 45.5656 161.563 46.3337L159.159 48.0391C158.613 48.4483 154.469 51.7055 151.195 54.2635C150.848 53.2242 150.751 52.1173 150.914 51.0335C151.076 49.9498 151.493 48.9199 152.131 48.0283C152.768 47.1366 153.607 46.4085 154.58 45.9035C155.552 45.3985 156.631 45.1311 157.726 45.1229V45.1571ZM141.287 42.3603C141.494 42.3535 141.698 42.4087 141.874 42.5188C142.049 42.6289 142.188 42.7889 142.272 42.9783C142.356 43.1677 142.382 43.3778 142.345 43.5818C142.309 43.7858 142.213 43.9743 142.069 44.1232C141.925 44.2721 141.74 44.3746 141.537 44.4176C141.334 44.4606 141.123 44.4421 140.931 44.3645C140.739 44.2868 140.575 44.1536 140.459 43.9819C140.343 43.8102 140.281 43.6077 140.281 43.4006C140.298 43.1412 140.414 42.8981 140.604 42.7208C140.794 42.5434 141.044 42.445 141.304 42.4456L141.287 42.3603ZM131.891 68.1791C132.289 68.1925 132.674 68.3228 132.999 68.5537C133.323 68.7847 133.573 69.1061 133.716 69.4779C133.859 69.8497 133.89 70.2554 133.804 70.6445C133.718 71.0335 133.52 71.3887 133.233 71.6658C132.947 71.9428 132.586 72.1294 132.194 72.2023C131.802 72.2753 131.398 72.2313 131.031 72.0759C130.664 71.9205 130.351 71.6605 130.131 71.3285C129.911 70.9964 129.793 70.6068 129.793 70.2084C129.806 69.6626 130.034 69.1439 130.426 68.7643C130.819 68.3846 131.345 68.1744 131.891 68.1791ZM105.356 63.37C106.089 63.37 106.089 64.6831 105.356 64.6831C104.622 64.6831 104.605 63.37 105.356 63.37ZM35.9996 101.075C35.9187 101.089 35.8356 101.086 35.7563 101.064C35.6769 101.043 35.6032 101.005 35.5402 100.952C35.4773 100.899 35.4267 100.833 35.392 100.759C35.3572 100.684 35.3393 100.603 35.3393 100.521C35.3393 100.439 35.3572 100.357 35.392 100.283C35.4267 100.208 35.4773 100.143 35.5402 100.09C35.6032 100.037 35.6769 99.9985 35.7563 99.9772C35.8356 99.9559 35.9187 99.9522 35.9996 99.9665C36.0805 99.9522 36.1636 99.9559 36.2429 99.9772C36.3223 99.9985 36.396 100.037 36.459 100.09C36.5219 100.143 36.5725 100.208 36.6072 100.283C36.642 100.357 36.66 100.439 36.66 100.521C36.66 100.603 36.642 100.684 36.6072 100.759C36.5725 100.833 36.5219 100.899 36.459 100.952C36.396 101.005 36.3223 101.043 36.2429 101.064C36.1636 101.086 36.0805 101.089 35.9996 101.075ZM72.6643 168.026C72.4351 168 72.2185 167.908 72.0407 167.761C71.8628 167.614 71.7313 167.419 71.6621 167.199C71.5928 166.979 71.5888 166.743 71.6505 166.521C71.7123 166.299 71.8371 166.099 72.0098 165.946C72.1826 165.794 72.3959 165.694 72.6241 165.66C72.8522 165.626 73.0853 165.658 73.2953 165.754C73.5052 165.85 73.683 166.004 73.8071 166.198C73.9312 166.393 73.9962 166.619 73.9945 166.85C73.9725 167.182 73.8205 167.491 73.5714 167.712C73.3223 167.932 72.9963 168.045 72.6643 168.026ZM76.7059 53.9736C76.9394 53.9702 77.1685 54.0364 77.3642 54.1636C77.56 54.2908 77.7134 54.4734 77.8051 54.6881C77.8968 54.9028 77.9226 55.1399 77.8791 55.3692C77.8356 55.5986 77.7249 55.8099 77.5611 55.9761C77.3972 56.1424 77.1876 56.2562 76.9589 56.303C76.7302 56.3498 76.4927 56.3275 76.2767 56.239C76.0607 56.1504 75.8759 55.9996 75.7459 55.8058C75.6158 55.6119 75.5463 55.3838 75.5463 55.1503C75.5463 54.8412 75.6679 54.5444 75.8849 54.3242C76.1019 54.1041 76.3968 53.9781 76.7059 53.9736ZM77.695 115.212C77.6935 115.379 77.6441 115.541 77.5528 115.681C77.4615 115.82 77.3321 115.93 77.18 115.998C77.0279 116.066 76.8595 116.089 76.6948 116.064C76.5302 116.039 76.3761 115.967 76.251 115.857C76.126 115.747 76.0351 115.603 75.9892 115.443C75.9434 115.283 75.9445 115.113 75.9924 114.954C76.0403 114.794 76.133 114.652 76.2595 114.543C76.386 114.435 76.5409 114.365 76.7059 114.342C76.8258 114.333 76.9462 114.349 77.0597 114.388C77.1733 114.427 77.2774 114.49 77.3655 114.572C77.4536 114.653 77.5239 114.753 77.5718 114.863C77.6197 114.973 77.6442 115.092 77.6439 115.212H77.695ZM78.0873 140.4C79.1105 139.598 82.1289 137.109 83.0327 137.893C83.9366 138.678 83.1521 140.332 83.0327 142.685C84.9256 143.589 88.8479 145.311 87.3131 146.403C85.8102 147.137 84.1973 147.621 82.5382 147.835C82.2483 150.308 82.2653 151.57 81.4297 151.996C80.8499 152.269 79.5709 151.229 79.0934 150.785C78.176 150.003 77.3724 149.096 76.7059 148.091C75.1484 148.279 73.5738 148.279 72.0163 148.091C71.607 147.989 71.3 147.801 71.3853 147.392C71.5729 146.454 73.6875 144.459 74.3867 143.794C73.9433 142.822 72.903 140.383 73.2612 139.411C73.7728 138.064 75.9726 139.547 78.0361 140.4H78.0873ZM72.5449 85.4541C72.903 85.4541 73.0906 85.7099 73.0395 86.1533C72.6825 87.4188 72.1425 88.6253 71.4365 89.7345C72.1677 90.5002 72.7929 91.3605 73.2953 92.2925C75.0006 95.5838 72.6302 94.7482 69.1172 93.9978C68.2888 95.2294 67.2359 96.2939 66.0135 97.1356C64.4275 97.9201 64.0694 94.5776 63.7966 92.6847C61.392 92.0537 59.4821 92.139 58.9875 91.167C58.493 90.1949 62.1765 88.7113 63.2338 88.2338C63.1144 86.5285 62.3811 84.2433 63.8477 84.3115C65.334 84.7606 66.6986 85.5421 67.8382 86.5967C69.3367 85.9691 70.9254 85.5835 72.5449 85.4541ZM50.819 133.101C50.6288 133.132 50.4342 133.121 50.2487 133.069C50.0632 133.017 49.8911 132.926 49.7444 132.801C49.5977 132.676 49.4799 132.521 49.3991 132.346C49.3183 132.171 49.2765 131.981 49.2765 131.788C49.2765 131.595 49.3183 131.405 49.3991 131.23C49.4799 131.055 49.5977 130.9 49.7444 130.775C49.8911 130.65 50.0632 130.559 50.2487 130.507C50.4342 130.455 50.6288 130.444 50.819 130.475C51.0091 130.444 51.2037 130.455 51.3892 130.507C51.5748 130.559 51.7468 130.65 51.8935 130.775C52.0402 130.9 52.158 131.055 52.2388 131.23C52.3196 131.405 52.3614 131.595 52.3614 131.788C52.3614 131.981 52.3196 132.171 52.2388 132.346C52.158 132.521 52.0402 132.676 51.8935 132.801C51.7468 132.926 51.5748 133.017 51.3892 133.069C51.2037 133.121 51.0091 133.132 50.819 133.101ZM41.2009 81.583C41.138 81.5674 41.0822 81.5312 41.0423 81.4802C41.0024 81.4292 40.9808 81.3664 40.9808 81.3016C40.9808 81.2369 41.0024 81.174 41.0423 81.123C41.0822 81.072 41.138 81.0358 41.2009 81.0202C44.9356 80.7644 49.1818 80.6451 52.9165 80.6451C49.804 78.462 46.4719 76.6102 42.9744 75.1198C42.9003 75.097 42.8376 75.047 42.7988 74.9799C42.7601 74.9128 42.7481 74.8335 42.7654 74.758C42.7827 74.6824 42.8279 74.6162 42.892 74.5726C42.956 74.529 43.0342 74.5112 43.1108 74.5229C46.9872 74.5643 50.8004 75.5103 54.2467 77.2856C51.9799 75.0267 49.5827 72.9028 47.0672 70.9247C47.0133 70.881 46.9769 70.8195 46.9645 70.7512C46.952 70.683 46.9645 70.6126 46.9996 70.5528C47.0347 70.4929 47.09 70.4476 47.1556 70.4251C47.2212 70.4026 47.2927 70.4044 47.3571 70.4301C51.6558 71.8162 55.691 73.9146 59.2945 76.6375C62.8516 79.2441 65.9371 82.4392 68.418 86.0851C68.418 86.2386 68.2645 86.3579 68.1622 86.2045C65.683 82.5822 62.6032 79.4102 59.0557 76.8251C55.8956 74.5074 52.4141 72.6633 48.7214 71.351C49.9663 72.3571 55.0141 76.467 55.6792 77.9847C55.8156 78.2576 55.4745 78.5134 55.1846 78.3429C53.3633 77.3285 51.4286 76.5328 49.4206 75.9725C47.8557 75.5043 46.242 75.2182 44.6115 75.1198C46.5727 76.0577 52.6607 79.042 53.9056 80.8156C53.9375 80.8631 53.9554 80.9185 53.9575 80.9756C53.9596 81.0327 53.9456 81.0893 53.9173 81.139C53.8889 81.1886 53.8472 81.2293 53.797 81.2565C53.7467 81.2838 53.6898 81.2964 53.6328 81.2931C53.4452 81.2931 48.7384 81.2931 43.7418 81.4636C49.6423 82.5891 57.3845 84.7549 62.3129 88.285C62.4493 88.3873 62.3129 88.5919 62.1424 88.4896C56.7876 84.7549 47.5277 82.4357 41.2009 81.583ZM137.757 116.798C143.572 112.415 155.1 111.256 160.148 116.798C161.635 118.248 162.803 119.991 163.578 121.917C164.353 123.843 164.718 125.91 164.65 127.985C164.253 131.746 162.636 135.274 160.046 138.03C159.739 138.337 159.739 138.03 159.841 137.876C160.134 137.455 160.329 136.972 160.41 136.465C160.491 135.958 160.456 135.439 160.308 134.948C160.161 134.456 159.904 134.004 159.558 133.625C159.211 133.246 158.783 132.95 158.306 132.76C155.083 131.293 154.111 136.699 151.758 137.364C149.711 137.961 150.479 133.186 150.632 129.997C150.847 128.595 150.524 127.164 149.728 125.99C148.312 124.47 146.56 123.302 144.612 122.579C141.197 121.204 137.489 120.717 133.835 121.164C134.832 119.457 136.167 117.972 137.757 116.798ZM133.715 142.225C130.901 135.574 132.129 126.74 132.129 126.74C132.267 124.947 132.784 123.203 133.647 121.624C137.332 121.25 141.052 121.837 144.442 123.33C146.286 124.02 147.948 125.123 149.302 126.553C151.007 128.804 149.302 133.101 149.848 136.461C150.052 137.774 150.666 138.609 151.945 138.166C154.589 137.416 155.475 132.402 158.016 133.562C160.557 134.721 160.097 138.047 157.095 139.309C155.936 139.803 156.038 140.912 156.925 141.014C157.385 141.014 158.289 140.758 159.67 139.65C161.693 137.673 163.284 135.298 164.343 132.675C166.714 133.175 169.008 133.99 171.164 135.096C174.2 136.478 177.781 138.405 180.612 140.059C176.298 141.088 172.365 143.322 169.273 146.502C166.181 149.681 164.057 153.675 163.149 158.016C162.501 158.016 162.552 157.095 162.109 156.754C161.666 156.413 161.393 156.754 160.864 156.925C160.875 156.505 160.781 156.089 160.591 155.714C160.591 154.725 158.971 155.305 158.033 155.612C158.044 155.189 157.981 154.767 157.846 154.367C158.238 153.105 155.953 153.736 154.674 154.094C154.77 153.61 154.77 153.111 154.674 152.627C154.793 151.638 152.627 152.269 151.724 152.627C151.801 152.058 151.766 151.478 151.621 150.922C151.144 150.257 148.62 151.655 148.518 151.024C148.526 150.557 148.619 150.095 148.79 149.66C149.08 148.62 147.665 149.268 147.256 149.199C147.24 149.208 147.222 149.213 147.204 149.213C147.186 149.213 147.169 149.208 147.153 149.199V148.995C148.58 148.604 149.949 148.031 151.229 147.29C151.879 148.248 152.855 148.939 153.975 149.234C154.992 149.537 156.075 149.539 157.094 149.241C158.113 148.944 159.024 148.358 159.717 147.554C160.411 146.751 160.857 145.764 161.003 144.712C161.149 143.661 160.989 142.59 160.54 141.628C160.54 141.44 160.165 141.628 160.25 141.747C160.471 142.401 160.558 143.092 160.504 143.779C160.451 144.467 160.26 145.137 159.941 145.749C159.622 146.36 159.184 146.901 158.651 147.339C158.118 147.777 157.502 148.102 156.84 148.296L152.713 145.755C152.559 145.652 152.576 145.755 151.672 146.335C151.105 145.215 150.953 143.931 151.244 142.71C151.534 141.489 152.248 140.411 153.258 139.667C154.45 138.868 155.867 138.473 157.3 138.541C157.334 138.53 157.364 138.508 157.385 138.479C157.406 138.45 157.417 138.415 157.417 138.379C157.417 138.343 157.406 138.308 157.385 138.279C157.364 138.25 157.334 138.228 157.3 138.217C155.764 138.031 154.211 138.361 152.883 139.155C151.678 139.956 150.813 141.176 150.457 142.578C150.101 143.98 150.279 145.465 150.956 146.744C147.933 148.464 144.465 149.242 140.997 148.978C139.334 148.511 137.807 147.655 136.541 146.481C135.274 145.306 134.306 143.847 133.715 142.225ZM160.267 157.368C160.715 157.272 161.15 157.123 161.563 156.925C162.314 156.652 162.109 158.152 163.064 158.17C162.894 158.971 162.791 159.602 162.74 159.994C161.939 159.704 161.188 159.38 160.438 159.073C160.471 158.5 160.413 157.924 160.267 157.368ZM160.267 156.993C160.267 156.993 160.267 156.908 160.438 156.328C160.48 156.543 160.567 156.746 160.694 156.925L160.267 156.976V156.993ZM160.097 157.317C160.01 157.882 160.01 158.457 160.097 159.022C158.903 158.528 157.795 158.016 156.686 157.504C156.685 157.183 156.622 156.864 156.499 156.567C157.283 156.567 159.909 155.305 160.029 155.68C160.148 156.055 159.534 156.976 160.097 157.317ZM156.328 156.447C156.325 156.713 156.365 156.978 156.447 157.232C156.004 157.027 154.179 156.106 153.719 155.867C153.711 155.503 153.653 155.142 153.548 154.793C154.571 154.652 155.58 154.43 156.567 154.128C156.686 154.128 157.454 154.026 157.385 154.128C157.317 154.622 155.578 156.055 156.328 156.447ZM153.344 155.663C152.474 155.202 151.638 154.759 150.99 154.35C151.002 153.988 150.938 153.628 150.803 153.292C151.078 153.339 151.36 153.291 151.604 153.156C152.388 152.799 153.233 152.597 154.094 152.559C153.733 152.975 153.424 153.433 153.173 153.923C153.106 154.509 153.164 155.102 153.344 155.663ZM150.598 154.128L148.705 152.985C148.744 152.48 148.692 151.972 148.552 151.485C149.097 151.604 150.513 151.041 151.161 151.092C150.852 151.51 150.573 151.949 150.325 152.406C150.325 152.99 150.417 153.572 150.598 154.128ZM151.331 151.655C151.289 151.995 151.289 152.339 151.331 152.678C151.212 152.678 150.82 152.866 150.786 152.678C150.752 152.491 151.127 151.86 151.331 151.655ZM154.333 153.122C154.322 153.456 154.363 153.789 154.452 154.111C154.19 154.208 153.913 154.26 153.634 154.264C153.634 154.264 153.565 154.026 154.333 153.122ZM157.607 154.827C157.629 155.108 157.692 155.383 157.795 155.646C157.455 155.775 157.107 155.883 156.754 155.97C156.959 155.663 157.232 155.27 157.607 154.81V154.827ZM148.211 151.28C148.202 151.792 148.265 152.303 148.398 152.798C148.108 152.62 147.823 152.432 147.546 152.235L147.153 149.37C147.58 149.37 148.466 149.114 148.466 149.37C148.466 149.626 147.75 150.751 148.211 151.263V151.28ZM151.86 146.676C152.099 146.522 152.355 146.335 152.593 146.147L156.345 148.449C155.513 148.617 154.65 148.546 153.856 148.244C153.063 147.942 152.371 147.422 151.86 146.744V146.676ZM133.596 161.819C133.187 161.7 135.54 158.05 135.813 157.624C136.648 156.277 140.69 150.035 141.031 149.523C142.44 149.606 143.854 149.52 145.243 149.268C145.516 159.363 147.341 163.558 149.558 167.498C148.415 167.14 147.256 167.668 146.249 167.31C144.834 166.833 144.885 164.786 142.839 164.667C141.502 164.824 140.215 165.273 139.07 165.98C138.61 166.168 138.507 165.98 138.388 165.775C138.219 164.622 137.968 163.482 137.638 162.365C136.853 161.017 134.397 162.092 133.596 161.819ZM91.0819 210.796L99.1311 215.656C98.6621 216.099 98.1542 216.499 97.6133 216.85C96.3002 217.549 94.936 217.021 94.9189 218.061C87.5689 220.875 76.5013 233.852 90.2975 245.704C107.931 260.831 128.002 266.868 109.329 281.295C104.213 285.302 98.9435 284.705 92.8555 280.766C86.1705 276.383 86.2388 257.079 79.8267 245.159C69.1684 225.326 64.7686 232.011 44.1682 217.106L91.0819 210.796ZM114.769 282.42C114.747 282.42 114.724 282.416 114.704 282.407C114.683 282.399 114.664 282.386 114.648 282.37C114.633 282.354 114.62 282.336 114.611 282.315C114.603 282.294 114.598 282.272 114.598 282.25C114.598 282.227 114.603 282.205 114.611 282.184C114.62 282.164 114.633 282.145 114.648 282.129C114.664 282.113 114.683 282.101 114.704 282.092C114.724 282.084 114.747 282.079 114.769 282.079C114.803 282.09 114.833 282.112 114.854 282.141C114.875 282.17 114.886 282.205 114.886 282.241C114.886 282.277 114.875 282.312 114.854 282.341C114.833 282.37 114.803 282.392 114.769 282.403V282.42ZM106.038 287.536C105.966 287.55 105.893 287.547 105.822 287.529C105.752 287.511 105.686 287.477 105.631 287.431C105.575 287.384 105.53 287.326 105.499 287.26C105.468 287.195 105.452 287.123 105.452 287.05C105.452 286.977 105.468 286.906 105.499 286.84C105.53 286.774 105.575 286.716 105.631 286.67C105.686 286.623 105.752 286.59 105.822 286.571C105.893 286.553 105.966 286.551 106.038 286.564C106.176 286.564 106.308 286.619 106.405 286.717C106.503 286.814 106.558 286.946 106.558 287.084C106.558 287.222 106.503 287.355 106.405 287.452C106.308 287.55 106.176 287.604 106.038 287.604V287.536ZM84.073 286.342C84.2477 285.836 84.5072 285.363 84.8404 284.944C84.073 283.887 83.6125 283.358 84.9427 283.426C85.3324 283.455 85.7167 283.535 86.0853 283.665C87.4495 282.164 87.6883 282.267 87.6371 284.313C87.9782 284.484 88.7797 284.893 88.9332 285.234C89.0867 285.575 88.2169 285.78 87.603 285.967C87.603 286.377 87.4495 287.673 87.0573 287.673C86.6651 287.673 86.4434 287.042 85.9318 286.394C85.2326 286.581 83.9877 287.025 84.073 286.411V286.342ZM83.8513 264.617C83.7799 264.63 83.7063 264.628 83.6359 264.609C83.5656 264.591 83.5001 264.558 83.4441 264.511C83.3882 264.465 83.3431 264.407 83.3122 264.341C83.2813 264.275 83.2653 264.203 83.2653 264.131C83.2653 264.058 83.2813 263.986 83.3122 263.92C83.3431 263.854 83.3882 263.796 83.4441 263.75C83.5001 263.703 83.5656 263.67 83.6359 263.652C83.7063 263.634 83.7799 263.631 83.8513 263.645C83.9892 263.645 84.1215 263.699 84.2191 263.797C84.3166 263.894 84.3714 264.027 84.3714 264.165C84.3714 264.303 84.3166 264.435 84.2191 264.532C84.1215 264.63 83.9892 264.685 83.8513 264.685V264.617ZM63.2509 239.889C63.1794 239.903 63.1059 239.9 63.0355 239.882C62.9651 239.864 62.8996 239.83 62.8437 239.784C62.7877 239.737 62.7427 239.679 62.7118 239.613C62.6809 239.548 62.6649 239.476 62.6649 239.403C62.6649 239.33 62.6809 239.259 62.7118 239.193C62.7427 239.127 62.7877 239.069 62.8437 239.022C62.8996 238.976 62.9651 238.943 63.0355 238.924C63.1059 238.906 63.1794 238.904 63.2509 238.917C63.3223 238.904 63.3958 238.906 63.4662 238.924C63.5366 238.943 63.6021 238.976 63.658 239.022C63.714 239.069 63.759 239.127 63.7899 239.193C63.8208 239.259 63.8368 239.33 63.8368 239.403C63.8368 239.476 63.8208 239.548 63.7899 239.613C63.759 239.679 63.714 239.737 63.658 239.784C63.6021 239.83 63.5366 239.864 63.4662 239.882C63.3958 239.9 63.3223 239.903 63.2509 239.889ZM56.4295 229.248C56.3581 229.261 56.2845 229.259 56.2142 229.241C56.1438 229.222 56.0783 229.189 56.0224 229.143C55.9664 229.096 55.9214 229.038 55.8905 228.972C55.8596 228.906 55.8435 228.835 55.8435 228.762C55.8435 228.689 55.8596 228.617 55.8905 228.552C55.9214 228.486 55.9664 228.428 56.0224 228.381C56.0783 228.335 56.1438 228.301 56.2142 228.283C56.2845 228.265 56.3581 228.262 56.4295 228.276C56.5 228.259 56.5732 228.258 56.644 228.273C56.7149 228.288 56.7816 228.318 56.8395 228.362C56.8974 228.405 56.9451 228.461 56.9791 228.525C57.0132 228.588 57.0328 228.659 57.0366 228.731C57.0404 228.804 57.0283 228.876 57.0012 228.943C56.974 229.01 56.9324 229.07 56.8794 229.12C56.8264 229.169 56.7632 229.206 56.6943 229.228C56.6254 229.25 56.5525 229.257 56.4807 229.248H56.4295ZM36.4259 225.837C36.4974 225.824 36.5709 225.826 36.6413 225.844C36.7117 225.863 36.7771 225.896 36.8331 225.943C36.889 225.989 36.9341 226.047 36.965 226.113C36.9959 226.179 37.0119 226.251 37.0119 226.323C37.0119 226.396 36.9959 226.468 36.965 226.534C36.9341 226.599 36.889 226.657 36.8331 226.704C36.7771 226.75 36.7117 226.784 36.6413 226.802C36.5709 226.82 36.4974 226.823 36.4259 226.809C36.3541 226.818 36.2812 226.812 36.2123 226.789C36.1434 226.767 36.0802 226.73 36.0272 226.681C35.9742 226.632 35.9326 226.571 35.9055 226.504C35.8783 226.437 35.8662 226.365 35.87 226.293C35.8738 226.22 35.8934 226.15 35.9275 226.086C35.9615 226.022 36.0092 225.966 36.0671 225.923C36.125 225.88 36.1917 225.849 36.2626 225.835C36.3334 225.82 36.4066 225.821 36.4771 225.837H36.4259ZM25.1878 191.731C25.893 191.163 26.6965 190.729 27.5582 190.452C27.5582 188.235 27.3877 187.041 29.1442 188.354C29.6572 188.772 30.1155 189.254 30.5084 189.786C31.3001 189.547 32.1203 189.415 32.9471 189.394C33.1858 189.394 33.3393 189.531 33.3222 189.769C33.0308 190.65 32.5926 191.474 32.0262 192.208C32.5181 192.973 32.822 193.844 32.913 194.749C32.7595 195.585 31.4464 194.851 30.3891 194.544C29.9286 195.09 28.5132 196.898 27.9845 196.488C27.4559 196.079 27.7458 195.022 27.6776 193.589C26.6373 193.214 24.5227 192.532 25.2389 191.731H25.1878ZM18.9122 206.772C18.9836 206.758 19.0571 206.761 19.1275 206.779C19.1979 206.797 19.2634 206.831 19.3193 206.877C19.3753 206.923 19.4203 206.982 19.4512 207.047C19.4821 207.113 19.4981 207.185 19.4981 207.258C19.4981 207.33 19.4821 207.402 19.4512 207.468C19.4203 207.534 19.3753 207.592 19.3193 207.638C19.2634 207.685 19.1979 207.718 19.1275 207.736C19.0571 207.755 18.9836 207.757 18.9122 207.744C18.8404 207.753 18.7674 207.746 18.6985 207.724C18.6296 207.702 18.5664 207.665 18.5134 207.615C18.4604 207.566 18.4188 207.506 18.3917 207.439C18.3645 207.372 18.3524 207.299 18.3562 207.227C18.36 207.155 18.3796 207.084 18.4137 207.02C18.4478 206.956 18.4954 206.901 18.5533 206.857C18.6112 206.814 18.6779 206.784 18.7488 206.769C18.8196 206.754 18.8929 206.755 18.9633 206.772H18.9122ZM183.392 263.406C177.15 271.54 83.9536 316.766 74.8812 321.148C53.5816 295.858 20.4299 249.746 0.989094 222.836L18.554 220.534C29.5023 237.809 46.2828 233.801 55.2869 239.292C65.4166 245.483 70.6349 250.155 73.7046 262.161C77.8826 278.481 72.6131 285.524 84.8233 290.725C96.5219 295.688 119.749 293.692 129.162 277.543C138.575 261.393 120.141 254.333 103.582 246.847C87.0232 239.361 89.9393 228.992 92.1904 226.059C93.9092 223.827 95.9031 221.822 98.1249 220.09C98.9651 220.093 99.7914 219.876 100.521 219.46C101.252 219.044 101.86 218.444 102.286 217.72C104.281 218.794 179.964 261.445 183.443 263.406H183.392ZM120.294 283.512C120.317 283.512 120.339 283.516 120.36 283.525C120.38 283.533 120.399 283.546 120.415 283.562C120.431 283.577 120.443 283.596 120.452 283.617C120.46 283.638 120.465 283.66 120.465 283.682C120.465 283.705 120.46 283.727 120.452 283.747C120.443 283.768 120.431 283.787 120.415 283.803C120.399 283.819 120.38 283.831 120.36 283.84C120.339 283.848 120.317 283.853 120.294 283.853C120.272 283.852 120.25 283.846 120.23 283.836C120.209 283.827 120.191 283.813 120.176 283.797C120.161 283.78 120.15 283.761 120.142 283.74C120.134 283.718 120.131 283.696 120.132 283.674C120.133 283.651 120.139 283.629 120.149 283.609C120.158 283.589 120.172 283.571 120.188 283.556C120.205 283.54 120.224 283.529 120.245 283.521C120.267 283.514 120.289 283.51 120.311 283.512H120.294ZM124.66 266.237C124.455 266.373 124.148 266.237 123.671 265.998C122.921 266.833 122.562 267.072 122.648 265.657C121.914 265.418 121.505 265.299 122.187 264.906C122.392 264.795 122.61 264.709 122.835 264.651C123.023 263.474 123.176 263.457 123.824 264.446C124.138 264.369 124.466 264.369 124.779 264.446C125.018 264.582 124.626 264.906 124.353 265.23C124.455 265.469 124.865 266.117 124.677 266.237H124.66ZM99.4892 219.067C98.8313 219.284 98.1254 219.311 97.4528 219.145C96.7801 218.98 96.1678 218.627 95.6863 218.129H95.8398C99.0629 217.635 98.5854 216.304 100.257 215.486C100.41 215.656 100.257 215.605 102.968 215.81C102.283 217.312 101.033 218.483 99.4892 219.067ZM103.429 212.246C103.182 212.705 103.086 213.23 103.156 213.746C103.156 213.866 103.036 214.411 102.968 214.923L101.126 214.77C101.126 214.684 102.337 211.802 102.422 211.529H103.582L103.429 212.246ZM103.087 207.454C101.911 209.654 101.382 213.746 100.342 213.03C99.9784 212.654 99.7712 212.155 99.762 211.632C99.7072 210.648 99.8463 209.663 100.171 208.733C100.449 207.756 100.939 206.853 101.605 206.087C102.271 205.321 103.097 204.71 104.025 204.299C103.122 207.778 103.377 206.993 103.087 207.522V207.454ZM104.315 210.029C104.588 209.227 104.963 208.051 105.492 206.516C105.714 206.396 105.765 206.516 106.055 207.232C106.515 208.426 103.821 211.461 103.821 211.461C103.991 210.967 104.179 210.489 104.315 210.097V210.029ZM152.474 180.475C146.454 189.531 141.986 193.589 134.96 197.529C128.111 201.172 120.828 203.934 113.285 205.748C110.25 206.686 107.709 213.422 104.384 213.729C104.008 213.729 103.753 213.729 104.06 212.877C104.827 210.745 107.607 208.971 106.805 206.942C106.703 206.637 106.566 206.345 106.396 206.072C106.258 205.849 106.047 205.681 105.799 205.595C105.901 205.254 106.242 204.265 106.703 202.866C107.095 202.594 107.368 202.508 109.158 201.451C115.161 197.904 117.515 191.543 122.562 185.591C125.228 182.33 128.34 179.46 131.805 177.065C132.061 176.911 131.635 177.167 133.613 170.925C134.756 167.327 136.086 163.524 136.478 162.399C136.552 162.409 136.622 162.436 136.684 162.477C136.746 162.519 136.798 162.573 136.836 162.638C137.279 163.473 137.194 165.076 137.569 166.048C138.456 168.197 140.656 165.315 142.685 165.366C144.391 165.366 144.391 167.327 146.096 167.822C147.375 168.197 148.654 167.412 149.848 167.975C151.411 170.635 153.252 173.121 155.339 175.393C154.564 177.204 153.604 178.93 152.474 180.544V180.475ZM162.945 181.021C157.783 177.331 153.468 172.581 150.291 167.088C148.194 163.439 146.249 159.363 145.584 149.131C145.987 149.061 146.385 148.97 146.778 148.858L147.136 152.269C149.015 153.691 150.999 154.968 153.071 156.089C153.071 156.089 151.621 164.292 158.187 174.848C161.342 180.032 162.945 181.089 162.945 181.089V181.021ZM194.647 203.02C194.954 206.737 191.577 227.031 191.117 229.794C191.09 229.804 191.065 229.82 191.044 229.84C191.024 229.861 191.008 229.886 190.997 229.913C191.219 229.077 187.382 241.987 187.092 246.028C187.092 246.352 187.092 246.199 190.008 248.723C190.997 249.593 194.391 252.475 194.562 253.481C194.64 253.742 194.64 254.021 194.562 254.282C193.038 252.668 191.221 251.36 189.207 250.428C189.171 250.406 189.127 250.398 189.085 250.408C189.044 250.417 189.008 250.443 188.985 250.479C188.963 250.515 188.955 250.559 188.965 250.601C188.974 250.642 189 250.678 189.036 250.701L190.418 251.827C191.799 252.765 193.069 253.858 194.203 255.084C194.033 255.51 193.658 255.544 193.214 255.425C193.214 254.538 189.326 252.389 188.098 251.656C187.911 251.554 187.74 251.827 187.928 251.929C189.64 252.918 191.236 254.096 192.686 255.442C192.14 256.67 190.486 254.913 184.466 252.44C183.381 251.953 182.233 251.62 181.055 251.451C180.976 251.446 180.896 251.466 180.829 251.509C180.761 251.552 180.709 251.615 180.68 251.69C180.527 252.133 181.004 252.116 182.539 253.668C182.865 253.954 183.147 254.288 183.375 254.657C182.353 254.778 181.321 254.537 180.458 253.975C179.775 253.518 179.236 252.877 178.904 252.125C178.571 251.373 178.46 250.542 178.583 249.729C178.873 248.024 180.561 247.154 179.862 245.636C179.162 244.118 177.73 234.262 177.525 232.846C175.632 220.039 176.349 219.766 175.99 219.664C175.99 201.894 176.553 201.826 176.417 200.905C176.417 200.718 172.597 174.49 172.563 174.285C173.688 174.285 174.49 175.53 175.121 176.553C176.042 178.02 176.826 178.975 178.668 178.412C180.51 177.849 182.079 176.297 183.784 175.683C185.489 175.069 186.393 175.683 188.252 176.28C188.968 176.622 189.777 176.719 190.554 176.556C191.33 176.392 192.031 175.978 192.549 175.376C195.517 172.904 194.118 172.29 200.189 174.677C199.013 179.265 196.369 192.225 196.318 192.43C195.241 195.858 194.678 199.427 194.647 203.02ZM172.358 173.449C171.021 173.932 169.716 174.502 168.453 175.155C168.163 175.155 168.044 175.155 167.958 174.814C167.43 172.375 173.637 143.504 189.105 142.412C196.165 141.935 201.042 154.605 203.174 161.359C204.576 165.651 205.664 170.039 206.431 174.49C206.738 177.576 197.734 171.795 195.141 172.392C194.118 172.631 193.658 173.501 192.191 174.728C190.725 175.956 189.974 175.956 188.678 175.496C187.147 174.657 185.353 174.437 183.665 174.882C181.857 175.53 180.356 177.048 178.548 177.61C177.014 178.105 176.536 177.048 175.666 175.683C174.797 174.319 173.91 173.159 172.358 173.381V173.449ZM197.768 189.548C198.484 186.717 199.746 180.851 200.684 174.711C202.253 175.325 205.68 176.826 206.823 175.734C206.993 175.552 207.116 175.331 207.181 175.09C207.247 174.85 207.253 174.597 207.198 174.353C206.58 170.754 205.726 167.199 204.64 163.712C202.355 156.123 197.017 141.543 189.07 142.037C172.938 143.163 166.645 172.273 167.191 174.899C167.207 175.068 167.261 175.231 167.35 175.375C167.438 175.52 167.559 175.642 167.702 175.732C167.846 175.823 168.008 175.88 168.176 175.898C168.345 175.916 168.515 175.895 168.675 175.837C169.647 175.598 171.028 174.541 172.29 174.251C172.478 177.355 172.836 181.481 173.586 186.819C170.709 185.687 167.931 184.318 165.281 182.726C159.931 177.53 156.159 170.926 154.401 163.678C153.802 161.305 153.459 158.876 153.378 156.43C156.474 158.159 159.688 159.669 162.996 160.949C163.051 160.971 163.11 160.979 163.169 160.974C163.227 160.968 163.284 160.949 163.334 160.917C163.384 160.885 163.425 160.843 163.456 160.792C163.486 160.741 163.504 160.684 163.507 160.625C164.131 155.808 166.173 151.284 169.374 147.631C172.635 144.017 176.968 141.543 181.737 140.57C181.814 140.558 181.886 140.521 181.941 140.466C181.996 140.411 182.033 140.34 182.046 140.263C182.059 140.187 182.048 140.107 182.014 140.037C181.98 139.967 181.925 139.909 181.857 139.871C178.479 137.922 174.994 136.163 171.42 134.602C169.206 133.573 166.884 132.795 164.497 132.283C164.959 131.011 165.268 129.688 165.417 128.343C168.828 126.894 186.035 129.025 197.631 127.815C199.388 127.706 201.13 127.426 202.832 126.979C213.286 126.689 229.026 139.547 231.925 145.345C234.825 151.144 234.364 158.391 227.935 167.412C221.881 175.854 200.121 188.166 197.785 189.479L197.768 189.548ZM244.17 223.978C246.54 216.509 242.788 209.517 241.441 207.351L252.731 207.044C254.184 207.904 255.293 209.243 255.868 210.83C256.794 213.208 257.285 215.732 257.318 218.283C253.941 219.8 247.683 222.665 244.17 223.91V223.978ZM258.051 217.822C257.958 215.324 257.378 212.868 256.346 210.592C255.662 208.985 254.462 207.653 252.935 206.806C253.615 206.076 254.44 205.495 255.357 205.1C255.357 205.646 254.692 206.806 255.493 206.925C256.295 207.044 256.38 206.26 256.874 206.004C257.079 205.902 257.488 205.885 257.318 206.328C257.147 206.772 256.772 207.437 257.164 208.034C257.453 208.373 257.851 208.602 258.29 208.682C258.392 208.682 257.71 209.159 257.523 209.705C257.478 209.834 257.485 209.975 257.542 210.099C257.599 210.223 257.702 210.32 257.829 210.37C258.409 210.592 259.415 210.012 260.046 210.643C260.302 210.916 260.166 211.171 259.842 211.359C259.057 211.853 258.955 212.433 259.688 213.064C260.057 213.321 260.384 213.631 260.66 213.985C260.125 213.981 259.603 214.155 259.177 214.48C259.095 214.542 259.03 214.622 258.984 214.713C258.939 214.805 258.915 214.906 258.915 215.008C258.915 215.111 258.939 215.212 258.984 215.303C259.03 215.395 259.095 215.475 259.177 215.537C259.552 215.861 260.473 216.202 260.677 216.492C259.865 217.033 258.981 217.458 258.051 217.754V217.822ZM278.737 206.021C278.038 208.869 262.69 215.742 261.598 216.253C261.411 215.588 260.336 215.264 259.893 214.94C260.37 214.684 261.325 214.787 261.513 214.19C261.701 213.593 260.37 212.604 260.063 212.212C260.353 211.939 261.394 211.444 260.933 210.506C260.724 210.154 260.408 209.876 260.031 209.714C259.654 209.551 259.236 209.512 258.836 209.602H258.58C258.955 209.125 259.569 208.511 259.006 208.102C258.443 207.692 258.068 208.102 257.778 207.539C259.398 207.744 260.729 207.965 261.752 208.187C261.786 208.192 261.821 208.189 261.854 208.18C261.887 208.17 261.917 208.153 261.943 208.13C261.969 208.108 261.99 208.08 262.004 208.048C262.018 208.017 262.025 207.983 262.025 207.948C262.025 208.63 261.547 204.009 263.969 203.463C265.05 203.349 266.143 203.502 267.151 203.91C268.159 204.317 269.051 204.966 269.75 205.8C269.79 205.849 269.843 205.887 269.903 205.908C269.964 205.929 270.029 205.933 270.091 205.919C270.722 205.8 275.957 204.725 278.055 205.493C278.294 205.476 278.788 205.714 278.737 205.953V206.021Z" fill="#1F1F1F"/>
</svg>
