<svg width="201" height="198" viewBox="0 0 201 198" fill="none" xmlns="http://www.w3.org/2000/svg">
<path d="M18.5 75L37 74V67L36 66.5H35.5H34.5H32L31 67L26 70L18 73L18.5 75Z" fill="#FFD600"/>
<path d="M17 51L37 50V61L35.5 61.5V59.5L34.5 59L33 62L31.5 61.5L24.5 59.5L17.5 59L17 51Z" fill="#FFD600"/>
<path d="M45.5741 24.7146C45.5439 25.2191 45.3865 25.7077 45.1165 26.1349C44.8465 26.5621 44.4727 26.914 44.03 27.1578C44.4059 27.7948 44.5835 28.5294 44.5402 29.2678C44.4968 30.0062 44.2345 30.715 43.7867 31.3037C43.3484 31.8779 42.7635 32.3233 42.0935 32.5932C41.4235 32.8631 40.6931 32.9474 39.9792 32.8373C39.7888 33.3555 39.3341 34.2545 38.8158 34.4237C38.7358 34.4654 38.6469 34.4872 38.5567 34.4872C38.4665 34.4872 38.3776 34.4654 38.2976 34.4237C38.4231 35.1661 38.7734 35.8521 39.301 36.3892C39.8287 36.9263 40.5083 37.2887 41.2484 37.4274C43.6704 37.861 45.9337 37.0678 45.9337 34.6035C46.5133 34.7205 47.1114 34.7101 47.6867 34.5731C48.2619 34.4362 48.8005 34.1759 49.2653 33.8103C49.5962 33.5391 49.8704 33.2051 50.0718 32.8275C50.2733 32.45 50.3982 32.0364 50.4392 31.6104C50.545 28.8817 48.6518 27.0732 47.4778 27.0732C48.3345 25.5607 47.7846 24.2493 46.4202 23.2551C46.0725 23.0393 45.6833 22.8988 45.278 22.8426C45.4966 23.4417 45.5972 24.0774 45.5741 24.7146ZM24.432 25.4973C24.4797 25.4973 24.5254 25.4783 24.5591 25.4446C24.5928 25.4109 24.6118 25.3652 24.6118 25.3175C24.6118 25.2698 24.5928 25.2241 24.5591 25.1903C24.5254 25.1566 24.4797 25.1377 24.432 25.1377L23.7868 25.0636C23.5859 25.0636 23.258 25.0636 23.0676 25.0002C22.9445 23.4479 22.9445 21.8883 23.0676 20.336C23.0655 20.2918 23.0481 20.2497 23.0183 20.217C22.9885 20.1842 22.9482 20.1629 22.9044 20.1566C22.8606 20.1504 22.8159 20.1596 22.7782 20.1827C22.7404 20.2057 22.7119 20.2413 22.6975 20.2831C22.2376 21.4607 22.0321 22.7222 22.0946 23.9849C22.078 24.4217 22.1171 24.8588 22.2109 25.2858C22.4648 25.9521 23.7445 25.6559 24.432 25.4973ZM19.5245 19.3313C19.0169 19.4688 18.3294 19.9658 18.5833 20.1562C18.9562 20.3274 19.3811 20.3464 19.7678 20.2091C20.138 20.1139 20.7514 19.7437 20.7408 19.5534C20.7303 19.363 20.0216 19.1938 19.5245 19.3313ZM26.378 20.0716C30.1009 20.8437 28.377 19.4265 26.5472 19.1938C26.0713 19.1303 24.9608 19.1938 24.9819 19.4582C25.0031 19.7226 26.0925 20.0082 26.378 20.0716ZM27.2136 21.8484C27.1839 21.7961 27.1442 21.7502 27.0967 21.7133C27.0492 21.6765 26.9949 21.6494 26.9369 21.6336C26.8788 21.6179 26.8183 21.6138 26.7586 21.6216C26.699 21.6295 26.6416 21.649 26.5896 21.6792C26.3251 21.8273 26.3357 21.9859 26.3992 22.8426C26.4076 22.9632 26.4636 23.0756 26.5548 23.1549C26.6461 23.2342 26.7651 23.2741 26.8857 23.2657C27.0063 23.2573 27.1186 23.2013 27.198 23.11C27.2773 23.0188 27.3172 22.8998 27.3087 22.7792C27.3246 22.4659 27.2925 22.152 27.2136 21.8484ZM19.7255 22.4301C19.7353 22.3095 19.6968 22.1899 19.6185 22.0977C19.5401 22.0055 19.4283 21.9482 19.3077 21.9383C19.1871 21.9285 19.0675 21.967 18.9753 22.0454C18.8831 22.1237 18.8258 22.2355 18.8159 22.3561C18.7959 22.6131 18.7959 22.8712 18.8159 23.1282C18.8244 23.2488 18.8803 23.3611 18.9716 23.4405C19.0628 23.5198 19.1818 23.5596 19.3024 23.5512C19.4231 23.5428 19.5354 23.4868 19.6147 23.3956C19.6941 23.3044 19.7339 23.1853 19.7255 23.0647C19.7467 22.8426 19.7149 22.5571 19.7255 22.4301ZM23.3955 29.3153C23.3955 29.6538 24.7387 29.7384 25.4367 29.0404C25.955 28.5221 25.9232 27.7289 25.7117 27.676C25.5002 27.6231 25.6377 27.676 24.8762 28.3317C24.4002 28.7336 23.3743 29.0509 23.3955 29.3153Z" fill="#1F1F1F"/>
<path d="M200.507 20.5264C200.231 20.4371 199.938 20.4088 199.649 20.4435C199.361 20.4782 199.083 20.575 198.836 20.7273C199.038 20.2431 199.108 19.7137 199.037 19.1938C198.847 18.3371 197.599 17.9458 196.573 19.1938C196.509 18.5169 196.202 18.0515 195.663 17.9563C194.32 17.7025 193.738 20.262 193.442 21.6052C192.744 21.0869 191.602 20.2091 191.031 20.8966C190.869 21.0691 190.76 21.2843 190.717 21.5167C190.674 21.7491 190.698 21.989 190.787 22.208C191.199 22.9268 191.784 23.5305 192.49 23.9637C192.289 24.4291 191.433 25.6559 190.988 26.3751C190.629 26.2694 189.867 26.0684 189.709 26.3751C185.996 31.4306 175.959 43.1492 169.709 42.906C160.053 42.5358 147.9 37.861 146.684 38.0303L144.981 34.2968C146.854 33.0142 148.261 31.1586 148.99 29.0086C150.176 25.7271 150.714 22.2467 150.576 18.7601C150.584 17.63 150.531 16.5002 150.417 15.3757C154.881 15.0796 157.821 9.82312 154.341 5.47624C154.006 4.95505 153.569 4.50669 153.056 4.15784C152.544 3.80898 151.967 3.56676 151.359 3.44558C150.642 3.40825 149.925 3.5051 149.243 3.73114C145.013 4.78878 144.949 2.11296 142.052 1.39377C140.727 1.17184 139.367 1.31442 138.117 1.80624C133.887 3.28693 134.712 5.64546 132.755 7.61266C131.697 8.6703 127.181 7.17903 125.352 10.1827C123.405 13.472 123.585 20.4312 126.409 23.1599C127.036 23.7234 127.729 24.2098 128.472 24.6089C129.157 25.3094 129.958 25.8855 130.841 26.3117C131.666 27.9933 132.607 32.8267 132.956 34.6564L132.628 37.4062C130.373 37.7608 128.148 38.2912 125.976 38.9927C122.416 40.145 118.962 41.6029 115.653 43.3502C109.624 46.5231 110.365 46.4596 110.153 46.1212C109.422 45.3255 108.645 44.5733 107.827 43.8684C102.052 39.0033 95.7906 34.8573 88.3978 33.6411L87.5305 28.7231C89.8573 26.8193 91.1264 22.9801 91.1688 20.262C92.036 20.6216 92.7235 19.987 93.1783 19.2043C93.3052 18.9717 94.0984 19.2043 94.7118 17.8294C94.8179 17.5428 94.8179 17.2276 94.7118 16.941C94.924 16.8143 95.1058 16.6427 95.2445 16.4382C95.3832 16.2337 95.4755 16.0014 95.5148 15.7574C95.5541 15.5135 95.5395 15.2639 95.4721 15.0262C95.4046 14.7885 95.2859 14.5685 95.1243 14.3815C95.4501 14.1963 95.7291 13.9388 95.9399 13.629C96.1508 13.3192 96.2878 12.9652 96.3406 12.5941C96.5733 11.2086 96.256 9.96061 94.9234 9.52698C94.9234 9.22027 95.1455 8.7126 95.1455 8.60684C95.1571 8.11434 95.0694 7.62455 94.8877 7.16665C94.706 6.70875 94.434 6.29213 94.0878 5.9416C92.6177 4.68301 92.1524 4.78878 91.2322 4.88396C91.2322 4.24938 91.6341 3.82633 90.9678 2.95907C90.4568 2.36945 89.7765 1.95159 89.0195 1.76235C88.2625 1.57311 87.4657 1.62167 86.7373 1.90143L86.4729 1.98604C86.3076 1.57041 86.0563 1.19442 85.7355 0.882735C85.4147 0.571048 85.0316 0.33071 84.6114 0.177486C83.2894 -0.319603 82.3798 0.325555 81.2693 0.907254C79.6088 -0.573435 76.4359 0.219791 74.7331 1.2457C73.961 1.71106 73.887 2.53601 73.5803 2.91676C72.9231 2.86886 72.2685 3.03993 71.7188 3.40327C71.2323 3.70999 70.7776 4.15419 70.3862 4.46091C70.1284 4.66097 69.9157 4.91327 69.7622 5.20125C69.4348 5.73896 69.2459 6.34945 69.2123 6.97808C68.9523 7.04034 68.7053 7.14773 68.4825 7.29537C67.6376 8.05185 67.0436 9.04805 66.7797 10.151C66.6643 10.7612 66.723 11.3916 66.9489 11.9701C66.9489 12.0336 67.0547 12.1605 67.0864 12.224C66.8749 12.5307 66.3249 12.7739 66.2191 13.5989C66.1134 14.4238 66.1451 16.042 66.9489 16.5285C67.2874 16.7295 68.0065 16.941 68.2604 17.0997C68.2204 17.5324 68.2204 17.9678 68.2604 18.4005C68.5354 20.1879 70.3016 20.8331 72.1208 20.5687L72.6178 20.8225C72.8111 22.7067 73.3112 24.5466 74.0985 26.2694C74.6856 27.4073 75.5702 28.3649 76.658 29.0404L76.1503 33.5459C73.626 33.9147 71.1455 34.5384 68.7469 35.4073C61.4809 38.062 57.2398 41.5099 53.4852 47.4961C48.3134 43.2127 39.5562 36.7928 32.7873 36.9092C32.8308 36.4519 32.8308 35.9915 32.7873 35.5342C32.7873 35.2275 32.6181 34.2862 32.3325 34.1487C32.3325 33.6305 32.2479 33.0911 32.2056 32.594C34.5958 36.1265 39.4715 34.2545 38.9322 31.8431C39.5354 31.883 40.1393 31.7759 40.692 31.5309C41.2447 31.2859 41.7296 30.9103 42.1051 30.4364C42.4696 29.9156 42.6651 29.2953 42.6651 28.6596C42.6651 28.0239 42.4696 27.4036 42.1051 26.8828C42.0175 26.7417 41.9107 26.6136 41.7878 26.502C43.4377 26.079 44.0088 25.3492 44.2203 24.3021C44.3906 23.5011 44.3282 22.6681 44.0405 21.9013C44.2287 21.8084 44.4061 21.6949 44.5693 21.5629C45.0541 21.0996 45.383 20.4972 45.5106 19.8389C45.7632 17.5471 45.2659 15.2352 44.0934 13.2499C43.7135 12.5879 43.0918 12.0988 42.3589 11.8855C42.2213 11.2559 42.1399 10.6152 42.1156 9.97119C41.9411 8.97115 41.5293 8.02757 40.9146 7.21966C40.2999 6.41176 39.5004 5.76311 38.5831 5.32817C37.6944 4.91148 36.7298 4.68112 35.7487 4.65128C35.3366 4.6171 34.9219 4.67119 34.5324 4.80993C33.8582 3.99433 32.9728 3.37968 31.9729 3.0331C30.0326 2.67271 28.0273 3.00194 26.304 3.96382C25.955 4.1965 25.68 4.65128 25.3733 4.87339C24.6203 4.55003 23.8039 4.40109 22.9852 4.43772C22.1666 4.47435 21.3668 4.6956 20.6456 5.08491C19.8801 5.42034 19.1903 5.90713 18.6178 6.51602C18.0453 7.1249 17.6018 7.8433 17.3141 8.62799C16.8699 9.68563 16.468 11.4201 17.1449 12.3297C17.1838 12.3801 17.2191 12.4331 17.2506 12.4884C16.8487 13.197 15.9286 13.546 15.6219 15.5132C15.4969 16.5 15.5363 17.5006 15.7382 18.4746C15.7945 18.7145 15.9289 18.9288 16.1204 19.0839C16.3119 19.239 16.5495 19.326 16.7958 19.3313C16.468 22.5042 16.5209 26.7347 18.2554 29.474C18.6872 30.1147 19.1911 30.7038 19.7572 31.2297C20.3486 31.8091 21.0759 32.2309 21.8725 32.4565V34.3391C21.3437 34.6352 21.7139 36.3169 21.4917 37.3322C17.1977 37.0361 11.1904 38.0303 7.85883 40.7801C2.71872 45.0529 0.624606 51.0815 0.0746361 57.7446C-0.676285 66.9354 4.30518 72.6255 12.0365 73.6091C12.5222 75.2181 13.0941 76.7998 13.7499 78.3473C10.4831 84.4728 8.09411 91.0274 6.65313 97.8184C5.59549 103.572 5.0984 112.689 5.00322 121.435C5.00322 125.602 5.00322 141.234 6.39929 145.126C6.6214 145.74 7.57327 146.068 8.19727 146.247C9.93256 146.702 11.7006 147.02 13.4854 147.199C13.9297 156.485 15.2517 191.842 15.2517 191.895C13.4344 192.868 11.7614 194.089 10.2808 195.523C10.0456 195.732 9.86912 196 9.76895 196.298C9.66877 196.597 9.64835 196.917 9.70969 197.226C9.81864 197.5 10.0231 197.726 10.2854 197.862C10.5477 197.998 10.8502 198.035 11.1375 197.966C12.8932 197.807 17.6208 196.39 19.7572 195.999C19.8101 196.453 19.8841 196.898 20.3283 197.056C21.0898 197.321 22.5917 197.458 23.1417 196.771C23.6916 196.083 23.3638 194.285 23.4378 193.513C23.5013 192.942 28.3241 159.669 29.974 148.257H31.296C33.3267 159.246 38.8793 190.668 38.8898 190.721C37.7904 191.556 36.748 192.465 35.7698 193.439C34.9554 194.264 33.5911 195.745 34.1305 196.76C34.6699 197.775 35.939 197.257 37.0073 196.866C39.1225 196.126 42.2954 194.698 43.9136 194.169C44.03 194.603 44.1674 195.036 44.6222 195.131C45.2533 195.227 45.8971 195.194 46.5154 195.036C47.4144 194.772 47.573 194.211 47.573 193.281C47.1817 188.595 47.1711 203.37 47.4884 148.045C48.6612 147.998 49.8232 147.803 50.9469 147.464C53.94 145.994 53.665 103.043 49.7729 89.5265C49.5085 88.5958 47.8374 83.7413 46.6529 80.727C46.6901 80.6245 46.6901 80.5122 46.6529 80.4097C46.3051 79.5338 45.9133 78.676 45.4789 77.8397C45.7962 73.9475 46.1346 66.4383 46.4519 64.1644L49.0854 65.973C49.3013 66.824 49.6062 67.65 49.995 68.4373C50.4283 69.5741 51.1241 70.5924 52.0257 71.4092C53.1649 72.4588 54.5208 73.2453 55.9975 73.7132C57.4742 74.181 59.0356 74.3188 60.5714 74.1168H62.3482C64.4 86.3007 63.8077 85.021 64.1144 85.3277C56.3197 112.192 53.8025 163.149 54.8601 188.976C54.8601 189.099 54.9011 189.218 54.9765 189.314C55.5159 190.002 58.8792 190.372 59.9897 190.562C57.9037 191.675 55.9184 192.966 54.0563 194.423C53.115 195.343 54.3525 197.067 55.5053 197.363C56.1399 197.532 64.7702 196.305 65.4259 196.21C65.5105 196.612 65.7009 197.003 66.1028 197.077C67.2341 197.272 68.382 197.354 69.5295 197.321C69.9949 197.321 70.5872 197.215 70.6929 196.771C71.0463 195.011 71.2515 193.224 71.3064 191.43C72.0573 191.43 72.8082 191.43 73.0515 191.218C75.1667 189.103 84.6114 135.28 85.3835 130.933C85.6459 129.475 85.7135 127.988 85.5844 126.512C84.0509 108.374 84.622 115.84 84.3787 108.85C84.3887 108.808 84.4124 108.771 84.446 108.745C84.4796 108.718 84.5211 108.704 84.5638 108.704C84.6066 108.704 84.6481 108.718 84.6816 108.745C84.7152 108.771 84.7389 108.808 84.7489 108.85C85.4575 117.163 85.8806 117.448 86.4517 128.405C86.4517 129.156 95.0714 188.13 96.6262 189.674C97.4541 190.017 98.3425 190.189 99.2385 190.182C99.1374 192.459 99.3186 194.739 99.7779 196.972C99.8073 197.055 99.8534 197.132 99.9134 197.198C99.9734 197.263 100.046 197.316 100.127 197.352C100.899 197.733 103.786 197.352 104.357 197.278C104.539 197.21 104.698 197.093 104.818 196.94C104.937 196.787 105.012 196.604 105.034 196.411C105.933 196.538 114.331 197.723 114.944 197.564C116.097 197.268 117.345 195.544 116.393 194.613C114.191 192.929 111.848 191.436 109.392 190.15C110.661 190.055 113.326 189.822 114.426 189.177C116.087 188.193 114.5 114.413 101.174 84.1537C101.417 83.7624 102.348 72.9005 102.39 72.414C105.733 72.3009 108.972 71.2249 111.719 69.3151L115.949 67.7921C113.373 77.608 111.44 87.5815 110.164 97.6492C109.921 99.6375 108.694 109.516 110.016 110.997C110.152 111.15 110.341 111.248 110.545 111.271C111.147 111.324 113.559 111.536 116.129 111.695C116.129 142.038 119.111 158.326 123.924 190.277C123.939 190.376 123.988 190.466 124.064 190.532C124.14 190.598 124.236 190.635 124.336 190.636H124.611C124.81 192.11 125.132 193.564 125.574 194.983C126.24 196.327 136.573 196.295 138.033 195.829C138.287 195.699 138.489 195.485 138.605 195.223C138.72 194.961 138.742 194.667 138.667 194.391C138.244 192.508 134.437 192.096 132.639 190.742H133.263C133.36 190.745 133.456 190.713 133.533 190.654C133.61 190.594 133.664 190.509 133.686 190.414L141.777 149.917C141.872 150.51 147.562 191.165 147.562 191.165C147.58 191.272 147.636 191.368 147.719 191.436C147.803 191.504 147.909 191.54 148.017 191.535H148.852C149.001 193.026 149.241 194.506 149.571 195.967C149.588 196.034 149.619 196.096 149.663 196.15C149.707 196.203 149.762 196.245 149.825 196.274C150.883 196.771 160.179 197.331 161.713 196.496C161.992 196.345 162.204 196.095 162.307 195.795C162.411 195.496 162.399 195.169 162.274 194.878C162.008 194.141 161.534 193.498 160.909 193.027C159.629 192.318 157.398 192.159 156.203 191.535H156.795C156.896 191.529 156.993 191.491 157.071 191.427C157.149 191.362 157.204 191.274 157.229 191.176C157.229 191.176 160.306 179.87 162.115 153.862C163.173 138.696 163.469 123.191 163.352 108.194C164.706 108.3 167.012 108.405 168.154 108.352C168.471 108.352 168.778 108.352 168.916 108.046C170.142 105.603 169.212 81.3193 168.524 75.1956C168.461 74.6033 166.948 64.5452 166.747 63.2337C170.269 63.0962 175.357 62.3453 178.244 60.2829C193.051 49.7065 195.875 31.6421 197.08 29.2201C197.197 28.9663 196.911 28.8394 196.202 28.4904C196.609 27.2831 197.093 26.1031 197.651 24.9579C199.122 24.1435 200.824 23.2128 200.941 21.5311C200.997 21.3394 200.984 21.134 200.905 20.9505C200.826 20.767 200.685 20.617 200.507 20.5264ZM95.0291 9.72793C94.9445 9.72793 94.9234 9.66447 94.9234 9.55871C94.9234 9.45295 95.1243 9.72793 95.0291 9.72793ZM133.961 49.9181C139.185 50.2459 142.295 50.2882 147.604 50.2565C147.943 52.3083 148.323 54.5505 148.736 56.9302C145.891 56.9302 136.245 57.036 133.739 56.9937C133.855 54.6669 133.94 52.2872 133.961 49.9392V49.9181ZM132.575 72.0544C138.731 72.414 143.3 72.5092 151.475 72.34C152.025 75.3542 152.596 78.4002 153.104 81.076C148.154 81.2241 136.732 81.425 131.592 81.277C131.793 79.5953 132.205 75.5129 132.575 72.0755V72.0544ZM131.147 84.6825C139.207 85.1479 145.658 85.1691 153.855 84.9258C154.257 86.9565 154.648 88.9237 155.029 90.7745C145.679 91.1341 136.531 91.1553 130.026 91.0284C130.456 88.9342 130.83 86.819 131.147 84.6825ZM150.788 68.5325C147.615 68.5959 135.981 68.7228 132.892 68.6805C133.167 65.6557 133.379 62.9164 133.538 60.431C138.614 60.7483 142.062 60.8646 149.402 60.78C149.656 62.1761 150.587 67.3691 150.788 68.5325ZM146.24 40.2936C146.367 42.0281 146.747 44.7145 147.012 46.4385C144.315 46.4385 136.065 46.5336 133.95 46.5019C133.929 44.3308 133.784 42.1627 133.516 40.008C136.372 43.8472 144.082 43.3184 146.24 40.2936ZM129.318 94.4022C138.153 94.9354 147.011 95.0024 155.854 94.6032C156.256 96.4646 156.626 98.1568 156.975 99.6375C155.304 99.5423 135.547 98.5799 128.355 98.2309C128.651 97.0252 128.969 95.7454 129.286 94.4022H129.318ZM131.634 25.9203C131.264 25.18 128.916 24.8627 128.694 22.9907C128.44 20.8014 130.989 20.7273 131.867 21.7109C131.941 21.785 132.459 22.483 132.522 22.5676C133.072 23.308 133.58 23.3291 133.749 22.2715C133.992 20.3043 133.39 16.3699 135.685 16.7824C137.325 17.2967 139.011 17.6509 140.719 17.84C143.966 18.1361 146.547 17.84 148.641 15.5132C148.873 15.4603 149.645 15.4286 149.92 15.4074C150.017 16.5258 150.045 17.6489 150.005 18.7707C150.077 22.1658 149.488 25.5424 148.27 28.7125C146.589 32.7421 144.262 33.7151 144.262 33.7151C144.208 33.7357 144.159 33.7669 144.117 33.8069C144.075 33.8468 144.042 33.8947 144.019 33.9478C143.924 34.191 143.892 33.9478 145.88 38.4004C146.303 42.2396 134.934 43.8049 133.464 37.7764L133.823 34.6987C133.865 34.4766 132.607 27.8981 131.602 25.9203H131.634ZM108.366 44.9578C111.71 48.2782 114.015 52.501 114.997 57.11C115.621 60.2829 115.357 62.9481 114.32 64.7778C113.641 65.9532 112.793 67.0222 111.803 67.9508C110.765 69.0116 109.499 69.8218 108.101 70.3199C105.165 71.3968 102.015 71.7594 98.9106 71.3775C94.7823 70.8557 90.7061 69.9817 86.7267 68.7651C86.7267 68.4478 86.6632 68.1094 86.6315 67.7075L90.2803 66.3749C90.9791 66.1804 91.656 65.9146 92.3004 65.5817C92.6706 65.3913 92.7023 64.8307 92.7446 64.3548C92.9244 62.6203 92.5648 62.853 93.0937 62.4299C94.2782 61.4992 97.5357 60.5896 98.9529 60.1877C99.4289 60.0608 100.116 59.955 99.9048 59.5002C99.8377 58.8506 99.5718 58.2375 99.1433 57.7446C96.9117 48.2893 97.2925 48.321 96.9329 48.3845C96.9084 48.3868 96.8847 48.3943 96.8635 48.4067C96.8422 48.419 96.8239 48.4358 96.8098 48.456C96.7957 48.4761 96.7862 48.499 96.7819 48.5232C96.7776 48.5474 96.7786 48.5723 96.7848 48.596C97.2607 51.4093 97.9694 55.0476 98.477 57.5013L97.1656 57.3109C96.9435 57.3109 96.7213 57.3109 96.6685 57.2052C96.2454 56.3273 96.4252 55.2909 95.4099 54.7832C95.3042 54.712 95.1847 54.6638 95.0591 54.6418C94.9336 54.6197 94.8048 54.6243 94.6812 54.6552C94.5575 54.6861 94.4417 54.7427 94.3413 54.8212C94.2409 54.8997 94.1582 54.9985 94.0984 55.1111C93.5484 56.1687 94.2148 58.5378 94.0984 58.5061C93.5352 58.7369 92.9454 58.8968 92.3427 58.982C92.3184 58.8851 92.275 58.7941 92.2151 58.7142C92.1552 58.6343 92.0799 58.5671 91.9937 58.5166C89.848 57.4679 87.615 56.608 85.32 55.9466C84.8229 51.7795 84.1672 46.5336 83.9345 44.778C84.0157 44.7402 84.0906 44.6903 84.1566 44.6299C84.5298 43.8937 84.8037 43.1113 84.971 42.3031C85.1508 42.5041 85.2989 42.6944 85.6267 42.5675C88.496 40.4823 91.2074 38.188 93.7388 35.7035C99.1039 37.9179 104.051 41.0335 108.366 44.9155V44.9578ZM94.9762 55.6293C95.7377 56.0629 95.3253 57.3533 96.182 57.9984C97.0403 58.2501 97.9316 58.3713 98.826 58.358C99.0358 58.7068 99.1692 59.0961 99.2174 59.5002C98.3924 59.7541 94.384 60.6425 92.7129 61.7953C92.6787 60.997 92.5904 60.202 92.4485 59.4156C93.3158 59.3416 94.4051 59.4156 94.7224 58.8551C95.0397 58.2945 94.5003 55.3437 94.9762 55.6293ZM92.935 35.5342C91.0418 37.1736 86.8007 40.6849 85.5316 41.6156C84.897 40.907 83.2365 38.9398 82.7711 38.2206C83.8288 37.3111 87.742 34.667 88.3131 34.3497C89.893 34.5373 91.4447 34.9137 92.935 35.4708V35.5342ZM76.2773 34.2757L81.4385 38.2524C80.6559 39.0879 78.7415 40.7484 77.8849 41.6156C76.6792 40.7484 73.3899 37.2688 71.539 35.3439C73.0931 34.8835 74.676 34.5267 76.2773 34.2757ZM73.4005 20.2726C73.2524 20.061 73.2313 20.1245 72.1525 19.5534C71.4439 18.9717 70.5872 18.4957 70.2699 17.6285C70.2699 16.9093 70.492 16.0209 71.2429 16.0632C71.8107 16.194 72.3374 16.4628 72.7765 16.8458C73.2565 17.0033 73.7726 17.0139 74.2587 16.8764C74.7448 16.7388 75.1788 16.4594 75.5052 16.0737C75.8717 15.4137 75.9809 14.6414 75.8119 13.9056C76.5078 13.8433 77.1524 13.5135 77.6099 12.9854C77.8356 12.529 77.972 12.0336 78.0118 11.5259C79.0009 11.807 80.0577 11.7283 80.9943 11.3038C81.6345 11.028 82.2188 10.6372 82.7183 10.151C82.8289 10.4292 82.9747 10.6922 83.1519 10.9336C83.3164 11.1851 83.5456 11.3876 83.8155 11.5198C84.0854 11.6519 84.3859 11.7088 84.6855 11.6846C85.0588 11.6253 85.4176 11.4962 85.7431 11.3038V11.7269C85.7375 12.0513 85.8031 12.3729 85.9351 12.6693C86.0672 12.9656 86.2626 13.2294 86.5076 13.4421C86.7526 13.6548 87.0412 13.8113 87.3531 13.9005C87.665 13.9897 87.9927 14.0095 88.3131 13.9585C88.3067 14.0288 88.3067 14.0996 88.3131 14.17C88.4189 14.7411 88.1968 16.4651 88.99 16.666C89.7833 16.867 89.3496 14.8892 90.8726 14.6459C91.1463 14.5792 91.4346 14.6103 91.6877 14.7339C91.9408 14.8576 92.1426 15.0659 92.2581 15.3228C92.5543 16.2747 92.2581 16.6978 91.761 17.639L91.4332 18.0092C90.9255 18.5592 90.3755 19.1409 90.3755 19.6697C90.4072 21.2875 90.101 22.894 89.4765 24.3868C88.939 25.8999 87.9949 27.2356 86.7478 28.2471C86.6858 28.2949 86.6375 28.3582 86.6077 28.4306C86.578 28.503 86.568 28.582 86.5786 28.6596L87.4459 33.7468L81.9673 37.4697C81.0049 36.7294 82.2846 37.8293 77.0176 33.7574L77.5887 28.8394C77.5985 28.7492 77.5817 28.658 77.5404 28.5772C77.499 28.4964 77.435 28.4295 77.356 28.3846C73.5591 26.2588 73.8553 21.0023 73.4005 20.2726ZM61.1319 40.2619C64.0255 38.1897 67.2418 36.6101 70.6506 35.5871C72.5868 37.815 74.6453 39.9335 76.8166 41.9329C77.282 42.3348 77.8743 42.8319 78.2868 42.4089C78.4348 42.2396 78.6569 42.0175 78.9108 41.7637C79.1747 42.6815 79.4853 43.5852 79.8415 44.4713C79.8836 44.5496 79.9408 44.6189 80.0098 44.6752C80.0788 44.7315 80.1581 44.7736 80.2434 44.7991C80.1271 46.1635 79.8415 50.0873 79.5136 54.4342C76.1581 53.714 72.7268 53.4085 69.2969 53.5246C69.2969 53.2496 69.6353 49.9921 69.6459 49.8863C69.6459 49.3152 69.6459 48.5643 69.7093 48.2682C69.722 48.2219 69.7157 48.1725 69.6919 48.1308C69.6681 48.0892 69.6287 48.0587 69.5824 48.0461C69.5361 48.0334 69.4867 48.0397 69.4451 48.0635C69.4034 48.0873 69.3729 48.1267 69.3603 48.173C68.419 50.0873 68.5882 51.4411 68.7152 53.5563C66.3495 53.6733 64.0306 54.2593 61.8934 55.2803C61.8499 55.3027 61.8172 55.3415 61.8023 55.3881C61.7874 55.4347 61.7916 55.4853 61.8141 55.5288C61.8365 55.5723 61.8753 55.6051 61.9219 55.62C61.9685 55.6348 62.0192 55.6306 62.0626 55.6082C69.4661 51.991 82.898 55.4178 90.0371 58.4955C90.5351 58.6996 91.0192 58.9363 91.486 59.2041C91.8118 60.8718 91.9114 62.5759 91.7822 64.2702C91.7822 64.7461 91.7822 64.8625 90.9361 65.1903C90.3332 65.4336 89.614 65.6028 89.1698 65.772C87.7209 66.3114 86.3248 66.8297 84.9393 67.3585C77.1181 69.8687 69.1264 71.8128 61.0262 73.1755C58.3926 73.1755 54.9236 72.689 52.9881 70.8698C44.6117 63.0328 53.3689 45.5923 61.1319 40.2619ZM21.4917 31.3037C20.5088 30.7368 19.6692 29.9516 19.038 29.0086C17.3881 26.4492 17.367 22.2609 17.642 19.2361C19.1196 18.7762 20.4628 17.963 21.5552 16.867C22.7376 15.6586 23.7709 14.3129 24.6329 12.8585L25.2252 11.7163C26.2974 14.4588 28.1324 16.8371 30.5134 18.5698C31.3412 18.9487 32.2368 19.1573 33.1469 19.1832C33.1261 20.0127 33.2151 20.8413 33.4113 21.6475C33.4324 21.6902 33.462 21.7281 33.4984 21.7589C33.5347 21.7898 33.577 21.8128 33.6225 21.8267C33.6681 21.8406 33.7161 21.845 33.7634 21.8396C33.8107 21.8342 33.8565 21.8193 33.8978 21.7956C34.3632 21.5417 34.543 20.1774 35.2622 19.2361C35.4525 18.9717 35.6746 18.7707 35.9496 18.8342C36.2397 18.8786 36.5151 18.9909 36.7534 19.162C37.8111 19.9447 36.965 23.0753 34.9872 24.0483C34.3949 24.3445 31.3066 27.9404 31.1057 29.0721C30.9733 29.6937 31.0062 30.3391 31.2008 30.9441C31.2643 31.8642 31.3701 33.0594 31.4441 34.117C29.4875 34.117 24.7175 34.117 22.7609 34.2122C22.8561 31.5998 22.909 31.8748 21.4917 31.3037ZM41.2484 147.421H33.2632C34.4795 132.361 35.9602 95.4281 35.6429 82.3452C37.0531 82.2817 38.3223 82.1971 39.4504 82.0913C41.8618 94.5609 43.205 135.227 41.2484 147.421ZM14.8075 146.459C13.6652 133.841 14.8075 92.8898 17.8323 81.9433C18.3611 82.0173 22.1475 82.3558 22.1475 82.3558C20.5399 95.2801 18.89 132.371 19.4611 146.872C17.7477 146.745 16.1824 146.586 14.744 146.459H14.8075ZM26.5049 81.5837L22.5282 81.425C22.519 80.2852 22.6003 79.1464 22.7715 78.0194L24.1993 77.9137L27.2876 77.8397C27.1355 79.1079 26.8736 80.3607 26.5049 81.5837ZM14.2575 78.1041L21.9148 77.956C21.7004 79.1209 21.6012 80.3041 21.6187 81.4885C18.7453 81.4653 15.8806 81.1714 13.0624 80.6107C13.845 78.8973 14.1729 78.3156 14.2575 78.1041ZM22.8772 147.062C22.5282 133.863 24.6752 93.4821 26.0502 82.4086C27.4991 82.4086 28.5779 82.4827 31.5816 82.4086C31.5816 87.4218 30.0797 141.107 29.7307 147.295C27.9222 147.295 23.3426 147.094 22.8772 147.062ZM27.3193 81.5943C27.5788 80.3597 27.7065 79.1011 27.7001 77.8397C34.6487 77.7127 41.4493 77.5435 44.5165 77.956C44.9343 78.6929 45.2882 79.4642 45.5741 80.2616C39.5985 81.5414 32.8931 81.5943 27.3193 81.5943ZM7.40405 144.999C5.57434 143.836 4.98206 111.007 7.22425 97.9136C8.36466 92.0531 10.2595 86.365 12.8614 80.9914L13.972 81.2241C11.0106 91.9168 9.82603 130.774 11.2961 145.962C9.96059 145.822 8.6508 145.498 7.40405 144.999ZM22.708 192.593C19.7678 192.995 18.1814 193.228 17.0285 193.481C16.367 193.544 15.7055 193.363 15.1671 192.974C16.0344 192.456 16.2247 192.53 16.2247 192.033C16.3199 189.981 14.2258 151.314 13.972 147.221C18.7948 147.77 24.8233 148.067 29.6461 148.204C28.0068 158.294 23.459 187.421 22.6763 192.625L22.708 192.593ZM46.3779 190.414C43.6915 191.165 42.0099 191.652 40.8782 192.075C40.2306 192.228 39.5491 192.138 38.9639 191.821C39.7254 191.218 39.884 191.26 39.8417 190.763C39.6513 188.648 32.195 150.393 31.772 148.268C37.7582 148.394 43.4059 148.331 47.0759 148.077C46.8327 159.954 46.4096 185.57 46.3462 190.446L46.3779 190.414ZM49.0643 89.7169C52.5968 102.229 52.9564 140.483 50.5767 146.628C49.6883 147.072 45.701 147.242 44.728 147.284C46.8433 134.116 45.7856 94.4022 43.3636 81.5731C44.3578 81.4145 45.2462 81.2452 46.0712 81.0654C47.2452 84.2701 48.7893 88.8814 49.0326 89.7486L49.0643 89.7169ZM41.5974 58.8022C41.1426 58.3897 40.6984 58.0196 40.3177 57.6177C40.2882 57.5798 40.2449 57.5552 40.1973 57.5492C40.1497 57.5433 40.1017 57.5565 40.0638 57.5859C40.026 57.6154 40.0013 57.6587 39.9954 57.7063C39.9894 57.7539 40.0026 57.8019 40.0321 57.8398C41.8406 60.8011 44.3472 62.2289 45.6904 63.4452C45.352 64.7355 45.003 72.4669 44.6328 77.0464C41.8406 76.4013 27.2559 77.1628 22.359 77.1628C22.2474 77.1644 22.141 77.21 22.0629 77.2897C18.2131 77.4695 15.1777 77.6493 14.3316 77.7022C13.8239 76.5176 13.1893 74.6033 12.798 73.387C14.5131 73.695 16.2706 73.6806 17.9804 73.3447C18.0098 73.9877 18.1493 74.6209 18.3929 75.2167C18.9217 75.6821 36.5207 74.4235 37.0813 74.3072C37.462 74.2225 37.4726 73.6937 37.5043 73.2495C37.5995 72.1919 37.663 69.8651 37.7053 67.1364C37.869 67.0711 38.0165 66.971 38.1377 66.8431C38.2589 66.7151 38.3509 66.5624 38.4072 66.3954C38.4635 66.2284 38.4829 66.0512 38.464 65.876C38.445 65.7008 38.3883 65.5318 38.2976 65.3807C38.4213 65.2232 38.5115 65.042 38.5627 64.8484C38.6139 64.6548 38.6249 64.4527 38.5952 64.2546C38.5655 64.0565 38.4957 63.8666 38.3899 63.6965C38.2842 63.5264 38.1448 63.3797 37.9803 63.2654C38.117 63.1321 38.221 62.969 38.2842 62.7888C38.3474 62.6086 38.368 62.4162 38.3444 62.2267C38.3209 62.0372 38.2538 61.8558 38.1484 61.6965C38.043 61.5373 37.9022 61.4046 37.737 61.3088C37.737 57.4907 37.737 53.7679 37.5995 51.6843C37.5361 49.971 37.4832 49.7806 37.2188 49.5691C36.7005 49.2518 34.4689 49.3787 33.4642 49.421C33.4781 48.9725 33.3565 48.5302 33.1152 48.1518C32.6286 47.6759 30.4816 48.1518 29.2336 48.1518C28.9587 47.274 28.8212 46.6183 27.8481 46.1635C27.3692 45.9943 26.8445 46.0088 26.3756 46.2041C25.9067 46.3995 25.5269 46.7619 25.3098 47.2211C25.3098 47.3269 25.0031 48.1941 24.9396 48.4797C23.8048 48.5656 22.6751 48.7103 21.5552 48.9133C21.1533 49.0402 21.1216 49.8863 21.111 50.4786C17.0814 50.9017 16.817 50.9017 16.743 51.3141C16.6689 51.7266 16.9651 58.4532 16.9862 59.0137C15.9973 59.1393 15.0184 59.3336 14.0566 59.5954C14.2567 58.2819 14.3768 56.9574 14.4162 55.6293C14.4162 55.0476 14.4691 52.5622 14.12 52.5516C13.771 52.541 13.5595 54.9841 13.5278 55.4707C13.4643 56.211 13.3691 58.9714 13.422 59.7964C12.9778 59.9339 12.5547 60.0819 12.1211 60.2512C12.0762 60.268 12.0399 60.302 12.02 60.3456C12.0002 60.3892 11.9985 60.439 12.0153 60.4838C12.0322 60.5287 12.0661 60.5651 12.1098 60.5849C12.1534 60.6048 12.2031 60.6064 12.248 60.5896C18.2237 58.5272 26.3146 59.68 30.7461 61.9011L30.947 66.3537C27.1184 69.0295 21.0264 72.3399 16.3728 72.9322C15.0004 73.0908 13.6128 73.0624 12.248 72.8476C4.23114 71.8111 0.0957885 66.0682 0.677488 57.8186C1.13227 51.3988 3.17351 45.1904 8.10209 41.0762C11.275 38.4427 17.3352 37.5437 21.46 37.9033C22.5177 37.9879 21.9465 35.7035 22.2215 34.8785C22.6234 34.815 23.9032 34.7939 24.3368 34.7833C24.2843 35.5121 24.2843 36.2438 24.3368 36.9726C24.3368 37.2793 24.5589 38.4322 24.8339 38.3475C25.1089 38.2629 25.2146 37.3639 25.2252 37.1101C25.2358 36.8563 25.2252 36.8246 25.13 34.7833H28.6519C28.6094 35.4878 28.6094 36.1941 28.6519 36.8986C28.6519 37.2053 28.874 38.3581 29.149 38.2735C29.424 38.1889 29.5298 37.2899 29.5404 37.0361C29.5509 36.7822 29.5404 36.2534 29.4452 34.8045H32.0258C32.1316 35.1473 32.1886 35.5034 32.195 35.8621C32.195 37.089 31.9835 37.2688 32.195 37.512C32.7661 38.1572 37.9486 35.5977 53.1045 48.2153C50.2806 52.9746 48.049 59.2041 48.8739 64.6932C46.4096 63.0327 46.8856 63.551 41.5974 58.8022ZM17.7477 58.8974C17.642 55.3543 17.5573 52.118 17.5573 51.7266C18.3929 51.5997 20.286 51.4093 21.1216 51.3247C21.1216 52.8795 21.185 52.9852 22.1792 53.091C24.0724 53.3131 32.4171 53.091 33.295 52.3401C33.3746 52.2756 33.4365 52.1918 33.4748 52.0968C33.5418 51.5141 33.556 50.9264 33.5171 50.3411C34.5492 50.2829 35.5838 50.2829 36.6159 50.3411C36.8169 52.2237 36.838 59.1724 36.838 61.0655C36.4409 61.0691 36.046 61.126 35.6641 61.2348C35.8121 60.3675 36.0342 58.9609 35.1564 58.7705C34.9214 58.7033 34.6719 58.7065 34.4387 58.7799C34.2056 58.8532 33.9991 58.9933 33.8449 59.183C33.3869 59.8894 33.1174 60.7014 33.0623 61.5415C32.578 61.5431 32.0941 61.5148 31.6133 61.4569C31.597 61.3997 31.5687 61.3465 31.5305 61.301C31.4922 61.2554 31.4447 61.2184 31.3912 61.1925C27.1316 59.2184 22.4165 58.4362 17.7477 58.9291V58.8974ZM37.6313 64.7461C37.2188 64.9894 36.9544 64.8202 36.214 64.9153C36.099 64.9153 35.9887 64.961 35.9074 65.0424C35.8261 65.1237 35.7804 65.234 35.7804 65.349C35.7804 65.464 35.8261 65.5743 35.9074 65.6556C35.9887 65.7369 36.099 65.7826 36.214 65.7826C36.5657 65.8186 36.92 65.8186 37.2717 65.7826C37.3563 65.7826 37.663 65.8461 37.663 65.9307C37.663 66.8931 35.7698 66.5229 34.9343 66.0364C33.8992 65.973 32.8606 66.0729 31.8566 66.3326L31.645 61.9751C32.2205 62.1292 32.8206 62.1687 33.4113 62.0915C33.4931 62.0457 33.5538 61.9698 33.5805 61.8799C33.8238 60.9915 34.0247 59.3522 34.9554 59.5849C35.0101 60.2509 34.942 60.9212 34.7545 61.5626C34.6487 62.2184 34.9026 62.3664 35.3997 62.3241C35.8439 62.1246 36.3203 62.0064 36.8063 61.9751C37.0813 61.9751 37.3563 61.9751 37.4409 62.2924C37.5255 62.6097 37.2505 62.726 36.9861 62.8212C36.7217 62.9164 35.6852 63.0645 35.5794 63.0856C35.4749 63.1186 35.3857 63.1882 35.3284 63.2816C35.2711 63.375 35.2495 63.486 35.2675 63.5942C35.2855 63.7023 35.342 63.8003 35.4265 63.8701C35.511 63.9399 35.6179 63.9768 35.7275 63.974C37.0073 63.8366 36.7852 63.7731 37.1659 63.8577C37.3317 63.8966 37.4791 63.9914 37.5831 64.1263C37.6872 64.2612 37.7415 64.4278 37.737 64.5981C37.7388 64.6351 37.7297 64.6718 37.711 64.7037C37.6922 64.7357 37.6645 64.7614 37.6313 64.7778V64.7461ZM31.8037 66.7662C32.7364 66.6428 33.6761 66.5792 34.617 66.5758C35.2772 66.9927 36.0365 67.2263 36.8169 67.2527C36.8169 69.1459 36.8169 72.5409 36.69 73.5351C34.3843 73.7783 20.9418 75.0898 18.6361 74.8783C18.514 74.3351 18.4327 73.7836 18.3929 73.2284C24.231 72.0227 31.5076 67.3585 31.8037 66.7979V66.7662ZM69.8786 196.337C68.6731 196.416 67.4625 196.352 66.272 196.147V195.618C66.2598 195.491 66.1992 195.374 66.1028 195.29C65.8172 195.068 66.0393 195.227 58.6359 196.168L56.2139 196.443C55.9812 196.443 55.7168 196.559 55.7168 196.443C55.1457 196.295 54.3102 195.29 54.6592 194.92C56.6356 193.334 58.7207 191.889 60.8992 190.594C64.1885 190.985 68.1229 191.26 70.5555 191.334C70.4478 193.026 70.2252 194.708 69.8891 196.369L69.8786 196.337ZM105.616 190.245C106.6 190.245 107.583 190.192 108.525 190.139C109.952 191.017 114.669 193.926 115.833 195.121C116.023 195.322 115.833 195.713 115.664 195.935C114.987 196.866 114.468 196.633 114.278 196.612C112.48 196.464 106.526 195.628 104.759 195.375C104.698 195.366 104.635 195.37 104.576 195.386C104.516 195.402 104.46 195.43 104.411 195.469C104.363 195.508 104.322 195.556 104.293 195.61C104.264 195.665 104.246 195.725 104.241 195.787V196.316C103.055 196.531 101.848 196.598 100.645 196.517C100.217 194.457 99.9978 192.359 99.9894 190.256C99.9683 189.949 99.651 190.383 105.627 190.277L105.616 190.245ZM100.476 83.5509C95.0503 83.5509 69.244 84.196 64.8442 84.6931C64.7384 82.8951 63.5116 75.5023 63.2155 73.7254C68.32 72.847 73.3753 71.7032 78.3608 70.2987C78.2365 71.0179 78.2045 71.7501 78.2656 72.4774C79.5404 74.0168 80.9568 75.4332 82.4961 76.708C82.5757 76.7708 82.6709 76.8109 82.7715 76.824C82.8721 76.837 82.9743 76.8225 83.0673 76.782C84.5796 75.5195 85.8763 74.0192 86.9065 72.34C86.9505 71.4651 86.8901 70.5882 86.7267 69.7276C89.6669 70.7852 97.6415 72.4563 101.639 72.3928C101.449 74.5821 100.645 82.4298 100.476 83.5509ZM111.687 93.3129C114.394 74.6667 116.922 68.4902 116.975 67.1152C118.651 66.3865 120.211 65.4174 121.608 64.2385C122.156 63.7514 122.672 63.2285 123.152 62.6732C123.331 62.5039 123.088 62.2395 122.919 62.3982C122.75 62.5568 122.337 62.7789 122.041 62.9693C118.445 65.3807 117.62 66.2585 113.4 67.7604C114.322 66.85 115.021 65.7387 115.441 64.5134C117.292 58.2628 114.743 51.8218 110.693 46.7557C115.523 43.772 120.661 41.3182 126.018 39.4369C128.13 38.7287 130.294 38.1842 132.491 37.8082C132.57 38.271 132.716 38.7199 132.924 39.1408C134.616 49.5373 131.274 79.7963 129.286 89.8438C128.133 95.682 125.933 104.196 123.405 109.643C123.237 110.046 123.035 110.436 122.803 110.806C121.47 111.25 112.121 110.468 110.672 110.33C109.593 108.374 111.38 95.5762 111.708 93.3129H111.687ZM156.425 190.615H148.397C148.397 190.298 142.432 148.109 142.263 147.527C142.94 143.18 147.551 119.86 147.393 114.032C147.393 113.984 147.374 113.939 147.34 113.905C147.306 113.871 147.261 113.852 147.213 113.852C147.165 113.852 147.119 113.871 147.086 113.905C147.052 113.939 147.033 113.984 147.033 114.032C147.033 114.645 146.843 115.83 146.589 117.406C142.665 141.901 139.651 156.009 132.903 189.896L124.738 189.811C119.386 155.967 116.764 139.553 116.626 111.737C117.747 111.8 122.401 112.096 123.3 111.642C123.617 111.483 123.945 110.774 124.146 110.362C125.734 106.737 127.042 102.996 128.059 99.1721C135.304 99.5741 153.918 100.441 157.123 100.611C158.487 107.041 158.582 107.411 158.963 107.549C160.173 107.857 161.408 108.052 162.654 108.13C162.739 129.569 161.618 169.748 156.446 190.562L156.425 190.615ZM196.615 29.1778C195.155 32.594 192.046 49.6854 177.81 59.6695C175.029 61.6155 169.963 62.3136 166.578 62.4087C166.425 60.7453 166.106 59.1013 165.626 57.5013C165.415 56.8456 165.097 56.0735 164.907 55.6082C164.887 55.5695 164.855 55.5388 164.815 55.5211C164.775 55.5034 164.731 55.4999 164.689 55.511C164.647 55.5221 164.61 55.5472 164.584 55.5822C164.559 55.6172 164.546 55.6599 164.547 55.7033C165.129 60.3358 165.224 58.6964 165.859 62.8847C165.859 62.8847 167.604 74.6985 167.667 75.2802C168.482 82.6836 169 104.407 168.175 107.422C165.255 107.49 162.335 107.263 159.46 106.745C158.329 102.969 147.255 48.1201 147.012 38.8552C149.815 39.3629 160.624 43.255 169.677 43.5405C177.757 43.7838 189.91 26.6184 190.015 26.6184C190.851 26.4703 195.462 28.4269 196.626 29.125L196.615 29.1778ZM200.158 21.4677C200.073 22.832 198.487 23.7522 197.313 24.4714C196.901 24.7358 195.97 27.877 195.853 28.3212C194.391 27.6383 192.89 27.0415 191.359 26.5338C192.416 24.9262 193.336 24.08 192.934 23.6993C192.205 23.033 190.819 22.134 191.538 21.3831C191.627 21.4024 191.713 21.4345 191.792 21.4783C192.797 21.9542 193.601 23.2445 194.034 22.4513C194.228 21.5192 194.493 20.6034 194.828 19.712C195.388 18.4111 195.737 18.6544 195.6 19.9235C195.48 20.791 195.263 21.6424 194.954 22.4619C194.918 22.5769 194.929 22.7016 194.984 22.8088C195.04 22.9159 195.136 22.9965 195.251 23.033C195.366 23.0695 195.49 23.0587 195.598 23.0032C195.705 22.9477 195.785 22.8519 195.822 22.7368C196.086 21.801 196.481 20.9072 196.996 20.0822C197.514 19.3207 198.138 19.1303 198.117 19.6486C197.952 20.5776 197.592 21.4609 197.059 22.2398C196.923 22.4297 196.839 22.6522 196.816 22.8849C196.799 22.9837 196.816 23.0854 196.866 23.1726C196.915 23.2599 196.993 23.3273 197.087 23.3635C197.18 23.3997 197.283 23.4023 197.379 23.371C197.474 23.3396 197.555 23.2763 197.609 23.1916C197.927 22.7475 198.281 22.3302 198.667 21.9436C199.291 21.3302 200.2 20.9071 200.169 21.4148L200.158 21.4677Z" fill="#1F1F1F"/>
<path d="M81.0472 22.2926C81.4808 23.2762 83.8499 22.6628 83.3846 22.1657C83.3509 22.1321 83.3052 22.1133 83.2577 22.1133C83.2101 22.1133 83.1644 22.1321 83.1307 22.1657C82.9897 22.211 82.8381 22.211 82.6971 22.1657C82.4085 22.1243 82.1273 22.0424 81.8616 21.9225V17.9457C81.8516 17.9042 81.8279 17.8672 81.7943 17.8408C81.7607 17.8143 81.7192 17.7999 81.6765 17.7999C81.6337 17.7999 81.5923 17.8143 81.5587 17.8408C81.5251 17.8672 81.5014 17.9042 81.4914 17.9457C81.1118 19.101 80.9504 20.3168 81.0155 21.5311C80.9889 21.7852 80.9996 22.0417 81.0472 22.2926ZM77.9801 19.6697C77.9801 19.3841 77.9801 19.0774 77.9166 18.813C77.8958 18.695 77.8303 18.5896 77.7338 18.5187C77.6373 18.4478 77.5171 18.4168 77.3984 18.4323C77.3383 18.4412 77.2806 18.4621 77.2287 18.4937C77.1769 18.5254 77.1319 18.567 77.0964 18.6163C77.0609 18.6656 77.0357 18.7215 77.0221 18.7807C77.0086 18.8399 77.0071 18.9013 77.0176 18.9611C77.0176 19.1514 77.0176 19.3735 77.0705 19.7331C77.0747 19.7929 77.0905 19.8512 77.1172 19.9048C77.144 19.9584 77.1809 20.0061 77.2261 20.0454C77.2713 20.0847 77.3238 20.1147 77.3805 20.1337C77.4373 20.1527 77.4973 20.1604 77.557 20.1562C77.6167 20.152 77.675 20.1361 77.7286 20.1094C77.7822 20.0827 77.83 20.0457 77.8693 20.0006C77.9086 19.9554 77.9386 19.9029 77.9576 19.8461C77.9766 19.7894 77.9842 19.7294 77.9801 19.6697ZM85.1191 19.5957C85.1191 19.7163 85.167 19.8319 85.2523 19.9172C85.3376 20.0025 85.4533 20.0504 85.5739 20.0504C85.6945 20.0504 85.8102 20.0025 85.8955 19.9172C85.9807 19.8319 86.0287 19.7163 86.0287 19.5957V19.1197C86.0892 19.0339 86.1189 18.93 86.113 18.8252C86.107 18.7203 86.0657 18.6205 85.9959 18.542C85.926 18.4636 85.8316 18.4111 85.7281 18.3931C85.6246 18.375 85.5181 18.3926 85.4258 18.4428C85.0133 18.7072 85.1191 19.2361 85.1191 19.5957ZM82.9827 26.1318C82.6024 26.3436 82.202 26.5172 81.7875 26.6501C81.5549 26.6501 81.502 26.9779 81.7875 27.0097C82.0562 27.1446 82.3543 27.2101 82.6548 27.2001C82.9617 27.1638 83.2563 27.0583 83.5164 26.8916C83.7766 26.7248 83.9955 26.5012 84.1566 26.2376C84.2874 25.957 84.3421 25.647 84.3153 25.3386C84.3251 25.2909 84.3156 25.2413 84.2888 25.2006C84.262 25.16 84.2202 25.1316 84.1725 25.1218C84.1248 25.112 84.0752 25.1215 84.0345 25.1483C83.9939 25.1751 83.9655 25.2169 83.9557 25.2646C83.6669 25.5913 83.3403 25.8824 82.9827 26.1318ZM142.02 26.851C142.824 27.1049 144.135 27.2741 144.696 26.6395C145.256 26.0049 144.95 24.355 144.886 23.657C144.754 22.2862 144.456 20.9366 143.998 19.638C143.988 19.5903 143.959 19.5484 143.919 19.5217C143.878 19.4949 143.829 19.4854 143.781 19.4952C143.733 19.505 143.691 19.5334 143.665 19.574C143.638 19.6147 143.628 19.6643 143.638 19.712C143.638 20.0399 143.786 21.658 143.818 22.0705C144.02 23.4177 144.091 24.7815 144.029 26.1424C143.792 26.3029 143.52 26.4044 143.236 26.4386C142.178 26.6184 141.935 26.3645 141.882 26.6395C141.876 26.6625 141.875 26.6865 141.879 26.71C141.882 26.7336 141.891 26.7561 141.904 26.776C141.917 26.796 141.934 26.813 141.954 26.8259C141.974 26.8388 141.996 26.8474 142.02 26.851ZM140.232 19.8812C140.232 19.5428 139.259 19.3736 138.625 19.511C137.99 19.6485 137.123 20.3148 137.366 20.5687C137.61 20.8225 140.19 20.1879 140.232 19.8812ZM139.534 22.409V23.3185C139.534 23.4391 139.582 23.5548 139.668 23.6401C139.753 23.7254 139.869 23.7733 139.989 23.7733C140.11 23.7733 140.226 23.7254 140.311 23.6401C140.396 23.5548 140.444 23.4391 140.444 23.3185V22.4407C140.447 22.319 140.402 22.2011 140.319 22.1121C140.236 22.0232 140.121 21.9703 140 21.9648C139.88 21.9646 139.765 22.0107 139.678 22.0935C139.591 22.1762 139.54 22.2892 139.534 22.409ZM148.556 20.3148C148.641 20.1879 148.302 19.511 147.498 19.2572C146.695 19.0034 146.081 19.4053 146.081 19.5957C146.081 19.786 148.397 20.5475 148.556 20.3148ZM139.08 29.1144C138.836 29.1884 138.836 30.7114 140.285 31.145C141.026 31.3566 142.03 31.2402 142.052 30.9758C142.073 30.7114 140.613 30.3941 140.137 30.0662C139.661 29.7384 139.281 29.0509 139.08 29.1144ZM147.107 21.785C147.047 21.7836 146.988 21.7939 146.932 21.8155C146.877 21.8371 146.826 21.8694 146.782 21.9106C146.739 21.9519 146.704 22.0013 146.68 22.0559C146.656 22.1106 146.643 22.1694 146.642 22.2292V23.1282C146.658 23.2382 146.714 23.3386 146.798 23.4111C146.883 23.4837 146.991 23.5236 147.102 23.5236C147.213 23.5236 147.321 23.4837 147.405 23.4111C147.49 23.3386 147.545 23.2382 147.562 23.1282V22.2503C147.563 22.1897 147.553 22.1294 147.53 22.073C147.508 22.0166 147.475 21.9652 147.432 21.9219C147.39 21.8785 147.339 21.8441 147.284 21.8206C147.228 21.797 147.168 21.7849 147.107 21.785Z" fill="#1F1F1F"/>
</svg>
