<svg width="191" height="198" viewBox="0 0 191 198" fill="none" xmlns="http://www.w3.org/2000/svg">
<path d="M119.5 23L131.938 28.4873L127.043 39.4434L117 36L119.5 23Z" fill="#FFD600"/>
<path d="M146 17C146 22.2794 144.443 27.5859 140.5 30.5C137.843 32.4635 133.557 33 130 33C121.163 33 114 25.8366 114 17C114 13.4428 114.5 10 117 7.5C119.914 3.55695 124.721 1 130 1C138.837 1 146 8.16344 146 17Z" fill="#FFD600"/>
<circle cx="132" cy="16" r="16" fill="#FFD600"/>
<path d="M64.9942 151.221C66.7318 150.606 68.5121 150.118 70.3208 149.762L70.5397 150.564C70.5642 150.659 70.6219 150.742 70.7023 150.797C70.7827 150.853 70.8804 150.877 70.9775 150.867L78.1388 150.033C80.1089 145.54 83.726 138.733 83.7781 138.629C83.726 136.93 83.7781 135.502 83.7781 133.876C79.6815 135.398 72.1033 138.285 68.1422 140.13C68.0527 140.188 67.9834 140.272 67.9441 140.371C67.9049 140.47 67.8976 140.579 67.9233 140.683C67.9233 140.683 67.9963 140.943 68.0901 141.318C66.1512 141.318 60.3451 141.037 58.9483 142.361C58.7311 142.663 58.6244 143.031 58.646 143.403C58.5626 144.842 59.2819 156.016 60.4285 159.3C61.0227 161.02 62.2735 160.832 63.1283 159.185C64.1176 156.705 64.7527 154.097 65.015 151.44C65.015 151.305 64.9838 151.315 64.9942 151.221ZM63.7954 141.892C65.0672 141.787 65.4633 141.808 68.1943 141.725C68.6842 143.58 69.6954 147.396 70.2166 149.345C68.3775 149.63 66.5621 150.051 64.7857 150.606C64.2322 147.731 63.9011 144.818 63.7954 141.892Z" fill="#1F1F1F"/>
<path d="M160.936 50.6614C161.197 50.2966 160.863 49.8275 160.582 49.4627C161.379 48.6426 162.263 47.9121 163.219 47.2841C164.832 46.4803 166.306 45.4247 167.587 44.1569C168.118 43.6044 169.119 42.4682 168.744 41.8011C168.368 41.134 167.701 41.0923 166.794 41.4779C167.187 41.0654 167.508 40.5897 167.743 40.0707C168.035 39.2577 167.347 38.6009 165.856 39.2055C166.398 38.3403 166.523 37.4335 165.606 36.9957C164.866 36.6412 163.782 37.4856 163.156 38.0381C161.928 39.1111 160.775 40.2674 159.706 41.4988C159.049 40.1228 158.007 38.5384 156.704 39.0387C155.401 39.5391 156.412 41.7802 157.079 42.9998L154.713 44.6364C154.355 44.4433 153.951 44.3531 153.545 44.3758C150.856 44.8345 138.504 54.2368 137.253 54.2368C136.294 54.2368 122.597 47.6698 110.755 45.7726C110.732 45.7016 110.69 45.6385 110.633 45.5905C110.576 45.5426 110.506 45.5117 110.432 45.5016C108.367 45.1491 106.273 44.9921 104.178 45.0325C104.114 45.0368 104.052 45.0549 103.997 45.0855C103.941 45.1161 103.892 45.1585 103.855 45.2097H102.979C102.77 44.3654 101.999 42.4161 101.728 41.6656C102.437 41.0506 103.417 40.7378 103.928 39.7476C104.866 37.913 104.824 34.7232 104.563 32.6801C105.741 31.7837 105.773 30.3452 105.502 28.8754C105.397 28.2812 105.074 26.9366 104.574 26.603C104.292 26.4154 103.698 26.603 103.187 26.7906C102.677 25.6023 102.677 26.1443 102.885 25.6648C102.982 25.4439 103.038 25.2073 103.052 24.9664C103.604 25.1332 104.751 24.0283 104.355 22.5689C104.147 22.0465 103.893 21.5441 103.594 21.0679C103.74 20.7135 104.053 20.2861 103.073 18.9831C102.651 18.5279 102.103 18.2086 101.499 18.0658H101.019C100.674 17.5636 100.166 17.1956 99.5808 17.0234C98.6979 16.7983 97.7619 16.9293 96.9748 17.3882C96.7663 17.5446 96.5995 17.7531 96.391 17.899C95.9197 17.6128 95.3789 17.4615 94.8275 17.4615C94.276 17.4615 93.7352 17.6128 93.2639 17.899C92.9879 18.0073 92.7368 18.1702 92.5254 18.378C92.314 18.5858 92.1468 18.8342 92.0338 19.1082C91.5231 18.932 90.9812 18.8641 90.4428 18.909C89.9044 18.9539 89.3812 19.1105 88.9067 19.3688C87.1059 20.3452 85.759 21.9878 85.154 23.9449C85.1372 24.24 85.1372 24.5358 85.154 24.8309H85.0394C83.4758 24.6016 81.4848 28.3125 83.0797 31.1999C83.2673 31.5439 83.5071 31.8671 83.7364 32.2423C84.4035 33.2847 84.1429 33.5975 85.6335 34.8692C86.0714 35.2444 86.1443 35.2132 86.4153 35.4425C86.6864 35.6718 86.5821 35.5572 86.7385 36.1409C86.8237 36.4848 86.9763 36.8083 87.1875 37.0928C87.3986 37.3773 87.6641 37.6171 87.9685 37.7983C88.0793 38.8179 88.514 39.7751 89.209 40.5294C89.429 40.7756 89.6857 40.9866 89.9699 41.1548C90.0466 41.198 90.1322 41.223 90.2201 41.2278C90.5328 43.1666 90.9185 45.6892 91.0853 46.7629L90.1575 47.2632C88.9437 47.7516 87.7633 48.3192 86.6238 48.9623C86.5344 49.0242 86.4713 49.1171 86.4466 49.2229C85.3417 49.8067 84.2993 50.3591 83.7051 50.7136C75.4285 55.6232 51.9225 87.9895 51.6828 89.4697C51.6563 89.5546 51.6563 89.6455 51.6828 89.7303C52.0197 90.2679 52.4302 90.7556 52.9024 91.1793C52.7569 91.4447 52.5821 91.6929 52.3812 91.9194C50.2964 93.2849 47.1692 95.3176 45.491 97.1313C45.3733 97.2363 45.285 97.3701 45.2348 97.5196C45.1846 97.6691 45.1742 97.8291 45.2047 97.9838C45.2353 98.1385 45.3056 98.2826 45.4088 98.4018C45.512 98.521 45.6445 98.6113 45.7933 98.6637C46.106 98.7679 46.1581 98.7366 48.1908 97.6213C47.6321 98.1113 47.1752 98.7063 46.8461 99.3725C46.7106 99.9458 47.2318 100.279 47.8885 100.175C48.258 100.078 48.6098 99.9234 48.9309 99.7165C48.7429 100.007 48.6428 100.345 48.6428 100.691C48.6428 101.037 48.7429 101.375 48.9309 101.666C49.9733 102.979 52.7043 98.8409 54.1428 97.8193C54.7266 98.5594 55.5188 100.29 56.7801 99.8311C57.8746 99.4246 56.6759 97.0167 56.7801 96.3183C57.2042 95.911 57.6571 95.5348 58.1352 95.1925C58.9393 95.7888 59.8587 96.2113 60.835 96.4329C62.555 96.4329 80.505 78.3161 81.8705 76.8672C81.3806 81.4746 78.9101 101.249 79.4313 105.095C79.6711 106.836 83.8511 107.086 85.6127 107.18C85.0811 119.689 84.7267 138.639 84.6329 138.837C81.8705 144.79 81.12 146.416 80.1922 148.219C78.5036 151.45 71.3944 163.375 70.5918 166.086C70.4771 166.513 70.4667 166.68 70.9149 167.472C69.5717 168.884 68.325 170.385 67.1832 171.965C66.6099 173.007 69.0699 182.722 70.8107 186.162C71.2068 186.934 71.8531 188.122 72.7183 188.091C75.3243 187.997 75.3138 178.636 75.2409 176.02C75.2405 175.939 75.2108 175.861 75.1575 175.801C75.6299 175.096 76.1451 174.42 76.7002 173.779C77.0316 174.007 77.3801 174.209 77.7426 174.383C78.097 174.539 78.4932 174.268 78.785 174.029C82.2562 171.298 100.978 147.969 104.991 136.961C106.815 131.937 109.244 124.995 109.932 120.074C110.352 116.964 110.391 113.813 110.046 110.693C110.046 110.649 110.064 110.606 110.095 110.575C110.127 110.544 110.169 110.526 110.213 110.526C110.257 110.526 110.3 110.544 110.331 110.575C110.362 110.606 110.38 110.649 110.38 110.693C110.902 113.831 111.004 117.024 110.682 120.189C109.911 127.017 104.522 141.245 101.645 146.478C104.126 146.02 109.171 145.019 111.61 144.289C119.741 141.819 127.246 134.449 127.903 126.172C128.115 122.273 128.115 118.365 127.903 114.466C127.832 109.084 127.133 103.728 125.818 98.5073C128.028 97.3085 130.05 95.9013 130.707 94.6087C132.114 91.8464 128.393 75.9499 127.579 71.4885C132.03 71.9784 139.609 72.8644 143.142 70.1021C147.187 66.8498 155.922 57.6976 160.936 50.6614ZM74.678 175.446C72.8017 174.31 70.1749 171.61 69.7787 169.494C70.2061 168.952 70.6543 168.452 71.0713 167.889C72.484 170.045 74.2453 171.951 76.2833 173.528C75.7108 174.135 75.1747 174.776 74.678 175.446ZM157.548 43.2917C157.602 43.2573 157.641 43.2036 157.656 43.1415C157.672 43.0795 157.663 43.0139 157.632 42.9581C157.267 42.2806 156.172 39.8935 156.933 39.6225C157.371 39.4557 157.757 39.7267 158.08 40.0916C158.573 40.7176 158.957 41.4224 159.216 42.1764C159.235 42.2377 159.271 42.2925 159.319 42.3352C159.367 42.3778 159.426 42.4065 159.489 42.4183C159.552 42.4301 159.618 42.4245 159.678 42.402C159.738 42.3796 159.791 42.3412 159.831 42.291C160.874 41.134 163.313 38.4967 164.689 37.7879C165.731 37.2458 165.981 38.2465 163.427 40.5815C162.841 41.0288 162.277 41.5054 161.739 42.0096C161.709 42.0505 161.693 42.0997 161.693 42.1503C161.693 42.2008 161.709 42.2501 161.739 42.291C161.739 42.562 161.958 42.8643 162.333 42.5829C163.239 41.7875 164.197 41.0528 165.199 40.3834C165.711 40.0198 166.306 39.7904 166.93 39.7163C166.617 40.6753 163.709 43.2813 163.459 43.5732C163.379 43.6443 163.331 43.7437 163.324 43.85C163.318 43.9564 163.353 44.0611 163.422 44.1417C163.492 44.2223 163.591 44.2723 163.697 44.281C163.803 44.2897 163.908 44.2564 163.99 44.1882C165.147 43.4376 167.17 41.6864 167.868 41.947C168.566 42.2076 166.492 44.1465 165.971 44.6051C162.979 47.2007 163.751 45.5329 160.29 49.0561C158.783 47.406 157.054 45.9744 155.151 44.8032L157.548 43.2917ZM112.256 93.1494C112.079 91.7109 111.86 90.1577 111.589 88.542L112.037 87.9478C114.122 85.2689 114.748 81.0055 114.55 77.6594C115.665 82.5482 116.551 87.3537 117.228 92.1278L112.256 93.1494ZM96.7559 57.4578C94.0144 55.3731 89.6051 51.7768 87.0408 49.3167L91.2104 47.232C95.0391 50.8082 98.3165 54.9323 100.936 59.4697C104.941 66.8272 107.912 74.702 109.765 82.8714L94.9004 61.8463L96.8393 57.8227C96.8649 57.7607 96.8707 57.6923 96.8558 57.627C96.8408 57.5616 96.8059 57.5025 96.7559 57.4578ZM103.802 45.6371C103.865 45.7518 104.584 47.2841 105.679 49.963C105.679 50.0777 105.481 52.6837 105.387 53.601C104.057 53.0736 102.802 52.3726 101.655 51.5162C101.884 50.6093 102.916 46.4919 102.989 45.5641L103.802 45.6371ZM100.102 56.8324C100.175 56.6448 100.248 56.3946 100.331 56.1027L101.03 56.4676C101.426 56.7282 101.269 55.9359 101.624 58.2292C101.624 58.6149 101.728 59.0423 101.749 59.5114C101.269 58.6462 100.675 57.7184 100.112 56.8324H100.102ZM99.5182 55.9568C97.5489 53.1635 95.3072 50.5727 92.8261 48.2222L100.675 51.6309C100.373 52.3501 99.9352 54.5496 99.5287 55.9568H99.5182ZM107.534 62.0652C106.492 59.2195 105.689 56.0402 105.293 55.2063C105.317 54.9462 105.317 54.6845 105.293 54.4245C105.444 54.4806 105.602 54.5157 105.762 54.5287C105.863 54.5299 105.96 54.4946 106.037 54.4295C106.114 54.3643 106.164 54.2737 106.179 54.1743C106.263 53.8303 106.398 52.0895 106.419 51.7038C109.451 59.3597 111.983 67.2046 113.997 75.189C108.108 62.6594 109.014 66.2869 107.545 62.0652H107.534ZM116.155 81.9645C113.778 70.5712 109.598 56.3633 104.845 45.8352C106.59 45.8361 108.333 45.9755 110.057 46.2521C110.943 54.1743 110.203 53.9033 110.797 54.216C111.391 54.5287 114.966 55.9672 115.498 56.1861C115.446 56.9888 116.197 79.9423 116.165 81.9645H116.155ZM104.157 27.2701C104.7 28.456 104.892 29.7729 104.709 31.0644C104.624 31.3932 104.45 31.6919 104.206 31.9274C103.961 32.1629 103.656 32.3259 103.324 32.3983C102.992 32.4706 102.647 32.4496 102.327 32.3374C102.006 32.2252 101.723 32.0263 101.509 31.7628C101.012 30.7151 100.638 29.6132 100.394 28.4793C100.675 28.1145 103.677 27.3848 104.157 27.2701ZM89.8135 37.6941C89.4327 37.5207 89.043 37.3676 88.6461 37.2354C88.3796 37.1259 88.1418 36.9568 87.9508 36.7412C87.7598 36.5255 87.6208 36.269 87.5443 35.9912C87.4678 35.7135 87.4559 35.4219 87.5096 35.1389C87.5633 34.8559 87.681 34.5889 87.8538 34.3584C88.5105 33.8059 89.1047 33.8372 89.6468 34.6607C89.9907 35.2966 89.9803 35.3487 90.1367 35.4112C90.1815 35.431 90.2301 35.4409 90.2791 35.4404C90.3281 35.4399 90.3765 35.4289 90.4209 35.4082C90.4653 35.3874 90.5048 35.3574 90.5366 35.3202C90.5685 35.283 90.5921 35.2394 90.6058 35.1923C90.7603 34.5398 90.7851 33.8634 90.6787 33.2013C90.5536 32.4821 90.5328 29.2924 90.5536 29.1881C90.8581 29.3486 91.2002 29.4242 91.5439 29.407C93.4306 29.3341 93.8059 28.3646 94.5564 27.5724C95.4216 27.6558 95.5988 28.0728 96.5787 27.5724C97.0375 27.3114 97.4584 26.9888 97.8295 26.6134C98.1291 26.7361 98.4185 26.8825 98.6947 27.0512C99.3195 27.3517 100.024 27.4439 100.705 27.3145C101.386 27.185 102.008 26.8407 102.479 26.332C102.593 26.5509 102.698 26.7698 102.791 26.9991C101.833 27.2963 100.932 27.7508 100.123 28.3438C99.9456 28.5627 100.206 29.751 100.269 30.0325C99.3955 30.1423 98.5506 30.4146 97.7774 30.8351C97.6211 30.2931 97.2771 29.2819 96.735 29.0005C96.572 28.9506 96.3977 28.9506 96.2347 29.0005C95.2965 29.1464 91.9296 30.1576 91.5231 30.71C91.1687 31.0957 92.1798 34.077 92.4925 34.5669C93.6912 36.4223 97.2041 35.8803 97.8608 33.7121C98.0234 32.9845 98.0234 32.2299 97.8608 31.5022C98.1631 31.5022 99.07 31.1791 99.1742 31.1478C99.8935 32.7635 100.102 32.8574 100.936 34.5982C100.821 34.692 100.634 34.8483 100.477 34.9526C99.7371 35.4425 99.5808 35.3591 99.6225 35.5676C99.6346 35.609 99.6614 35.6445 99.6979 35.6675C99.7343 35.6905 99.7779 35.6995 99.8205 35.6927C100.258 35.6302 100.685 35.511 101.092 35.3383C101.336 35.2474 101.536 35.069 101.655 34.8379C101.947 34.1812 100.331 31.7107 99.6954 30.9706C99.8205 30.9706 100.112 30.7621 100.331 30.6475C100.623 31.815 100.821 32.7323 101.947 33.1909C102.272 33.3138 102.619 33.3697 102.967 33.3554C103.314 33.341 103.655 33.2567 103.969 33.1075C104.136 34.9421 104.105 37.9234 103.229 39.5495C102.781 40.3939 101.676 40.717 100.967 41.4154C100.759 41.6135 100.894 41.8949 100.967 42.1972C102.124 45.4182 102.145 45.4078 102.083 45.8247C101.776 47.5553 101.347 49.2621 100.8 50.9325C100.54 50.8178 97.6106 49.2646 91.8775 47.0339C91.7003 45.856 90.7517 39.5704 90.4494 38.4133C90.4703 38.0068 90.4181 37.913 89.8135 37.6419V37.6941ZM97.1103 33.4411C96.7767 34.5773 95.2027 35.0672 94.0769 34.7545C92.9511 34.4418 92.8782 33.8685 92.3466 32.5134C92.0974 31.9957 91.9253 31.4443 91.8358 30.8768C92.1798 30.5015 95.9428 29.7302 96.4119 29.6572C97.0698 30.7827 97.3167 32.1017 97.1103 33.389V33.4411ZM56.3214 96.0264C55.9253 96.4121 56.457 97.6734 56.5403 98.7679C56.5403 98.8617 56.5403 99.2682 56.4778 99.2995C55.9045 99.4871 55.3729 98.622 55.0497 98.1008C54.7266 97.5796 54.4034 96.8707 53.8927 97.0584C52.8503 97.5483 50.4319 100.759 49.4833 101.092C49.0038 100.175 51.7453 97.5587 51.8392 97.4128C51.8794 97.3458 51.9004 97.269 51.9001 97.1909C51.8997 97.1127 51.8779 97.0361 51.8371 96.9695C51.7962 96.9029 51.7379 96.8487 51.6684 96.8129C51.599 96.7771 51.521 96.7611 51.443 96.7665C51.2554 96.7665 51.1303 96.9333 50.8384 97.1939C49.9507 98.0603 48.9346 98.7846 47.8259 99.3412C48.8311 98.1881 49.9068 97.0984 51.0469 96.0785C51.1032 96.0206 51.1429 95.9486 51.1616 95.87C51.1616 95.87 50.9427 95.3176 50.5153 95.5365C49.9107 95.87 46.9712 97.5691 46.0434 98.0069C45.9184 97.9236 45.9913 97.7985 46.0434 97.6734C47.5132 95.87 50.7446 93.681 52.7252 92.2946C52.9576 92.0553 53.1511 91.7809 53.2985 91.4816C54.6702 92.7578 56.1334 93.9319 57.6766 94.9944C57.2012 95.3061 56.7483 95.651 56.3214 96.0264ZM80.5779 105.502C80.3486 105.356 80.1818 105.22 80.1506 105.033C79.5772 100.78 82.767 76.6796 82.7148 75.731C82.7149 75.6754 82.7037 75.6203 82.6821 75.569C82.6605 75.5177 82.6289 75.4713 82.5891 75.4324C82.5492 75.3936 82.502 75.3631 82.4502 75.3427C82.3984 75.3224 82.3431 75.3126 82.2875 75.314C81.7558 75.314 82.694 75.314 69.4139 88.0312C68.5383 88.8547 61.8461 95.255 60.7308 95.6824C59.1984 95.5677 53.434 90.9708 52.4959 89.5219C54.3096 85.8526 76.3041 55.6649 83.9136 51.0471C84.4973 50.6927 85.498 50.1402 86.5925 49.5565C86.971 49.9135 87.379 50.2377 87.8122 50.5259C90.2305 52.8192 93.5974 55.6753 96.1513 57.8227L94.1603 61.7733C94.1301 61.8256 94.1142 61.885 94.1142 61.9453C94.1142 62.0057 94.1301 62.065 94.1603 62.1173C110.328 85.3106 110.088 85.05 110.192 85.05C111.229 90.4095 111.873 95.8373 112.121 101.29C112.121 102.76 112.121 102.635 112.183 102.531C112.246 102.427 112.183 102.604 112.183 102.604C109.661 105.356 84.6954 107.92 80.5779 105.502ZM138.201 70.9673C133.479 71.624 128.142 70.6441 127.11 70.6024C126.537 67.8236 125.394 65.1936 123.754 62.8783C123.729 62.8445 123.692 62.8215 123.651 62.8138C123.609 62.806 123.567 62.8142 123.531 62.8366C123.496 62.8589 123.47 62.8939 123.459 62.9345C123.448 62.9751 123.453 63.0183 123.472 63.0555C124.077 64.2855 126.099 69.5913 126.6 70.8839C126.443 71.3842 131.311 91.5128 129.935 94.2231C128.705 96.6727 121.544 99.7582 118.959 100.644C118.448 94.8411 117.613 89.0711 116.457 83.3613C116.812 80.3592 116.353 62.5134 116.217 55.9151C116.213 55.8384 116.188 55.7645 116.144 55.7017C116.099 55.639 116.038 55.5901 115.967 55.5607L111.287 53.5906C111.266 51.1134 111.109 48.6392 110.818 46.1791C122.503 48.2014 136.117 54.8831 137.253 54.8936C138.9 54.8936 151.138 45.512 153.671 45.1368C154.796 44.9595 159.633 49.1812 160.196 50.3487C155.255 57.2494 146.572 66.3182 142.548 69.4558C141.252 70.3225 139.756 70.8428 138.201 70.9673Z" fill="#1F1F1F"/>
<path d="M96.0367 31.3563C96.0236 31.2878 95.9973 31.2226 95.9591 31.1644C95.9209 31.1061 95.8716 31.0559 95.814 31.0167C95.7564 30.9775 95.6916 30.9501 95.6234 30.9359C95.5552 30.9217 95.4849 30.9211 95.4164 30.9341C95.348 30.9471 95.2828 30.9735 95.2245 31.0117C95.1663 31.0499 95.1161 31.0992 95.0769 31.1568C95.0377 31.2144 95.0102 31.2791 94.996 31.3473C94.9819 31.4156 94.9813 31.4859 94.9943 31.5543C95.2027 32.5967 95.2444 32.8365 95.7031 32.8365C95.7898 32.8368 95.8752 32.8155 95.9515 32.7744C96.0279 32.7334 96.0929 32.674 96.1405 32.6015C96.1881 32.5291 96.2169 32.4459 96.2242 32.3595C96.2316 32.2731 96.2173 32.1863 96.1826 32.1068C96.1513 31.94 96.0575 31.4501 96.0367 31.3563ZM99.2264 38.2569C99.9039 38.455 100.55 38.1318 100.529 37.9651C100.509 37.7983 100.529 37.8817 99.6121 37.5377C98.997 37.3084 98.3195 36.4953 98.0797 36.6204C97.84 36.7455 98.2048 37.4126 98.2882 37.5377C98.5112 37.876 98.8417 38.1294 99.2264 38.2569ZM118.292 28.3542C116.926 34.0769 115.926 38.9345 115.759 39.9039C115.648 40.3257 115.627 40.766 115.696 41.1965C116.249 42.3744 123.389 44.6989 124.296 44.2403C125.203 43.7816 127.559 38.4758 130.3 33.0033C131.98 33.0569 133.66 32.9347 135.314 32.6384C137.056 32.3189 138.75 31.7832 140.359 31.0436C143.883 29.4174 147.739 22.4542 148.261 18.9518C148.651 15.1492 147.846 11.3194 145.957 7.99625C137.211 -7.17058 111.558 0.991362 113.643 17.8364C114.238 21.6909 115.842 25.3195 118.292 28.3542ZM124.65 40.7691C124.65 40.9359 124.463 40.915 123.608 40.7691C121.86 40.5494 120.167 40.0087 118.615 39.1742C117.885 38.7781 117.687 38.6947 117.76 38.5175C117.833 38.3403 117.989 38.4029 119.115 38.7156C119.219 38.7156 122.451 39.758 123.379 40.0811C124.577 40.6232 124.65 40.6232 124.65 40.7691ZM124.463 23.8094C125.576 23.8671 126.685 23.6373 127.684 23.1422C128.612 23.5919 129.616 23.8641 130.644 23.9449C128.893 27.2076 125.338 33.858 124.192 37.4022L119.772 36.1826C120.814 33.6183 123.118 27.6141 124.442 23.8094H124.463ZM124.098 22.9442C123.32 22.8266 122.602 22.4571 122.054 21.8922C121.506 21.3273 121.158 20.5983 121.065 19.817C120.773 17.7322 122.107 15.3972 124.119 15.9497C125.38 16.2937 125.536 17.2944 125.317 18.5557C125.13 19.473 124.452 21.7767 124.077 22.9025L124.098 22.9442ZM126.933 20.4424C127.045 19.7603 127.3 19.1099 127.684 18.5348C127.866 18.2214 128.133 17.9653 128.453 17.7958C128.774 17.6262 129.136 17.5501 129.497 17.5758C130.269 17.8052 130.602 19.2645 129.967 20.1818C129.355 20.9928 128.595 21.6792 127.725 22.2041C127.426 22.0285 127.188 21.7656 127.043 21.4507C126.897 21.1358 126.852 20.7839 126.912 20.4424H126.933ZM117.354 7.1936C122.024 1.5751 130.811 -0.655619 137.159 1.65849C140.608 2.84228 143.508 5.23918 145.321 8.40278C147.118 11.5649 147.887 15.208 147.52 18.8267C147.041 22.0686 143.351 28.8024 140.109 30.293C137.145 31.645 133.911 32.3011 130.655 32.211C130.3 32.211 129.925 32.211 129.789 32.4612C129.174 33.7121 128.049 36.1304 126.944 38.4029C126.181 38.0344 125.389 37.7277 124.577 37.4856C125.787 34.0248 129.602 27.2284 131.415 23.9344C132.987 24.0691 134.567 23.7962 136.002 23.1422C136.39 22.9381 136.711 22.6276 136.929 22.2472C137.146 21.8667 137.251 21.4321 137.23 20.9944C137.209 20.5567 137.064 20.1339 136.811 19.7758C136.559 19.4177 136.209 19.1391 135.804 18.9726C134.188 18.1804 132.739 20.0776 131.895 21.6724C131.666 22.0894 131.405 22.5793 131.113 23.1318C130.27 23.0764 129.439 22.9045 128.643 22.621C129.435 22.0639 130.139 21.389 130.728 20.6196C131.058 20.1212 131.225 19.5327 131.206 18.9352C131.187 18.3377 130.984 17.7608 130.623 17.284C130.34 16.9551 129.947 16.7408 129.517 16.6813C129.087 16.6218 128.65 16.7212 128.288 16.9608C127.558 17.4094 126.973 18.0591 126.603 18.832C126.234 19.6049 126.095 20.4681 126.204 21.318C126.317 21.7978 126.575 22.2309 126.944 22.5585C126.26 22.8417 125.526 22.9835 124.786 22.9754C125.203 21.7454 125.88 19.5251 126.058 18.6182C126.169 18.1012 126.193 17.5693 126.131 17.0442C126.05 16.5934 125.841 16.1756 125.528 15.8408C125.216 15.5061 124.813 15.2688 124.369 15.1575C121.836 14.4382 119.97 17.2423 120.335 19.8587C120.438 20.7963 120.84 21.6758 121.482 22.3667C122.125 23.0577 122.972 23.5233 123.9 23.6947C122.566 27.4473 120.481 33.5036 119.438 36.0888L117.145 35.4946C118.615 28.1144 118.792 28.2916 118.584 28.1978C116.215 25.178 114.7 21.5784 114.195 17.7739C113.949 15.8874 114.104 13.9704 114.648 12.1475C115.192 10.3246 116.114 8.63666 117.354 7.1936ZM131.822 23.1943C132.552 21.8705 134.011 18.9726 135.429 19.6815C135.712 19.7957 135.959 19.9852 136.143 20.2296C136.327 20.4739 136.44 20.7638 136.471 21.0679C136.45 22.9025 133.594 23.2256 131.78 23.1943H131.822ZM171.725 27.7913C172.981 27.0525 174.465 26.8003 175.894 27.0825C177.465 27.1106 178.965 27.7385 180.087 28.8375C181.21 29.9365 181.869 31.4233 181.93 32.9928C180.985 32.4449 179.881 32.2387 178.803 32.4091C176.186 32.6384 172.767 34.0561 173.226 36.5787C173.601 38.6635 176.353 38.382 178.438 37.8191C180.523 37.2562 182.18 36.2347 182.607 34.2229C185.14 36.0679 185.735 39.2993 185.839 42.4578C185.839 42.502 185.856 42.5444 185.888 42.5757C185.919 42.607 185.961 42.6246 186.006 42.6246C186.05 42.6246 186.092 42.607 186.124 42.5757C186.155 42.5444 186.172 42.502 186.172 42.4578C186.245 38.9241 185.61 35.4633 182.722 33.4515C182.752 32.5465 182.598 31.6448 182.269 30.8012C181.94 29.9575 181.443 29.1893 180.809 28.5432C180.174 27.8971 179.415 27.3865 178.578 27.0422C177.74 26.6979 176.842 26.5272 175.936 26.5404C174.489 26.3291 173.014 26.6316 171.767 27.3952C171.381 27.5828 171.558 27.8643 171.725 27.7913ZM181.231 35.2653C180.054 36.808 176.718 37.6106 175.175 37.35C174.602 37.2562 174.133 37.0165 174.008 36.4223C173.632 34.3375 177.229 33.2013 179.376 33.1284C180.25 33.0613 181.123 33.2848 181.857 33.7642C181.778 34.3092 181.563 34.8255 181.231 35.2653ZM166.951 15.6057C168.066 14.2298 167.316 11.8323 164.199 11.8218C162.99 11.8218 162.406 13.0519 162.489 14.2298C162.677 17.0338 165.835 16.9504 166.951 15.6057ZM163.219 14.1776C163.219 13.4897 163.542 12.5932 164.261 12.6036C165.94 12.6036 166.711 13.3854 166.711 14.2506C166.669 16.2207 163.083 17.2423 163.219 14.1776ZM162.792 132.354C153.629 128.695 149.376 146.405 141.892 161.624C141.844 162.264 141.865 162.907 141.954 163.542C141.954 165.137 142.131 175.696 143.059 176.895C143.309 177.375 144.362 176.895 144.852 176.593C149.013 174.017 152.934 171.073 156.568 167.795C156.599 167.76 156.623 167.718 156.637 167.674C156.651 167.629 156.656 167.581 156.652 167.535C158.591 164.772 165.856 150.387 167.618 143.174C168.848 138.066 167.628 134.261 162.792 132.354ZM166.065 145.592C161.159 144.964 156.417 143.415 152.086 141.027C154.525 136.409 157.538 131.145 162.51 133.125C168.045 135.325 167.931 139.88 166.065 145.561V145.592ZM148.719 172.694C148.399 172.426 148.049 172.195 147.677 172.006C146.268 171.29 144.641 171.134 143.122 171.569C143.017 170.328 142.423 162.26 142.423 162.187C150.231 165.043 147.823 163.803 155.557 167.649C154.744 168.421 151.69 170.557 148.719 172.674V172.694ZM154.098 142.528C155.115 143.083 156.158 143.587 157.225 144.039C154.836 147.792 152.725 151.715 150.908 155.776C149.157 159.435 149.22 159.414 147.437 163.407C146.395 163.073 145.352 162.76 144.31 162.448C145.436 160.207 153.441 143.82 154.098 142.507V142.528ZM147.844 163.511C151.231 157.434 154.682 149.876 157.642 144.175C158.684 144.612 159.727 144.967 160.769 145.279C160.217 146.322 158.601 149.095 158.174 149.897C157.746 150.7 153.462 159.143 153.16 159.79C152.68 160.832 151.367 163.74 150.96 164.668C149.897 164.199 148.876 163.844 147.802 163.49L147.844 163.511ZM151.336 164.803C151.971 163.646 154.588 158.789 154.911 158.163C155.401 157.194 160.863 146.03 161.165 145.384C162.124 145.655 163.135 145.884 163.782 146.009C161.874 151.221 156.381 161.259 154.4 166.211C152.597 165.366 152.19 165.158 151.294 164.783L151.336 164.803ZM151.971 141.329L153.837 142.371C150.077 148.775 146.802 155.451 144.039 162.343L142.475 161.864C148.532 148.959 148.813 147.27 151.93 141.308L151.971 141.329ZM156.266 167.118L154.692 166.367C156.391 163.031 161.707 154.473 164.136 146.082C164.72 146.186 165.293 146.28 165.846 146.353C163.167 153.501 159.951 160.435 156.224 167.097L156.266 167.118ZM123.608 173.883C124.023 173.539 124.32 173.073 124.457 172.551C124.593 172.029 124.563 171.478 124.369 170.974C124.28 170.248 123.947 169.574 123.425 169.062C122.902 168.55 122.22 168.232 121.492 168.159C120.764 168.086 120.033 168.263 119.419 168.661C118.805 169.059 118.345 169.655 118.115 170.349C116.78 169.484 115.331 168.567 113.945 167.691C114.987 166.305 118.052 166.92 118.365 168.056C118.372 168.1 118.396 168.14 118.432 168.166C118.468 168.192 118.513 168.203 118.558 168.196C118.602 168.19 118.641 168.165 118.668 168.129C118.694 168.093 118.705 168.048 118.698 168.004C118.542 166.19 114.768 165.127 113.247 167.264C111.902 166.44 110.234 165.439 108.837 164.678C110.036 163.636 112.715 164.22 113.007 165.304C113.021 165.341 113.047 165.372 113.081 165.391C113.116 165.411 113.156 165.417 113.195 165.41C113.234 165.402 113.269 165.381 113.293 165.35C113.318 165.319 113.331 165.281 113.33 165.241C113.194 163.553 109.702 162.416 108.118 164.272C107.454 163.9 106.756 163.593 106.033 163.355C105.901 163.3 105.756 163.284 105.615 163.31C105.475 163.336 105.345 163.402 105.241 163.501C102.604 166.784 93.7121 175.311 89.6051 176.301C89.5018 176.317 89.4045 176.359 89.3229 176.424C89.2413 176.489 89.1783 176.575 89.1402 176.672C89.1022 176.769 89.0904 176.875 89.1062 176.978C89.1219 177.081 89.1645 177.179 89.2298 177.26C90.1317 178.175 91.1645 178.952 92.2945 179.564C91.2521 180.606 90.439 181.544 89.8344 182.222C89.5217 182.555 89.3549 188.935 89.6259 190.342C89.6663 190.48 89.7552 190.598 89.8761 190.676C91.1895 191.572 108.108 198.89 109.838 197.91C110.995 197.253 124.807 182.879 125.026 182.441C125.359 181.753 125.245 177.166 125.224 175.332C125.14 174.779 124.108 174.185 123.608 173.883ZM90.2514 187.653V185.328C94.5773 187.413 104.48 191.666 108.233 192.854C109.192 193.167 109.275 193.125 109.775 192.854C112.642 191.02 122.764 179.616 124.619 177.875V180.075C118.99 185.714 109.431 195.596 109.254 195.033C108.222 194.97 91.1478 188.07 90.2514 187.653ZM123.347 170.37C123.722 171.001 123.923 171.72 123.931 172.455C123.927 172.688 123.87 172.918 123.763 173.126C123.657 173.334 123.504 173.514 123.316 173.653C122.44 173.07 120.783 171.986 118.823 170.714C119.897 168.598 122.284 168.567 123.306 170.37H123.347ZM89.9908 177.041C94.4314 175.728 102.864 167.597 105.7 164.074C106.382 164.264 107.04 164.533 107.659 164.876C106.617 166.815 107.732 168.942 108.128 168.639C108.347 168.473 107.951 168.41 107.889 167.389C107.862 166.642 108.031 165.902 108.379 165.241C109.817 165.992 111.506 166.972 112.934 167.795C112.058 169.744 113.111 171.673 113.476 171.391C113.841 171.11 113.309 171.173 113.247 170.151C113.221 169.481 113.349 168.814 113.622 168.202C115.092 169.067 116.593 169.963 117.969 170.808C117.757 171.327 117.672 171.89 117.723 172.449C117.774 173.007 117.958 173.546 118.26 174.018C118.274 174.036 118.291 174.051 118.311 174.062C118.33 174.073 118.352 174.081 118.374 174.084C118.396 174.086 118.419 174.085 118.44 174.079C118.462 174.073 118.482 174.063 118.5 174.05C118.518 174.036 118.533 174.019 118.544 173.999C118.555 173.98 118.563 173.958 118.566 173.936C118.568 173.914 118.567 173.891 118.561 173.87C118.555 173.848 118.545 173.828 118.531 173.81C118.344 173.396 118.252 172.945 118.261 172.49C118.27 172.036 118.38 171.589 118.584 171.183C121.012 172.663 122.972 173.904 123.577 174.31C123.462 174.414 112.59 184.088 108.889 186.965C106.461 186.329 93.7121 180.002 89.9908 177.041ZM90.3869 182.847C95.1089 184.932 105.835 189.769 108.306 190.238C108.733 190.321 108.9 190.353 109.713 189.706C113.184 186.923 124.473 175.113 124.577 175.238C124.582 175.269 124.582 175.301 124.577 175.332V177.416C122.253 179.282 109.327 192.854 109.119 192.208C108.076 192.208 91.1374 185.297 90.2722 184.911C90.2514 184.473 90.3452 183.306 90.3869 182.847ZM109.369 197.212C108.326 197.806 92.4508 191.353 90.3243 190.04C90.2445 189.376 90.2062 188.707 90.2097 188.038C94.7754 190.29 108.055 195.898 109.275 195.846C111.058 195.752 123.66 181.565 124.557 180.575C124.567 181.107 124.514 181.639 124.4 182.159C124.223 182.503 110.057 196.826 109.369 197.212ZM23.0066 138.452C23.0795 139.567 23.1316 140.537 23.1316 141.443C23.1316 141.582 23.1866 141.714 23.2843 141.812C23.382 141.91 23.5146 141.965 23.6528 141.965C23.7911 141.965 23.9236 141.91 24.0214 141.812C24.1191 141.714 24.174 141.582 24.174 141.443C24.174 140.474 24.1219 139.515 24.049 138.379C24.0393 138.241 23.9751 138.112 23.8705 138.021C23.7659 137.93 23.6295 137.884 23.4913 137.894C23.353 137.904 23.2243 137.968 23.1334 138.073C23.0425 138.177 22.9969 138.314 23.0066 138.452ZM181.836 117.552C181.768 117.556 181.701 117.573 181.64 117.603C181.579 117.633 181.524 117.675 181.48 117.727C181.435 117.778 181.401 117.838 181.38 117.903C181.359 117.968 181.351 118.036 181.357 118.104C181.419 119.063 181.482 120.095 181.482 121.096C181.482 121.234 181.537 121.367 181.634 121.464C181.732 121.562 181.865 121.617 182.003 121.617C182.141 121.617 182.274 121.562 182.371 121.464C182.469 121.367 182.524 121.234 182.524 121.096C182.524 120.054 182.461 119.011 182.389 118.031C182.385 117.963 182.367 117.897 182.337 117.835C182.307 117.774 182.265 117.72 182.213 117.675C182.162 117.63 182.102 117.596 182.037 117.575C181.972 117.554 181.904 117.546 181.836 117.552ZM20.3068 135.856C20.445 135.856 20.5776 135.801 20.6753 135.704C20.773 135.606 20.828 135.473 20.828 135.335C20.828 135.197 20.773 135.064 20.6753 134.966C20.5776 134.869 20.445 134.814 20.3068 134.814C19.0455 134.814 17.9926 134.908 16.9503 134.887C16.811 134.887 16.6774 134.941 16.578 135.039C16.4786 135.136 16.4214 135.269 16.4186 135.408C16.4186 135.546 16.4735 135.679 16.5713 135.777C16.669 135.874 16.8016 135.929 16.9398 135.929C18.0135 135.95 19.1914 135.908 20.3068 135.856ZM178.605 114.466C177.354 114.466 176.301 114.539 175.248 114.55C175.11 114.55 174.977 114.605 174.88 114.702C174.782 114.8 174.727 114.933 174.727 115.071C174.727 115.209 174.782 115.342 174.88 115.439C174.977 115.537 175.11 115.592 175.248 115.592C176.374 115.592 177.541 115.592 178.667 115.509C178.805 115.5 178.935 115.438 179.027 115.334C179.118 115.23 179.165 115.094 179.157 114.956C179.149 114.818 179.086 114.689 178.982 114.597C178.879 114.505 178.743 114.458 178.605 114.466ZM22.7251 129.414C22.7877 130.373 22.8502 131.405 22.8502 132.406C22.8529 132.543 22.9086 132.674 23.0058 132.771C23.103 132.869 23.234 132.924 23.3714 132.927C23.5096 132.927 23.6422 132.872 23.7399 132.774C23.8377 132.677 23.8926 132.544 23.8926 132.406C23.8926 131.364 23.8301 130.321 23.7675 129.341C23.7578 129.203 23.6936 129.074 23.5891 128.983C23.4845 128.893 23.3481 128.847 23.2098 128.857C23.0716 128.866 22.9429 128.93 22.852 129.035C22.7611 129.14 22.7154 129.276 22.7251 129.414ZM182.243 112.058C182.243 111.016 182.18 109.974 182.107 108.994C182.097 108.856 182.033 108.727 181.929 108.636C181.824 108.545 181.688 108.499 181.549 108.509C181.411 108.519 181.282 108.583 181.192 108.687C181.101 108.792 181.055 108.928 181.065 109.067C181.127 110.026 181.19 111.058 181.19 112.058C181.19 112.197 181.245 112.329 181.342 112.427C181.44 112.525 181.573 112.58 181.711 112.58C181.85 112.58 181.984 112.525 182.083 112.428C182.183 112.33 182.24 112.198 182.243 112.058ZM30.418 135.721C30.4864 135.718 30.5537 135.702 30.6159 135.673C30.6781 135.644 30.7341 135.604 30.7805 135.553C30.827 135.503 30.8631 135.444 30.8867 135.38C30.9104 135.315 30.9211 135.247 30.9183 135.179C30.9078 135.042 30.8461 134.915 30.7455 134.822C30.645 134.729 30.5131 134.678 30.3763 134.678C29.115 134.73 28.0622 134.772 27.0094 134.751C26.8711 134.751 26.7386 134.806 26.6408 134.904C26.5431 135.002 26.4882 135.134 26.4882 135.272C26.4882 135.411 26.5431 135.543 26.6408 135.641C26.7386 135.739 26.8711 135.794 27.0094 135.794C28.1247 135.815 29.2922 135.773 30.418 135.721ZM188.716 114.331C187.673 114.383 186.516 114.414 185.359 114.414C185.291 114.411 185.222 114.423 185.157 114.447C185.093 114.471 185.034 114.509 184.985 114.556C184.935 114.604 184.895 114.661 184.868 114.725C184.842 114.788 184.828 114.856 184.828 114.925C184.828 115.064 184.882 115.198 184.98 115.297C185.077 115.397 185.21 115.454 185.349 115.457C186.537 115.457 187.496 115.457 188.758 115.373C188.826 115.371 188.893 115.354 188.955 115.326C189.018 115.297 189.074 115.256 189.12 115.206C189.167 115.156 189.203 115.097 189.226 115.032C189.25 114.968 189.261 114.9 189.258 114.831C189.245 114.696 189.183 114.57 189.083 114.477C188.983 114.385 188.852 114.333 188.716 114.331ZM6.46378 104.835C6.59929 104.939 35.9948 100.582 37.2561 99.8103C37.3259 99.7593 37.3817 99.6914 37.4182 99.613C37.4546 99.5347 37.4706 99.4483 37.4646 99.362C37.4646 98.0173 35.7029 85.394 34.8586 82.2459C34.7543 81.8602 34.6501 81.4746 34.4103 81.3391C32.8155 80.3801 4.71256 85.6754 3.0343 86.7595C2.98882 86.7864 2.94952 86.8225 2.91899 86.8657C2.88845 86.9088 2.86736 86.9578 2.8571 87.0097C2.50268 88.271 5.55689 104.209 6.46378 104.835ZM3.49296 87.2598C5.49435 86.353 31.0017 81.683 33.9204 82.0479C34.6292 83.8721 36.5264 97.2356 36.6515 99.1953C35.2026 99.6226 6.85989 104.491 6.75565 104.511C6.65141 104.532 6.64098 104.657 6.42208 104.001C5.50477 101.249 3.44084 89.6157 3.49296 87.2598Z" fill="#1F1F1F"/>
<path d="M39.5493 100.738C39.6061 100.633 39.6314 100.513 39.6223 100.394C39.6223 98.7366 37.2457 80.3383 36.4013 78.8686C36.3351 78.7602 36.2414 78.6713 36.1297 78.6109C36.0181 78.5505 35.8924 78.5207 35.7655 78.5246C32.2734 78.0972 2.8154 83.8512 0.876547 85.1959C0.605525 85.3835 0.64722 85.8526 0.678492 86.353C0.845275 89.0944 3.80567 107.128 4.84807 107.024C4.96273 107.024 4.92103 106.94 4.65001 107.493C3.02388 110.839 -0.0616071 121.555 0.000936508 123.712C0.000936508 124.619 0.209415 125.797 1.10587 125.735C7.53744 124.942 39.0698 119.939 48.1387 118.073C48.4931 118 48.7224 117.677 48.712 117.145C48.605 116.26 48.3365 115.401 47.9198 114.612C46.648 112.225 41.3735 102.771 39.5493 100.738ZM4.91061 106.7C4.09754 105.658 1.10587 87.6976 1.3352 85.7067C3.62847 84.5183 32.6904 78.8998 35.7342 79.3585C36.5681 81.6518 38.7259 98.2154 38.8614 100.206C35.1713 101.478 9.62223 105.606 4.91061 106.7ZM5.36926 107.013C6.24487 106.794 36.0677 101.801 38.7988 101.082C40.2894 102.468 47.0233 114.445 47.4611 115.467C41.4778 116.509 5.98427 122.441 0.761883 123.233C0.834851 120.074 4.07669 109.035 5.36926 107.013Z" fill="#1F1F1F"/>
<path d="M9.28864 117.823C10.1955 117.687 29.4381 115.373 36.3909 113.486C36.4337 113.475 36.4704 113.448 36.4929 113.41C36.5154 113.372 36.5218 113.326 36.5107 113.283C36.4997 113.24 36.4721 113.204 36.4339 113.181C36.3958 113.159 36.3503 113.152 36.3075 113.163C34.9419 113.445 18.2845 115.665 9.26779 117.5C9.24288 117.495 9.21728 117.496 9.19292 117.503C9.16857 117.51 9.1461 117.523 9.12721 117.539C9.10833 117.556 9.09353 117.577 9.08394 117.601C9.07434 117.624 9.0702 117.649 9.07183 117.675C9.07346 117.7 9.08082 117.724 9.09334 117.746C9.10587 117.768 9.12323 117.787 9.14413 117.801C9.16502 117.816 9.18889 117.825 9.21392 117.829C9.23896 117.833 9.26451 117.83 9.28864 117.823ZM23.3505 45.2931C22.9611 46.1725 22.6337 47.0781 22.3707 48.0033C22.3552 48.1517 22.3961 48.3006 22.4853 48.4202C23.5382 50.0047 34.3269 62.1694 37.1414 63.8789C37.5271 64.1187 37.9857 64.2855 38.2672 63.9415C40.3117 61.3975 42.9799 59.426 46.0122 58.2187C48.4802 57.3456 51.0677 56.8569 53.6842 56.7698C55.769 56.5822 56.1338 56.3737 56.9365 55.0082C57.8833 53.2111 59.1395 51.595 60.6474 50.234C62.5701 48.5529 64.7042 47.1301 66.9956 46.0019C67.0987 45.9434 67.1793 45.8522 67.2247 45.7426C67.27 45.6331 67.2774 45.5115 67.2457 45.3973C66.8933 44.5006 66.4274 43.6529 65.8593 42.8747C66.2346 42.7496 66.6516 42.635 66.6516 42.2597C66.6516 41.2173 57.5619 28.0623 55.0393 25.5814C54.7787 25.3208 54.4034 24.9768 54.0594 24.9977C48.8475 25.2895 43.771 30.2096 40.8315 34.5043C37.4645 34.3792 35.2859 34.0769 31.4499 35.6926C28.7419 36.8421 26.3003 38.5384 24.2783 40.6753C23.9655 40.9984 21.8391 43.25 21.8078 43.4272C21.7765 43.6044 21.8391 43.6044 23.3505 45.2931ZM65.0463 45.0012C60.6995 45.7413 57.9267 49.3584 55.8836 53.2882C54.9767 55.0394 55.0601 55.1228 54.1011 55.102C52.4242 55.007 50.742 55.0698 49.0768 55.2896C47.8554 55.4722 46.6546 55.7724 45.491 56.1861C42.8433 57.1242 39.8099 60.1263 38.1942 62.357C38.1599 62.4029 38.1163 62.441 38.0662 62.4689C38.0161 62.4967 37.9607 62.5136 37.9036 62.5186C37.8465 62.5235 37.789 62.5163 37.7349 62.4974C37.6808 62.4786 37.6313 62.4485 37.5896 62.4092C34.2018 58.9171 28.2081 52.7879 25.1956 49.2646C25.0496 49.1082 25.2998 48.8789 25.4457 49.0457C27.395 51.1305 32.4298 56.1235 37.8294 61.5544C39.6536 59.2299 42.468 56.4154 45.2512 55.4356C46.7689 54.8942 48.3481 54.544 49.9524 54.3932C51.4548 54.2791 52.9636 54.2791 54.466 54.3932C55.081 53.6843 58.1248 45.6371 65.0254 44.7406C65.0456 44.7554 65.0622 44.7746 65.074 44.7967C65.0858 44.8189 65.0924 44.8433 65.0934 44.8684C65.0944 44.8934 65.0897 44.9184 65.0798 44.9414C65.0698 44.9644 65.0548 44.9848 65.0358 45.0012H65.0463ZM54.049 25.842C56.1338 27.3014 64.6189 39.8622 65.7238 42.0616C63.8065 42.6691 61.9556 43.4689 60.1991 44.4487C58.5359 45.2825 57.0795 46.4769 55.9363 47.9447C54.793 49.4126 53.9916 51.117 53.5904 52.9338C49.8482 46.8462 44.6258 40.1436 41.1546 35.2131C41.3631 35.0776 47.2213 26.2485 54.049 25.842ZM31.6793 36.2659C35.484 34.7336 37.5896 35.088 40.7377 35.2235C43.8648 40.5606 49.4833 48.0867 53.1838 53.0172C49.7684 52.209 46.1743 52.7033 43.1039 54.4036C41.2589 55.446 39.0073 57.9477 37.6209 59.5009C35.6195 57.8956 24.0698 45.5954 22.2143 43.5106C25.0705 40.2792 27.7077 37.8504 31.6793 36.2242V36.2659ZM12.6035 62.774C12.3458 62.5932 12.0412 62.4911 11.7267 62.4799C11.4121 62.4688 11.1011 62.5493 10.8314 62.7115C10.6349 62.7991 10.4577 62.9245 10.3097 63.0806C10.1618 63.2367 10.046 63.4205 9.96907 63.6213C9.89212 63.8222 9.85548 64.0362 9.86125 64.2512C9.86701 64.4662 9.91507 64.678 10.0027 64.8744C10.0903 65.0709 10.2157 65.2481 10.3718 65.3961C10.528 65.544 10.7117 65.6598 10.9125 65.7367C11.1134 65.8137 11.3274 65.8503 11.5424 65.8446C11.7574 65.8388 11.9692 65.7907 12.1656 65.7031C12.4795 65.6345 12.765 65.4721 12.9844 65.2375C13.2038 65.0029 13.3467 64.7072 13.3942 64.3895C13.4417 64.0718 13.3915 63.7472 13.2503 63.4587C13.1091 63.1701 12.8835 62.9314 12.6035 62.774ZM11.9155 64.8588C11.1858 65.0881 10.748 64.8588 10.5708 64.5044C10.2372 63.7643 10.6542 62.6281 11.7383 62.9616C12.4992 63.2431 13.1142 64.5252 11.9155 64.9109V64.8588ZM65.6092 15.0741C65.9115 15.6891 67.3187 15.4598 67.9337 15.2617C68.2568 15.1575 68.4653 15.0428 68.4966 14.7301C68.5904 13.9483 68.6947 7.17273 68.3402 6.51602C68.3036 6.44716 68.2475 6.39065 68.1789 6.35356C68.1103 6.31647 68.0322 6.30046 67.9546 6.30754C66.8424 6.30446 65.7359 6.46604 64.671 6.78705C64.2436 7.04764 65.2339 14.3861 65.6092 15.0741ZM64.8899 7.03722C65.8528 6.89947 66.8267 6.85409 67.7982 6.90171C67.8607 7.67308 67.6939 14.3548 67.6835 14.4591C67.2431 14.6169 66.7729 14.6739 66.3076 14.6258C66.2346 14.3861 66.1095 13.7398 65.9532 12.9267C65.4938 10.984 65.1389 9.01797 64.8899 7.03722ZM11.5923 53.9762C11.6923 54.0274 11.8031 54.0541 11.9155 54.0541C12.0278 54.0541 12.1386 54.0274 12.2386 53.9762C12.6413 53.7278 12.9607 53.3648 13.1559 52.9338C13.1824 52.8648 13.1906 52.7902 13.1796 52.7171C13.1687 52.644 13.139 52.575 13.0934 52.5168C12.593 51.9227 7.13089 45.5954 6.46375 45.9915C5.64466 46.5217 4.86752 47.1142 4.13922 47.7635C4.10986 47.7898 4.08635 47.8219 4.07019 47.8578C4.05403 47.8937 4.04558 47.9326 4.0454 47.972C4.02455 48.5141 10.0913 53.3716 11.5923 53.9762ZM6.58884 46.2625C7.34979 46.815 9.91408 49.9838 12.2907 52.7879C12.1885 52.9489 12.0619 53.093 11.9155 53.2153C9.41672 51.616 7.03095 49.8467 4.77508 47.9199C5.34059 47.3261 5.94664 46.7723 6.58884 46.2625ZM22.9648 23.2673C23.1942 19.2228 25.55 17.3465 28.01 16.867C27.3116 19.4313 27.4263 22.7669 29.9593 23.1943C31.1685 23.3924 31.7626 22.7669 32.6383 22.0373C36.3805 18.9101 33.3575 15.7829 29.1358 16.0018C30.7098 11.6863 34.3478 8.17343 39.1741 8.05877C39.2183 8.05877 39.2607 8.04119 39.292 8.00992C39.3233 7.97864 39.3408 7.93622 39.3408 7.89198C39.3408 7.84775 39.3233 7.80533 39.292 7.77405C39.2607 7.74277 39.2183 7.7252 39.1741 7.7252C33.9621 7.62096 29.8655 11.3736 28.2498 16.0643C25.4666 16.5438 22.7042 18.6286 22.6313 23.2047C22.6272 23.2266 22.6274 23.2491 22.632 23.271C22.6366 23.2928 22.6454 23.3134 22.658 23.3318C22.6706 23.3502 22.6867 23.366 22.7053 23.3781C22.724 23.3903 22.7449 23.3987 22.7668 23.4028C22.7887 23.4069 22.8112 23.4067 22.833 23.4021C22.8548 23.3975 22.8755 23.3886 22.8939 23.3761C22.9123 23.3635 22.928 23.3474 22.9402 23.3287C22.9524 23.3101 22.9607 23.2892 22.9648 23.2673ZM28.8961 16.7419C30.4492 16.6377 32.7633 17.1172 33.3992 18.5244C33.764 19.327 33.3992 20.3173 32.1066 21.4014C31.7557 21.753 31.3554 22.0514 30.9183 22.2874C29.3547 22.9546 27.6243 21.0261 28.8961 16.7419ZM31.8773 164.168C30.8702 163.898 29.8193 163.832 28.7865 163.975C27.7537 164.117 26.7598 164.465 25.8633 164.997C24.9668 165.529 24.1858 166.235 23.5663 167.074C22.9468 167.913 22.5013 168.867 22.256 169.88C21.7929 171.985 22.1851 174.188 23.3463 176.004C24.5075 177.82 26.3426 179.101 28.4478 179.564C30.5531 180.027 32.756 179.635 34.5721 178.473C36.3882 177.312 37.6686 175.477 38.1317 173.372C38.3295 172.357 38.3243 171.312 38.1166 170.299C37.9088 169.285 37.5025 168.323 36.9211 167.467C36.3397 166.612 35.5947 165.88 34.729 165.313C33.8634 164.747 32.8942 164.358 31.8773 164.168ZM35.0983 172.663C34.6801 174.331 33.6788 175.795 32.2755 176.789C30.8722 177.783 29.1595 178.242 27.4471 178.084C25.8752 177.469 24.5702 176.32 23.7618 174.839C22.9534 173.358 22.6933 171.638 23.0274 169.984C23.4174 168.276 24.4094 166.764 25.822 165.727C27.2345 164.69 28.9732 164.195 30.7203 164.334C32.3077 164.99 33.6129 166.185 34.4061 167.709C35.1993 169.232 35.4297 170.987 35.0566 172.663H35.0983Z" fill="#1F1F1F"/>
<path d="M45.762 167.139C44.8545 166.825 43.882 166.75 42.9371 166.92C42.5455 166.022 42.0635 165.166 41.4986 164.366C42.1762 163.751 44.0316 162.041 43.5834 161.239C41.9882 159.331 40.0943 157.694 37.9753 156.391C37.0905 155.896 36.1162 155.58 35.1087 155.464C34.4416 155.558 32.8572 158.153 32.5028 158.737C32.2734 158.737 31.4604 158.476 31.3978 158.445C31.3978 157.694 31.1789 154.984 30.5014 154.672C29.7437 154.393 28.9569 154.2 28.156 154.098C27.4159 153.984 20.755 155.203 20.2651 156.1C19.9419 156.704 20.6924 158.987 20.9113 159.623C20.3492 159.932 19.8093 160.281 19.2956 160.665C18.2532 161.405 18.5347 161.374 18.347 161.291C18.1203 161.182 17.8773 161.112 17.6278 161.082C16.7951 160.594 15.8188 160.41 14.8655 160.561C13.9065 160.874 11.6445 166.023 11.2796 167.347C11.1602 167.681 11.1279 168.04 11.1858 168.389C11.436 169.077 13.1038 169.63 13.8022 169.849C13.6093 171.19 13.6093 172.552 13.8022 173.893C12.8849 174.143 10.9773 174.706 11.0816 175.644C11.1858 176.583 13.625 182.774 14.6361 183.264C15.19 183.574 15.8025 183.765 16.4344 183.824C17.0663 183.883 17.7035 183.81 18.3054 183.608C18.6443 183.439 18.9716 183.248 19.2852 183.035C19.7022 183.348 20.14 183.629 20.5882 183.9C20.2651 184.703 19.5458 186.496 19.7751 187.309C19.8898 187.736 20.2338 187.872 20.7133 188.049C22.0371 188.528 29.1671 190.238 30.2512 190.05C30.6577 189.988 30.8766 189.56 31.0017 189.154C31.2333 188.229 31.3695 187.282 31.4082 186.329C31.9436 186.276 32.4759 186.196 33.0031 186.089C33.3251 186.656 33.737 187.166 34.2227 187.601C34.7543 187.976 35.2026 187.788 35.8071 187.403C36.099 187.778 36.5368 188.299 37.0059 188.351C38.1838 188.487 43.0518 183.9 43.5521 182.962C43.9691 182.18 42.4472 180.783 41.7696 180.168C42.5026 179.065 43.078 177.866 43.4792 176.603C44.231 176.717 44.9919 176.759 45.7516 176.729C46.0956 176.729 46.4917 176.603 46.6376 176.28C47.2735 174.831 47.0858 169.338 46.6376 167.941C46.5751 167.535 46.106 167.264 45.762 167.139ZM46.0122 168.098C46.3666 169.453 46.4812 174.571 45.9601 175.895C45.0588 175.983 44.1494 175.941 43.2603 175.77C43.1653 175.753 43.0677 175.773 42.9867 175.825C42.9057 175.877 42.8471 175.958 42.8224 176.051C42.4073 177.46 41.7628 178.792 40.9149 179.991C40.8545 180.071 40.8272 180.171 40.8389 180.27C40.8506 180.369 40.9002 180.46 40.9774 180.523C41.7088 181.102 42.3302 181.809 42.812 182.608C42.2908 183.462 38.2151 187.194 37.0893 187.507C36.9225 187.507 36.4638 186.881 36.3492 186.715C35.9641 186.136 35.616 185.534 35.3068 184.911C35.2617 184.821 35.1843 184.75 35.0898 184.713C34.9953 184.677 34.8905 184.677 34.796 184.713C31.7731 185.85 30.6264 185.182 30.6264 185.933C30.6278 187.057 30.4447 188.173 30.0844 189.237C27.6347 188.971 25.2223 188.433 22.8919 187.632C23.0044 186.519 23.3151 185.435 23.8092 184.432C24.1219 183.733 22.871 183.932 20.5361 181.555C20.4609 181.485 20.3623 181.447 20.2598 181.447C20.1574 181.447 20.0588 181.485 19.9836 181.555C18.9412 182.41 17.5861 183.244 17.3151 183.108C16.7835 182.847 14.3338 177.291 14.1879 176.166C14.9293 175.649 15.771 175.294 16.6584 175.123C16.753 175.097 16.8347 175.036 16.8884 174.954C16.9421 174.872 16.964 174.772 16.9502 174.675C16.6948 173.199 16.6948 171.69 16.9502 170.214C16.9662 170.123 16.9471 170.029 16.8968 169.952C16.8465 169.874 16.7687 169.819 16.6792 169.797C15.8934 169.591 15.1368 169.286 14.4276 168.89C14.1983 168.723 14.2192 168.733 14.24 168.556C14.9147 166.123 15.9967 163.821 17.4402 161.749C18.0031 161.593 19.525 162.708 20.0462 163.104C20.1006 163.157 20.1735 163.187 20.2494 163.187C20.3253 163.187 20.3982 163.157 20.4527 163.104C20.9316 162.608 21.4474 162.148 21.9954 161.729C23.5799 160.53 24.0072 160.686 23.8717 160.269C23.3925 159.223 23.1234 158.094 23.0795 156.944C23.2411 156.81 23.4244 156.704 23.6216 156.631C24.5947 156.246 25.5946 155.933 26.6132 155.693C27.8479 155.349 29.117 155.143 30.3971 155.078C30.616 155.172 30.8141 156.12 30.8662 156.412C31.2519 158.497 30.9913 158.924 31.2936 158.956C34.2644 159.248 34.869 160.071 35.0775 159.706C35.6555 158.696 36.3292 157.743 37.0893 156.861C37.3082 156.642 37.2978 156.537 37.9545 156.913C39.9164 158.195 41.6735 159.766 43.1664 161.572C43.3228 161.843 41.9677 163.282 40.9774 164.126C40.6334 164.428 41.1233 164.564 42.0198 166.273C42.9163 167.983 42.7078 168.462 43.1873 168.358C44.1116 168.137 45.0629 168.049 46.0122 168.098ZM190.686 80.9951C188.501 80.1026 186.209 79.4965 183.869 79.1918C182.159 78.9208 180.147 78.6498 178.448 78.4309C180.085 76.1167 184.932 70.2585 185.745 68.8304C185.974 68.4447 185.537 67.9027 185.213 67.5795C183.4 65.6407 179.897 64.911 177.208 64.4941C175.665 64.2439 169.223 63.4517 168.129 63.9729C166.815 64.5983 157.1 79.1918 156.808 81.4121C156.808 81.7874 156.933 81.9333 157.298 82.0688C158.83 82.6317 165.741 83.5073 167.284 83.8722C165.199 87.5205 155.933 99.852 155.026 101.593C154.807 102.031 154.942 102.291 155.203 102.375C156.141 102.747 157.106 103.047 158.09 103.271C158.466 103.386 159.289 102.875 160.488 102.145C165.867 98.9139 188.945 83.6741 190.717 81.704C190.766 81.6577 190.805 81.6015 190.83 81.5391C190.855 81.4767 190.867 81.4096 190.864 81.3424C190.861 81.2752 190.843 81.2094 190.813 81.1494C190.782 81.0895 190.739 81.0369 190.686 80.9951ZM168.285 93.5039C159.425 99.3517 156.433 101.061 156.329 101.134C157.757 98.9556 166.628 86.8013 168.149 83.893C168.176 83.8368 168.19 83.7754 168.189 83.7133C168.189 83.6512 168.175 83.59 168.148 83.534C168.121 83.4781 168.082 83.4289 168.033 83.39C167.985 83.3511 167.928 83.3235 167.868 83.3093C166.826 82.934 159.237 82.1209 157.444 81.4851C157.673 79.5462 167.138 64.8902 168.285 64.3064C169.432 63.7227 180.554 65.0465 182.639 66.5371C181.544 68.6741 175.498 76.1584 174.518 77.8992C174.32 78.2537 174.258 78.5976 174.644 78.6915C175.029 78.7853 184.828 79.9319 186.965 80.6303C184.359 82.8089 171.204 91.5442 168.285 93.4622V93.5039ZM101.415 29.7719C101.415 29.8657 101.478 29.9804 101.634 30.585C101.675 30.7161 101.766 30.8263 101.886 30.8924C102.007 30.9585 102.148 30.9753 102.281 30.9394C102.413 30.9007 102.525 30.8109 102.592 30.6897C102.658 30.5685 102.674 30.4258 102.635 30.2931C102.531 29.8866 102.437 29.5426 102.374 29.3758C102.314 29.2613 102.212 29.1736 102.091 29.1297C101.969 29.0858 101.835 29.0889 101.715 29.1384C101.595 29.1878 101.498 29.2801 101.443 29.3973C101.387 29.5144 101.378 29.648 101.415 29.7719Z" fill="#1F1F1F"/>
</svg>
