<svg width="197" height="165" viewBox="0 0 197 165" fill="none" xmlns="http://www.w3.org/2000/svg">
<rect x="56" y="31" width="22" height="21" rx="6" fill="#FFD600"/>
<path d="M131.72 99.2278H131.657H131.72ZM45.1899 129.456C45.5837 129.518 47.7391 129.622 47.7391 129.249C47.7391 129.031 47.3454 129.042 47.3454 129.042C47.3972 127.384 49.5008 126.969 51.0034 127.84C51.4176 128.078 51.8005 128.367 52.1434 128.7C50.019 128.814 47.2003 130.264 47.3868 132.368C47.4939 132.917 47.7239 133.434 48.0596 133.881C48.3952 134.328 48.8277 134.693 49.3247 134.949C49.9458 135.413 50.6534 135.75 51.4059 135.939C52.1585 136.127 52.9412 136.164 53.7081 136.047C55.0742 135.699 56.2761 134.885 57.1072 133.746C58.9855 133.806 60.8232 133.192 62.2886 132.016C62.3504 131.967 62.4016 131.906 62.439 131.836C62.4765 131.767 62.4993 131.69 62.5062 131.612C62.5062 131.249 62.5062 131.27 60.4336 128.969C60.375 128.904 60.3014 128.853 60.2192 128.822C60.137 128.791 60.0485 128.78 59.9612 128.79C59.8739 128.8 59.7903 128.831 59.7174 128.88C59.6445 128.93 59.5845 128.996 59.5424 129.073C59.5067 129.118 59.4754 129.167 59.4492 129.218C59.2846 129.527 59.0185 129.77 58.6957 129.906C58.373 130.042 58.0132 130.062 57.6771 129.964C56.6408 129.663 55.304 126.917 52.8688 125.28C50.7444 123.85 47.8946 123.425 45.8842 125.125C45.0189 125.867 44.4038 126.859 44.1225 127.964C44.0106 128.305 44.0329 128.675 44.1847 129C44.4569 129.264 44.8121 129.425 45.1899 129.456ZM49.0863 133.301C48.8022 133.098 48.605 132.795 48.5339 132.453C48.4629 132.112 48.5232 131.756 48.7029 131.456C49.1624 130.821 49.8011 130.338 50.5371 130.068C49.9434 131.074 49.4571 132.141 49.0863 133.249V133.301ZM58.8481 131.663C59.0968 130.917 58.8481 131.176 59.2626 130.99C59.5767 130.833 59.8608 130.623 60.102 130.368L61.045 131.487C60.2641 131.982 59.4007 132.333 58.4958 132.524C58.5994 132.254 58.7652 131.84 58.8481 131.612V131.663ZM55.0968 129.021C56.0812 130.254 56.8999 131.353 58.4025 131.228C58.1881 131.674 58.0147 132.139 57.8844 132.617C57.1279 132.669 57.0243 132.493 56.7237 132.617C56.1331 132.845 55.1589 134.969 52.7962 134.959C52.9433 134.63 53.0377 134.281 53.076 133.923C53.7446 133.788 54.3704 133.492 54.8999 133.062C55.1268 132.866 55.2742 132.593 55.3144 132.296C55.3144 131.933 55.19 131.467 54.4232 130.855C54.7089 130.25 54.9345 129.618 55.0968 128.969V129.021ZM51.6149 132.938C50.7029 132.451 52.2573 131.591 53.2625 131.622C53.4935 131.624 53.7192 131.691 53.9136 131.816C54.108 131.94 54.2631 132.118 54.361 132.327C54.2226 132.55 54.0401 132.742 53.8247 132.892C53.6093 133.042 53.3656 133.146 53.1085 133.198C52.8514 133.251 52.5863 133.25 52.3295 133.196C52.0727 133.143 51.8295 133.037 51.6149 132.886V132.938ZM52.8377 126.596C53.5414 127.194 54.1804 127.865 54.7444 128.596C54.4165 129.194 54.1658 129.831 53.9983 130.492C53.5628 130.367 53.1063 130.333 52.6571 130.392C52.2078 130.451 51.7755 130.602 51.3869 130.834C49.4905 131.871 49.9361 134.14 52.5682 133.881C52.4135 134.179 52.2986 134.496 52.2263 134.824C51.1754 134.615 50.1927 134.148 49.3661 133.467C50.1007 132.325 50.6727 131.087 51.0656 129.788C51.4685 129.603 51.9043 129.5 52.3474 129.486C52.7905 129.472 53.232 129.546 53.646 129.705L53.8636 128.886L53.6356 128.783C53.1486 128.451 52.9309 128.192 52.3713 127.746C52.579 127.368 52.7358 126.964 52.8377 126.544V126.596ZM48.8169 124.938C50.1137 124.962 51.3694 125.397 52.4024 126.182C52.2169 126.604 52.0779 127.045 51.9879 127.498C51.4912 127.108 50.9052 126.848 50.2828 126.741C49.6605 126.634 49.0213 126.684 48.4231 126.886C48.6418 126.258 48.7742 125.602 48.8169 124.938ZM46.4438 125.746C47.0183 125.299 47.7087 125.026 48.4335 124.959C48.1119 125.655 47.9121 126.402 47.8428 127.166C47.534 127.351 47.2813 127.617 47.1116 127.934C46.9419 128.252 46.8615 128.61 46.879 128.969C46.153 129.009 45.4264 128.9 44.7443 128.648C44.8984 127.497 45.502 126.454 46.4231 125.746H46.4438ZM30.9617 124.016C29.0964 123.207 24.9513 125.601 24.1948 126.886C24.0853 127.17 24.0853 127.484 24.1948 127.767C24.8476 130.244 30.941 138.99 32.0705 140.348C32.2674 140.596 32.5369 140.254 32.3607 139.964C31.8218 139.073 31.884 140.866 34.6405 131.943C34.8959 131.843 35.1337 131.703 35.3452 131.529C35.4413 131.422 35.4945 131.284 35.4945 131.14C35.4945 130.997 35.4413 130.858 35.3452 130.752C35.2511 130.635 35.1432 130.531 35.0239 130.441L35.6768 128.026L38.2675 129.456C37.7436 130.766 37.3614 132.128 37.1276 133.518C36.0828 133.895 35.1036 134.434 34.226 135.114C33.6146 135.788 34.5783 137.031 35.1794 137.778C35.7804 138.524 36.2882 139.031 36.4022 139.145C36.5162 139.259 36.8789 139.145 36.8478 138.959C36.782 138.809 36.6947 138.669 36.5887 138.544C36.0272 137.67 35.5451 136.748 35.1483 135.788C35.9537 135.306 36.804 134.903 37.6872 134.586C38.0084 134.472 39.0033 134.161 39.2727 134.327C40.6022 135.027 41.9889 135.613 43.4178 136.078C43.4756 136.106 43.5418 136.109 43.6021 136.088C43.6623 136.066 43.7116 136.022 43.7391 135.964C43.7666 135.906 43.77 135.84 43.7486 135.78C43.7273 135.72 43.6828 135.67 43.6251 135.643L41.8323 134.555C42.214 133.689 42.4587 132.77 42.5577 131.829L46.9827 134.223C47.2521 134.379 47.4594 133.954 47.2625 133.84C47.0656 133.726 33.6353 125.187 30.9617 124.016ZM29.3866 125.114C29.7482 125.006 30.1337 125.006 30.4954 125.114C30.7337 125.218 31.314 125.529 32.1016 125.964C31.836 126.697 31.6552 127.459 31.5627 128.233C30.8684 127.84 30.4539 127.539 29.9047 127.632C29.6053 127.699 29.3253 127.834 29.086 128.026C29.1897 127.218 29.2829 126.596 29.3866 125.114ZM25.2414 127.394C26.3162 126.369 27.62 125.616 29.0446 125.197C28.4915 127.641 28.1038 130.12 27.8839 132.617C26.839 130.962 25.9574 129.209 25.2518 127.384L25.2414 127.394ZM29.9461 136.109C29.3762 135.166 28.7544 134.119 28.1637 133.094C28.5161 131.612 28.6301 130.928 28.8477 129.529C29.4147 130.512 30.0703 131.442 30.8063 132.306C30.3885 133.54 30.1036 134.815 29.9565 136.109H29.9461ZM31.7596 139.094C31.3866 138.503 30.9099 137.705 30.2881 136.679C30.6815 135.379 30.9419 134.042 31.0653 132.689C31.2933 133.239 33.3244 132.451 33.8737 132.244C33.4695 133.518 32.0602 137.954 31.77 139.094H31.7596ZM31.4488 132.368C30.8066 131.257 30.2388 130.104 29.7493 128.917L30.0705 128.741C30.2156 128.824 33.7597 130.917 34.0187 131.083C33.2111 131.597 32.3535 132.027 31.4591 132.368H31.4488ZM34.5576 130.088C33.7804 129.57 32.7234 128.938 31.9151 128.472C32.1916 127.738 32.3728 126.972 32.454 126.192L35.397 127.85C35.3452 128.244 34.9929 129.052 34.6198 130.088H34.5576ZM41.4178 134.233L39.8219 133.27C39.1128 132.99 38.3238 132.99 37.6146 133.27C38.0163 132.058 38.3076 130.813 38.4851 129.549L42.2365 131.622C41.8532 132.467 41.5982 133.365 41.48 134.285L41.4178 134.233Z" fill="#1F1F1F"/>
<path d="M196.332 133.14C194.653 117.513 180.187 93.4814 171.544 80.3517C176.37 80.7377 181.213 80.8588 186.052 80.7144C187.43 80.7144 191.037 80.4657 191.731 80.331C192.135 80.2481 192.197 79.8646 191.586 79.8439C190.974 79.8232 186.622 79.6159 186.031 79.6056H175.492C173.876 79.6677 171.347 79.8128 171.202 79.8128C168.093 75.077 165.927 72.1132 165.907 72.1029C165.883 72.0787 165.854 72.0599 165.822 72.0478C165.791 72.0356 165.757 72.0304 165.723 72.0324C165.689 72.0344 165.656 72.0436 165.626 72.0594C165.596 72.0752 165.57 72.0972 165.549 72.124C165.528 72.1508 165.513 72.1817 165.505 72.2147C165.497 72.2477 165.497 72.282 165.503 72.3153C165.509 72.3486 165.523 72.3802 165.542 72.4079C165.562 72.4356 165.587 72.4588 165.617 72.4759C166.093 72.8594 187.036 103.461 193.441 124.539C195.98 132.902 197.482 143.399 189.296 146.301C169.855 153.244 17.5937 155.503 3.19967 147.337C1.19964 146.208 0.733315 143.855 1.1271 140.684C1.73851 136.28 4.1116 130.321 6.97175 123.648C10.1946 126.756 36.9307 151.306 41.2624 150.384C45.5941 149.461 69.9571 138.145 70.9623 135.979C71.5462 134.475 71.8551 132.878 71.8742 131.264C71.9969 131.096 72.0541 130.888 72.035 130.68C72.0159 130.472 71.922 130.278 71.7706 130.135C70.1644 128.539 38.2986 103.274 36.2468 103.347C34.8167 103.409 32.226 104.881 30.9928 105.606C30.593 104.952 29.9977 104.44 29.2911 104.142C28.5845 103.845 27.8023 103.777 27.0549 103.948C26.3503 104.232 25.7194 104.673 25.2096 105.237C24.6998 105.8 24.3245 106.472 24.1119 107.202C24.1235 107.258 24.1541 107.308 24.1984 107.344C24.2428 107.38 24.2982 107.4 24.3554 107.4C24.4126 107.4 24.4681 107.38 24.5124 107.344C24.5568 107.308 24.5873 107.258 24.5989 107.202C25.2222 106.148 26.2103 105.359 27.3762 104.984C27.8609 104.91 28.3569 104.974 28.8063 105.171C29.2557 105.367 29.6402 105.687 29.9151 106.093L18.3916 111.015C17.7797 110.386 17.0159 109.926 16.174 109.679C14.205 109.16 12.8786 110.456 12.091 112.352C12.0736 112.407 12.0757 112.466 12.0967 112.519C12.1177 112.572 12.1564 112.616 12.2063 112.644C12.2562 112.672 12.3143 112.682 12.3707 112.673C12.4271 112.663 12.4784 112.634 12.5159 112.59C13.8423 110.673 15.376 110.021 17.2102 111.554C14.9926 112.539 11.8941 113.938 9.7179 115.015C9.87334 114.767 32.2364 74.2687 32.2364 74.1651C33.2208 72.3412 35.2001 69.0769 37.2416 68.652C38.1643 68.4509 39.1056 68.3467 40.0499 68.3412C38.6095 70.7246 26.9202 90.1031 26.8995 92.8389C26.8995 95.9478 27.4384 95.4607 29.0964 95.9478C30.7545 96.4348 123.533 95.8649 123.699 95.8649C125.305 95.8649 131.585 95.6576 132.165 95.2327C133.968 93.9063 133.564 91.927 132.777 89.8441C132.59 89.3466 131.647 87.2844 130.383 84.5279C135.823 82.8906 139.917 84.9735 140.29 93.8545C140.663 101.533 137.637 103.875 131.844 103.544C127.191 103.274 123.979 101.906 122.963 103.72C121.823 105.741 124.973 110.28 126.341 112.166C126.144 112.166 117.471 111.989 115.284 111.896C112.203 111.777 109.118 111.815 106.041 112.01C103.921 112.057 101.814 112.345 99.7606 112.87C98.9834 113.254 97.9782 115.254 97.5534 116.093C96.714 117.741 92.8901 128.083 91.8331 131.067C91.2113 132.788 89.1076 138.487 90.517 139.492C90.4652 140.601 90.6413 142.083 91.6154 142.601C92.5896 143.119 105.978 143.492 107.004 143.513C108.818 143.565 127.15 143.803 138.849 143.285C150.549 142.767 155.658 141.648 155.357 141.679C155.654 141.592 155.921 141.423 156.128 141.192C156.335 140.962 156.474 140.678 156.528 140.373C156.688 139.607 156.638 138.812 156.383 138.073C157.689 135.534 147.813 114.456 145.077 112.974C144.916 112.883 144.734 112.833 144.549 112.829C144 112.829 131.709 112.311 126.932 112.155C125.896 110.694 122.528 105.191 123.823 104.02C125.792 102.3 142.238 110.922 141.357 93.7612C140.901 85.9994 137.326 81.4501 130.072 84.0823C129.44 82.7144 124.134 71.3775 122.714 68.3619C128.214 68.691 133.732 68.5696 139.212 67.9992C139.291 68.9663 139.569 69.9067 140.029 70.761C140.489 71.6153 141.121 72.3651 141.886 72.963C146.031 76.0718 162.528 75.6055 165.523 71.8023C166.362 70.6546 166.943 69.3385 167.223 67.9447C167.504 66.551 167.479 65.1128 167.15 63.7297C167.426 63.5543 167.64 63.297 167.762 62.9939C167.927 62.6727 167.762 62.2685 167.047 62.1234C166.124 61.9853 165.191 61.9298 164.259 61.9576C164.259 61.1079 164.311 59.5224 164.259 57.7192C164.352 57.6571 165.026 56.8488 165.098 56.7555C165.924 55.7904 166.576 54.6895 167.026 53.5016C167.368 52.5378 167.503 51.429 166.601 50.8901C165.212 50.1336 164.238 51.5223 163.772 53.0767C163.337 50.6829 162.331 47.1699 159.927 47.5222C155.844 48.144 158.663 58.0405 159.989 61.9576C158.824 61.7936 157.642 61.7936 156.476 61.9576C157.772 58.7037 158.435 54.4964 155.109 53.8643C154.604 53.7528 154.078 53.7915 153.596 53.9757C153.113 54.1598 152.695 54.4814 152.394 54.9005C152.327 54.666 152.202 54.4522 152.03 54.2791C151.858 54.1061 151.646 53.9795 151.412 53.9111C151.178 53.8428 150.93 53.8349 150.692 53.8884C150.454 53.9418 150.234 54.0547 150.052 54.2166C148.528 55.3151 149.399 57.8332 151.171 58.6623C151.077 59.7276 151.077 60.799 151.171 61.8644C150.068 61.7311 148.951 61.7555 147.855 61.9369C147.793 59.4066 147.516 56.8862 147.026 54.4031C147.655 53.9551 148.185 53.3811 148.581 52.7174C148.977 52.0538 149.231 51.3151 149.326 50.5481C149.471 49.1699 148.984 48.0196 147.834 47.7191C146.393 47.346 145.544 48.3512 145.295 49.7917C144.02 48.03 141.523 47.3978 140.31 49.4186C136.424 45.3771 134.549 47.6362 135.533 49.4186C136.269 50.7865 138.186 51.5533 139.678 51.9782C139.678 54.2995 140.715 56.2581 142 58.2581C142.86 59.6053 143.823 60.9006 144.57 61.854C142.957 61.8022 141.343 61.9063 139.751 62.1649C138.777 62.424 138.621 63.1286 139.523 63.6364C139.238 64.8511 139.133 66.1011 139.212 67.3463C133.645 67.0501 128.064 67.1818 122.517 67.7401C122.165 66.9836 121.118 64.7763 120.994 64.5173C120.87 64.2582 121.865 61.253 123.264 33.3147C129.689 32.7759 158.58 33.4184 161.233 32.3924C161.385 32.3378 161.52 32.2438 161.624 32.12C161.727 31.9962 161.797 31.847 161.824 31.6878C162.705 28.7965 163.306 3.94644 161.824 1.63553C161.461 1.06557 160.166 0.889405 159.451 0.785776C150.217 -0.561393 111.688 0.0189242 109.709 1.06557C107.73 2.11222 108.569 12.33 108.942 14.3611C88.9315 13.7186 42.7236 14.9725 38.3712 16.5995C37.3349 16.9725 36.9515 18.3922 36.7442 19.4596C35.024 28.3406 39.8531 56.9213 41.4697 65.7504C41.366 65.7504 41.4697 65.7504 40.2054 67.7194C39.1353 67.6401 38.0595 67.6958 37.0033 67.8852C34.6405 68.2479 32.4643 71.5122 31.2623 73.5433C31.2104 73.6469 28.1534 78.7247 27.6974 79.5537C25.0964 79.1496 13.0029 79.305 11.4692 79.3879C9.93552 79.4708 8.36037 79.5848 6.97175 79.6885C6.72304 79.6885 6.70231 80.1652 6.97175 80.1755C9.87334 80.3517 10.9407 80.4139 13.1895 80.445C18.6921 80.5279 26.8062 80.7558 27.0653 80.7247C26.5264 81.6678 18.547 95.8649 17.4797 97.8753C12.8371 106.58 9.18939 114.549 8.97178 115.223C7.76714 115.77 6.63573 116.467 5.60385 117.295C5.27102 118.208 5.07206 119.165 5.01317 120.135C4.96135 121.803 5.5624 122.207 6.48469 123.14C4.00994 128.442 1.97543 133.939 0.401704 139.575C-0.112058 141.855 -0.133257 144.219 0.339526 146.508C0.762647 148.796 1.55355 151.001 2.68153 153.037C3.18821 153.551 3.84481 153.892 4.5572 154.011C7.28263 154.778 15.7283 155.762 18.5574 156.083C18.3441 157.35 18.285 158.637 18.3812 159.918C18.384 161.237 18.576 162.549 18.9512 163.814C18.9546 163.845 18.9641 163.876 18.9793 163.903C18.9944 163.931 19.0148 163.955 19.0393 163.975C19.0639 163.995 19.092 164.009 19.1223 164.018C19.1525 164.027 19.1841 164.03 19.2154 164.026C19.2467 164.023 19.2771 164.014 19.3047 163.998C19.3323 163.983 19.3567 163.963 19.3764 163.938C19.3961 163.914 19.4108 163.886 19.4197 163.855C19.4285 163.825 19.4313 163.794 19.4279 163.762C19.5937 162.47 19.6388 161.166 19.5626 159.866C19.5558 158.614 19.4133 157.367 19.1377 156.146C20.5678 156.27 21.9461 156.374 23.1481 156.415C22.957 157.624 22.9048 158.852 22.9927 160.073C22.9962 161.392 23.1881 162.704 23.5627 163.969C23.5627 164.033 23.5878 164.093 23.6325 164.138C23.6772 164.183 23.7378 164.208 23.801 164.208C23.8642 164.208 23.9248 164.183 23.9695 164.138C24.0142 164.093 24.0394 164.033 24.0394 163.969C24.2107 162.678 24.2593 161.374 24.1844 160.073C24.1773 158.863 24.0383 157.657 23.7699 156.477C26.0808 156.529 60.0917 159.586 118.828 158.425C134.569 158.114 153.492 157.389 169.078 155.679C168.872 156.929 168.813 158.198 168.902 159.462C168.907 160.778 169.102 162.087 169.482 163.348C169.474 163.382 169.475 163.418 169.483 163.453C169.492 163.487 169.507 163.52 169.53 163.547C169.552 163.575 169.58 163.597 169.612 163.612C169.644 163.628 169.68 163.635 169.715 163.635C169.751 163.635 169.786 163.628 169.818 163.612C169.85 163.597 169.878 163.575 169.9 163.547C169.923 163.52 169.938 163.487 169.947 163.453C169.955 163.418 169.956 163.382 169.948 163.348C170.129 162.057 170.178 160.752 170.093 159.451C170.082 158.171 169.933 156.896 169.648 155.648C170.798 155.524 173.461 155.192 173.689 155.161C173.485 156.404 173.43 157.667 173.523 158.923C173.524 160.242 173.716 161.555 174.093 162.819C174.1 162.882 174.132 162.94 174.181 162.98C174.231 163.02 174.294 163.038 174.358 163.032C174.421 163.025 174.479 162.993 174.519 162.943C174.558 162.894 174.577 162.831 174.57 162.767C174.741 161.479 174.786 160.178 174.705 158.881C174.698 157.604 174.549 156.332 174.259 155.089C178.933 154.456 193.223 152.529 195.171 148.539C197.472 143.99 197.285 138.073 196.332 133.14ZM102.03 116.456C102.144 116.176 105.616 115.42 109.408 116.456C109.443 116.448 109.479 116.449 109.514 116.457C109.548 116.466 109.58 116.481 109.608 116.504C109.636 116.526 109.658 116.554 109.673 116.586C109.688 116.618 109.696 116.654 109.696 116.689C109.696 116.724 109.688 116.76 109.673 116.792C109.658 116.824 109.636 116.852 109.608 116.874C109.58 116.897 109.548 116.912 109.514 116.921C109.479 116.929 109.443 116.93 109.408 116.922C107.52 117.258 105.591 117.307 103.688 117.067C102.797 116.922 101.667 116.912 101.999 116.456H102.03ZM155.305 141.099C145.72 142.923 92.7657 142.508 91.9678 142.135C91.1698 141.762 91.0973 140.56 91.0766 139.772C96.8176 141.638 152.912 140.197 156.031 138.549C156.197 139.461 156.238 140.923 155.274 141.099H155.305ZM135.191 116.57C135.191 116.217 137.471 116.021 137.575 116.01C138.93 115.906 140.292 115.906 141.647 116.01C142.404 116.093 143.45 116.197 143.367 116.518C143.285 116.839 141.72 116.974 141.45 117.015C140.438 117.109 139.421 117.15 138.404 117.14C137.72 117.119 135.119 116.995 135.16 116.57H135.191ZM148.507 120.021C151.1 124.961 153.277 130.108 155.015 135.409C155.236 136.079 155.358 136.777 155.378 137.482C150.704 138.933 96.8383 140.425 91.3875 138.86C91.1284 138.788 91.0558 138.86 90.9937 138.425C90.5999 135.606 95.2114 124.404 96.2787 121.793C115.885 121.14 148.3 120.135 148.476 120.021H148.507ZM139.782 51.5119C138.648 50.8894 137.62 50.092 136.735 49.1492C136.331 48.5378 136.424 48.1129 137.616 48.6932C138.362 49.0352 139.409 49.6466 140.114 50.0715C139.932 50.5326 139.821 51.018 139.782 51.5119ZM164.653 53.3668C165.482 51.8746 166.3 51.4497 166.218 52.3306C165.772 53.9068 165.139 55.4237 164.332 56.8488C164.269 55.8125 164.197 55.1182 164.114 54.4342C164.155 54.2891 164.363 53.8539 164.622 53.3668H164.653ZM160.249 62.3825C160.456 62.9732 160.591 63.3255 160.601 63.3463C160.612 63.3756 160.629 63.4024 160.651 63.4251C160.673 63.4478 160.699 63.4659 160.728 63.4785C160.757 63.491 160.788 63.4977 160.82 63.4981C160.851 63.4985 160.883 63.4927 160.912 63.481C161.368 63.3048 160.694 62.8799 159.616 56.6311C159.295 54.7658 158.342 49.0145 160.228 48.745C161.762 48.517 162.591 52.3202 162.881 53.8228C163.418 56.7192 163.765 59.6479 163.917 62.5898C163.916 62.6472 163.936 62.7029 163.973 62.7467C164.01 62.7906 164.062 62.8196 164.119 62.8284C164.175 62.8372 164.233 62.8253 164.282 62.7948C164.331 62.7642 164.367 62.7172 164.383 62.6623C164.387 62.6036 164.387 62.5448 164.383 62.4861C165.32 62.5137 166.251 62.6423 167.161 62.8696C167.045 63.0047 166.899 63.1111 166.736 63.1805C164.559 64.2996 157.979 64.082 155.71 64.0406C156.021 63.4188 156.238 62.9421 156.476 62.3722C157.715 62.5757 158.978 62.5792 160.217 62.3825H160.249ZM152.166 60.113C152.404 58.0405 152.932 54.7347 155.026 55.1285C157.119 55.5223 156.59 58.5586 156.135 60.5897C155.853 61.755 155.507 62.9036 155.098 64.0302H151.989C151.964 62.7228 152.013 61.415 152.134 60.113H152.166ZM150.849 55.2425C150.898 55.1966 150.955 55.1613 151.018 55.1388C151.08 55.1164 151.147 55.1073 151.213 55.1122C151.28 55.1171 151.344 55.1358 151.403 55.1672C151.462 55.1985 151.513 55.2419 151.554 55.2943C151.719 55.4596 151.868 55.64 152 55.8332C151.705 56.494 151.5 57.191 151.388 57.9058C150.849 57.1596 150.155 55.8021 150.849 55.2425ZM147.585 48.9419C148.932 49.3668 147.875 52.9109 146.974 53.9886C146.725 52.8733 146.353 51.7889 145.865 50.7554C146.165 49.8435 146.673 48.6518 147.585 48.9315V48.9419ZM145.036 62.4965C145.544 63.139 145.875 63.5328 145.875 63.5328C145.916 63.5734 145.971 63.5977 146.029 63.6011C146.086 63.6045 146.143 63.5868 146.189 63.5513C146.235 63.5158 146.266 63.4649 146.277 63.4081C146.288 63.3513 146.278 63.2925 146.248 63.2426C146.248 63.2426 144.414 60.6312 142.901 57.9265C141.761 55.8539 140.673 53.7814 140.974 51.4912C141.212 49.688 142.165 48.9212 143.772 49.9678C146.093 51.4601 147.15 60.6623 147.482 63.4395C147.485 63.5122 147.51 63.5821 147.555 63.6396C147.599 63.6971 147.661 63.7395 147.73 63.7608C148.01 63.7608 147.969 63.4603 147.958 63.3152C147.948 63.1701 147.958 62.4447 147.958 62.3722C149.059 62.5114 150.173 62.5114 151.274 62.3722C151.337 63.1286 151.409 63.7193 151.461 64.0302C147.782 64.0302 143.336 64.2789 140.29 63.0872C141.856 62.7774 143.442 62.58 145.036 62.4965ZM140.072 64.0198C141.588 64.6073 143.185 64.9568 144.808 65.0561C146.642 65.2219 159.129 65.2427 160.549 65.1701C162.69 65.1349 164.809 64.7391 166.819 63.9991C167.011 65.2716 166.939 66.5702 166.605 67.8133C166.272 69.0564 165.685 70.2169 164.881 71.222C162.363 74.1754 146.435 74.849 142.611 72.1547C140.093 70.4241 139.637 66.9629 140.072 64.0095V64.0198ZM131.72 94.4452C131.937 95.1395 33.1276 95.1706 33.0239 95.1602C28.8788 95.1602 29.9151 95.1602 28.5265 94.8182C28.1534 94.7353 28.0809 94.7353 28.0083 94.3726C27.9204 93.8037 27.8961 93.2267 27.9358 92.6524C27.9575 92.6949 27.9926 92.7291 28.0357 92.7497C28.0787 92.7703 28.1274 92.7762 28.1741 92.7664C28.1741 92.7664 131.689 91.357 132.362 91.3363C132.642 92.5488 132.683 93.6783 131.72 94.4452ZM160.87 31.5531C160.87 31.5531 160.933 31.4494 160.953 31.4805C160.974 31.5116 160.87 31.5427 160.819 31.5531H160.87ZM109.336 5.41797C109.336 4.74438 109.605 2.19512 110.206 1.88424C111.574 1.20029 155.046 0.61997 160.984 2.47492C162.021 4.65112 161.689 29.0971 160.819 31.5531C155.72 32.351 130.062 32.2888 123.388 32.9728C123.792 24.8172 123.968 17.9466 123.637 16.6098C123.573 16.4355 123.469 16.2783 123.334 16.1507C123.2 16.023 123.037 15.9284 122.859 15.8741C120.59 14.8896 112.051 14.6098 109.564 14.5269C109.241 11.5018 109.165 8.45544 109.336 5.41797ZM37.6769 31.5116C37.5214 29.3354 36.7546 18.3508 38.8271 17.5839C39.8634 17.2212 43.5111 16.8585 48.8065 16.5477C58.9518 15.9155 74.9416 15.4077 89.4911 15.3041C92.7243 15.3041 120.041 15.0658 122.714 16.9C123.502 20.4855 120.984 60.3203 120.424 64.1649C95.9368 64.9629 66.9208 66.165 42.2261 65.5639C41.8116 63.1908 38.6406 44.8797 37.6769 31.5116ZM41.9049 66.2582C41.9069 66.2341 41.9069 66.2098 41.9049 66.1857C59.3663 66.7245 114.01 64.9318 120.662 64.8903C121.398 66.6002 131.73 89.5228 132.165 90.7974C132.051 90.7974 28.0912 92.2068 27.9565 92.3104C29.2622 87.9373 40.0603 69.45 41.9049 66.2582ZM70.3923 135.689C69.6255 137.182 46.392 147.565 41.6147 149.006C41.7074 148.528 41.7422 148.041 41.7184 147.555C48.7755 145.109 64.0917 138.653 70.9623 134.083C70.8314 134.641 70.6403 135.183 70.3923 135.7V135.689ZM71.1074 133.399C69.0348 134.622 67.0555 135.472 41.708 146.995C41.709 146.526 41.6462 146.059 41.5215 145.607C44.8376 144.052 67.3249 135.337 71.3354 131.865C71.2836 132.311 71.211 132.85 71.1074 133.409V133.399ZM17.7284 112.135C18.2267 112.722 18.5351 113.446 18.6128 114.212C18.6905 114.978 18.5339 115.75 18.1636 116.425C17.9978 116.684 18.3916 116.953 18.5574 116.684C19.183 116.002 19.5528 115.124 19.6039 114.2C19.6549 113.276 19.3839 112.363 18.8372 111.616C23.8735 109.305 28.827 107.129 30.1845 106.539C30.5241 107.229 30.7059 107.985 30.7167 108.754C30.7274 109.523 30.5669 110.285 30.2467 110.984C30.1223 111.316 30.4954 111.44 30.6716 111.223C31.2415 110.498 31.5962 109.628 31.6952 108.712C31.7941 107.796 31.6333 106.87 31.2312 106.041C32.3503 105.409 34.9618 103.969 36.2364 103.969C37.8323 103.969 70.2162 130.311 70.8172 130.912C68.1125 133.7 43.0034 143.638 40.8893 144.653C36.4333 143.617 9.24121 120.228 6.69195 117.824C8.27746 116.508 15.946 112.964 17.7284 112.135ZM5.90437 118.3C9.13758 121.461 36.1121 145.005 40.6303 145.752C40.5396 146.142 40.4978 146.542 40.5059 146.943C33.2519 143.399 12.5262 125.451 5.66603 119.679C5.69712 119.679 5.85256 118.663 5.93546 118.3H5.90437ZM6.05982 121.855C5.76751 121.41 5.6225 120.884 5.6453 120.352C12.4226 127.192 31.5524 144.011 40.4955 147.513C40.4771 148.067 40.5329 148.622 40.6614 149.161C35.3452 147.969 6.76449 122.705 6.09091 121.855H6.05982ZM194.664 148.197C187.969 161.482 6.30852 158.011 3.36548 152.829C2.11798 150.661 1.27525 148.284 0.878394 145.814C1.27816 146.689 1.9459 147.415 2.78516 147.886C18.0393 156.767 169.803 154.446 189.617 147.327C193.814 145.814 195.928 142.549 196.405 138C196.686 141.493 196.08 145.001 194.643 148.197H194.664Z" fill="#1F1F1F"/>
<path d="M39.4904 82.5022C112.766 83.5385 119.761 82.9063 121.813 82.5851C122.3 82.5125 122.611 82.3467 122.59 81.7768C122.59 80.2742 119.067 73.3829 118.134 72.9062C117.719 72.6886 43.5215 73.7352 43.2624 73.8181C43.2142 73.8297 43.1689 73.8515 43.1296 73.8818C43.0903 73.9122 43.0579 73.9505 43.0344 73.9943C42.3298 75.1445 38.8893 80.8234 39.0447 82.1084C39.0616 82.2156 39.1153 82.3136 39.1966 82.3855C39.278 82.4574 39.3819 82.4987 39.4904 82.5022ZM43.5629 74.5331C44.3091 74.4399 117.305 73.7145 117.751 73.7559C118.524 74.8688 119.217 76.0359 119.823 77.2482C118.124 77.2482 42.164 77.6523 41.7702 77.6627C42.2261 76.7508 42.8272 75.7145 43.5629 74.5331ZM41.4904 78.1601C41.8945 78.1601 118.756 77.7663 120.072 77.7353C120.754 79.005 121.292 80.3466 121.678 81.7353C117.989 82.326 84.3718 82.0358 39.8634 81.7353C40.2793 80.4801 40.8173 79.2688 41.4697 78.1187L41.4904 78.1601ZM96.6829 86.0255C96.4761 85.568 96.1384 85.182 95.7123 84.9164C95.2862 84.6507 94.7909 84.5174 94.2891 84.5333C91.6569 84.5333 69.553 83.9219 67.5633 84.7302C66.2931 86.2693 65.3102 88.0244 64.6617 89.9116C64.5995 90.3676 64.8275 90.5748 65.1073 90.6059C71.325 91.2795 91.9367 91.922 97.2839 90.9375C97.9471 90.8132 98.0301 90.1085 97.8953 89.4349C97.5745 88.2705 97.1693 87.131 96.6829 86.0255ZM65.3975 89.9116C65.9927 88.23 66.8007 86.6315 67.8016 85.1551C69.3768 84.6369 89.8641 85.7146 94.3202 85.7043C94.5854 85.6948 94.8478 85.7621 95.0758 85.8981C95.3037 86.0342 95.4876 86.2331 95.6051 86.4711C96.1089 87.5475 96.5012 88.6725 96.7761 89.8287C91.5222 90.6474 69.211 90.181 65.3975 89.9116ZM168.653 87.352C167.192 85.3416 159.865 85.4348 157.409 85.5074C155.337 85.5074 147.803 85.8494 147.803 87.8805C147.811 88.045 147.859 88.2051 147.942 88.3475C148.025 88.4899 148.141 88.6104 148.279 88.6991C148.476 88.8546 147.119 102.513 148.984 109.839C149.596 112.264 150.383 113.466 152.694 114.472C157.129 116.399 164.487 115.974 167.44 111.86C168.031 110.658 167.907 107.155 167.959 106.088C172.549 107 176.311 105.135 177.285 100.192C177.896 97.0101 177.109 94.9272 175.751 93.6629C174.844 92.9245 173.772 92.4164 172.626 92.1818C171.481 91.9473 170.295 91.9932 169.171 92.3158C169.132 92.329 169.09 92.3327 169.049 92.3264C169.008 92.3202 168.969 92.3042 168.936 92.2799C168.902 92.2555 168.875 92.2235 168.856 92.1864C168.838 92.1494 168.828 92.1085 168.829 92.0671C168.829 91.5178 169.026 87.7976 168.653 87.352ZM148.963 87.5696C151.761 85.9323 163.161 85.8079 166.839 87.4763C166.964 87.5385 167.43 87.7768 167.43 87.8805C167.43 87.9841 166.953 88.2328 166.839 88.2846C164.062 89.5385 154.145 90.1085 148.932 88.2017C148.57 88.0048 148.932 87.611 148.932 87.5696H148.963ZM169.461 93.3728C170.403 93.1014 171.396 93.0624 172.357 93.2591C173.317 93.4558 174.215 93.8824 174.974 94.5023C176.093 95.5386 176.653 97.321 176.135 99.9636C176.032 100.882 175.713 101.764 175.206 102.536C174.698 103.309 174.015 103.95 173.212 104.409C171.513 105.174 169.599 105.321 167.803 104.824C167.715 104.792 167.621 104.778 167.527 104.784C167.433 104.79 167.342 104.815 167.258 104.858C167.175 104.901 167.101 104.96 167.041 105.033C166.982 105.105 166.938 105.189 166.912 105.28C166.632 106.067 167.026 109.249 166.456 111.259C163.834 114.814 157.129 115.135 153.16 113.466C151.15 112.606 150.59 111.715 150.052 109.57C148.663 104.482 148.58 94.1189 148.891 89.0204C152.155 90.5645 163.461 91.0101 167.907 88.7302C167.907 91.9427 167.513 92.4816 168.321 93.1344C168.478 93.2524 168.658 93.3348 168.849 93.376C169.041 93.4172 169.239 93.4161 169.43 93.3728H169.461ZM68.7965 115.332C66.0749 113.023 63.1472 110.97 60.0502 109.197C58.8572 108.493 57.5883 107.926 56.2678 107.508C55.159 107.218 54.6926 107.788 54.9206 108.544C55.3878 109.63 56.0052 110.645 56.7548 111.56C59.1393 114.578 61.8813 117.296 64.9208 119.653C69.5426 123.518 75.5323 128.202 79.9054 131.529C80.1282 131.692 80.3813 131.808 80.6498 131.872C80.9183 131.936 81.1968 131.945 81.469 131.9C81.7412 131.854 82.0016 131.755 82.2349 131.608C82.4683 131.46 82.6698 131.268 82.8278 131.042C83.5946 130.202 84.0713 128.731 83.2112 127.933C82.2164 127.042 76.1334 121.311 68.7965 115.332ZM58.8689 113.031L57.4492 110.741C57.9546 110.531 58.382 110.169 58.672 109.705L60.9207 110.617C60.3564 110.728 59.8466 111.028 59.4741 111.466C59.1016 111.905 58.8883 112.456 58.8689 113.031ZM62.0503 115.674C61.3014 115.043 60.608 114.35 59.9777 113.601C60.0502 112.347 60.444 111.788 61.6979 111.746C62.5333 112.145 63.3222 112.635 64.0503 113.207C63.493 113.343 62.9957 113.658 62.6344 114.103C62.2732 114.549 62.068 115.1 62.0503 115.674ZM79.7707 130.752C78.6204 129.788 63.3249 116.814 62.3819 115.985C62.461 115.404 62.7144 114.862 63.1085 114.429C63.5026 113.996 64.019 113.693 64.5892 113.56C68.1643 116.213 73.3043 120.606 82.2682 128.068C81.9192 128.05 81.5707 128.109 81.2469 128.24C80.9231 128.371 80.632 128.572 80.394 128.828C80.156 129.083 79.9769 129.388 79.8692 129.721C79.7615 130.053 79.7279 130.405 79.7707 130.752ZM161.886 142.234C163.181 143.114 164.083 142.71 164.922 141.487C166.995 138.544 174.249 125.518 174.249 125.415C174.249 125.311 174.332 125.508 173.99 121.321C173.975 121.164 173.918 121.013 173.825 120.886C173.732 120.758 173.606 120.657 173.461 120.595C173.316 120.532 173.157 120.51 173 120.53C172.843 120.55 172.695 120.613 172.57 120.71L169.026 123.29C169.026 123.29 161.16 139.55 161.078 139.695C160.935 140.15 160.937 140.637 161.081 141.092C161.226 141.546 161.507 141.945 161.886 142.234ZM172.86 121.974C172.922 122.731 173.005 123.736 173.067 124.43C172.298 124.062 171.492 123.774 170.663 123.57L172.86 121.974ZM169.896 124.275C170.795 124.911 171.832 125.324 172.922 125.477C172.767 125.746 164.85 140.192 164.767 140.337C164.526 139.848 164.131 139.451 163.641 139.209C163.152 138.968 162.597 138.894 162.062 139C162.87 137.498 169.606 124.793 169.896 124.275Z" fill="#1F1F1F"/>
<path d="M165.129 103.725C165.018 103.568 164.876 103.435 164.712 103.334C164.548 103.233 164.366 103.165 164.176 103.135C163.563 102.971 162.94 102.846 162.311 102.762C162.663 105.228 162.87 107.943 162.86 108.181C162.844 108.339 162.767 108.484 162.645 108.585C162.522 108.686 162.365 108.735 162.207 108.72C162.048 108.702 161.903 108.622 161.803 108.498C161.702 108.374 161.654 108.216 161.668 108.057C161.668 107.881 161.606 107.166 161.554 102.658C159.482 102.399 149.502 101.622 149.896 103.611C149.896 103.715 149.077 108.793 152.248 111.228C155.419 113.663 161.762 113.187 163.979 110.71C164.608 109.956 165.024 109.047 165.181 108.078C165.426 106.636 165.408 105.161 165.129 103.725ZM167.617 94.3469C167.617 94.8132 166.995 98.378 166.58 103.166L167.078 103.269C168.901 103.656 170.8 103.449 172.497 102.679C173.089 102.35 173.579 101.865 173.914 101.276C174.248 100.688 174.414 100.018 174.394 99.3418C174.464 98.5006 174.318 97.6554 173.969 96.8868C173.62 96.1182 173.08 95.4518 172.401 94.951C171.721 94.4502 170.925 94.1318 170.087 94.026C169.25 93.9203 168.399 94.0307 167.617 94.3469ZM168.083 94.6992C168.744 94.5945 169.42 94.6328 170.066 94.8116C170.711 94.9903 171.311 95.3054 171.824 95.7355C172.317 96.1875 172.698 96.7472 172.939 97.3709C173.18 97.9946 173.273 98.6656 173.212 99.3314C173.119 101.995 170.383 102.502 167.762 102.233C167.886 100.347 167.99 98.1811 168.083 94.6992ZM67.7809 85.155C67.7809 85.155 67.7913 85.1654 67.7809 85.155V85.155ZM156.984 33.8693C156.982 34.0539 157.015 34.2372 157.084 34.4087C157.152 34.5801 157.254 34.7363 157.383 34.8683C157.512 35.0003 157.666 35.1054 157.836 35.1776C158.006 35.2498 158.188 35.2877 158.373 35.289C158.655 35.2952 158.932 35.2172 159.17 35.065C159.407 34.9128 159.594 34.6933 159.706 34.4345C159.819 34.1757 159.851 33.8893 159.8 33.6119C159.749 33.3345 159.616 33.0786 159.419 32.877C159.222 32.6753 158.969 32.5369 158.693 32.4796C158.416 32.4223 158.129 32.4485 157.868 32.555C157.607 32.6615 157.383 32.8433 157.226 33.0774C157.068 33.3115 156.984 33.5872 156.984 33.8693ZM43.5629 68.0563C43.8013 68.5227 44.1122 68.5745 44.3091 68.4294C44.506 68.2843 110.134 67.7144 115.015 67.4553C116.064 67.4714 117.111 67.3389 118.124 67.0615C120.455 64.9889 121.367 26.2423 120.455 24.4495C118.124 19.7966 45.1485 22.7914 40.6613 24.149C37.0862 25.2267 41.9153 64.7506 43.5629 68.0563ZM40.4645 25.8278C40.4645 25.6412 40.6924 24.9158 40.8686 24.864C45.8324 23.3718 117.906 20.9158 119.865 24.8122C120.032 25.5918 120.108 26.3881 120.093 27.1853C120.269 31.7035 120.093 41.3824 119.626 50.0561C119.533 51.7141 118.797 65.2998 117.719 66.533C113.419 67.4449 47.1485 67.6522 44.2054 67.7662C42.5267 63.8698 38.8997 32.6672 40.4645 25.8278ZM158.508 11.0193C158.789 11.0254 159.066 10.9477 159.304 10.7959C159.541 10.6442 159.728 10.4253 159.84 10.1671C159.953 9.90888 159.986 9.62304 159.935 9.34592C159.885 9.0688 159.753 8.81294 159.557 8.61087C159.361 8.4088 159.109 8.26966 158.834 8.21115C158.558 8.15264 158.271 8.1774 158.01 8.28228C157.749 8.38717 157.524 8.56744 157.366 8.80016C157.207 9.03288 157.121 9.30753 157.119 9.58918C157.115 9.77463 157.148 9.95905 157.215 10.1317C157.283 10.3044 157.385 10.4618 157.514 10.5949C157.643 10.728 157.798 10.834 157.968 10.9069C158.139 10.9797 158.322 11.0179 158.508 11.0193Z" fill="#1F1F1F"/>
<path d="M60.7446 51.9422H73.0556C74.4802 51.9368 75.8445 51.3663 76.8489 50.356C77.8534 49.3457 78.416 47.9782 78.4132 46.5536V36.5638C78.4133 35.1361 77.8512 33.7658 76.8485 32.7495C75.8458 31.7332 74.4832 31.1527 73.0556 31.1337H60.7446C60.0307 31.1309 59.3234 31.2695 58.6633 31.5414C58.0033 31.8133 57.4035 32.2132 56.8988 32.718C56.394 33.2228 55.9941 33.8225 55.7222 34.4825C55.4503 35.1426 55.3117 35.8499 55.3144 36.5638V46.5536C55.3171 47.2639 55.4598 47.9668 55.7341 48.6221C56.0085 49.2773 56.4092 49.8721 56.9135 50.3725C57.4177 50.8729 58.0155 51.2691 58.6729 51.5384C59.3302 51.8078 60.0342 51.945 60.7446 51.9422ZM56.1953 36.5638C56.2142 35.366 56.7005 34.223 57.5505 33.3789C58.4004 32.5347 59.5467 32.0563 60.7446 32.0456H73.0556C73.6606 32.0387 74.2609 32.1518 74.822 32.3783C75.383 32.6048 75.8936 32.9401 76.3243 33.365C76.755 33.79 77.0972 34.296 77.3313 34.8539C77.5653 35.4118 77.6865 36.0106 77.6878 36.6156V46.5536C77.6851 47.1592 77.5631 47.7583 77.3289 48.3167C77.0946 48.8752 76.7526 49.382 76.3225 49.8083C75.8924 50.2346 75.3825 50.572 74.8219 50.8012C74.2614 51.0305 73.6612 51.147 73.0556 51.1443H60.7446C60.1444 51.1416 59.5507 51.0207 58.9973 50.7885C58.4438 50.5563 57.9416 50.2174 57.5191 49.7911C57.0967 49.3649 56.7623 48.8595 56.5352 48.304C56.3081 47.7485 56.1925 47.1537 56.1953 46.5536V36.5638ZM94.03 59.3413C94.2373 59.9527 94.7554 59.818 94.9005 59.4346C95.0974 58.8854 96.2477 54.9371 96.3927 54.2532C97.1907 54.0045 94.9419 54.7817 101.895 52.2531C101.968 52.2252 102.03 52.1761 102.073 52.1123C102.117 52.0485 102.14 51.9729 102.14 51.8956C102.14 51.8183 102.117 51.7427 102.073 51.6789C102.03 51.6151 101.968 51.566 101.895 51.5381L91.2424 47.279C91.177 47.248 91.1046 47.2347 91.0324 47.2405C90.9603 47.2462 90.8909 47.2707 90.8311 47.3116C90.7714 47.3525 90.7234 47.4083 90.6919 47.4734C90.6604 47.5386 90.6466 47.6109 90.6517 47.6831C90.6517 47.6831 93.4601 57.6936 94.03 59.3413ZM91.7191 48.3878L100.693 51.9215C99.4912 52.3671 97.4601 53.134 96.486 53.5278C96.0508 53.6936 95.8746 53.7661 95.771 53.9008C95.6673 54.0355 96.03 53.2272 94.5067 57.9216L91.7191 48.3878ZM116.175 18.0039C116.188 18.0661 116.221 18.122 116.271 18.1618C116.32 18.2016 116.382 18.2227 116.445 18.2216C116.662 18.2216 123.367 18.8641 124.735 18.5014C125.616 18.263 125.771 16.7086 125.854 15.7966C125.958 14.4184 125.854 11.0401 125.274 9.88983C124.486 8.3354 118.673 8.85354 116.984 9.15407C116.535 9.21715 116.107 9.38005 115.73 9.63076C115.51 9.88557 115.383 10.2067 115.367 10.5427C115.357 13.0522 115.628 15.5549 116.175 18.0039ZM116.476 10.4287C118.113 9.92092 122.777 9.72402 124.258 10.4287C124.766 11.7759 125.036 16.4081 124.424 17.4858C123.461 17.7345 117.574 17.7345 116.59 17.7449C116.559 16.9366 116.082 12.5738 116.476 10.4287ZM130.082 17.9625C130.096 18.0237 130.13 18.0785 130.179 18.118C130.228 18.1575 130.289 18.1793 130.352 18.1801C130.569 18.1801 137.274 18.8226 138.642 18.4599C139.523 18.2216 139.678 16.6671 139.772 15.7552C139.865 14.3769 139.772 10.9987 139.181 9.84838C138.393 8.28359 132.58 8.81209 130.891 9.11262C130.443 9.17996 130.016 9.34252 129.637 9.58931C129.422 9.8469 129.295 10.1664 129.274 10.5012C129.264 13.0107 129.536 15.5133 130.082 17.9625ZM130.383 10.3872C132.02 9.8691 136.683 9.68257 138.165 10.3872C138.673 11.7344 138.943 16.3666 138.331 17.434C137.367 17.6931 131.481 17.693 130.497 17.7034C130.466 16.8951 129.989 12.5324 130.383 10.3872ZM144.632 18.4184C144.644 18.4806 144.678 18.5365 144.727 18.5763C144.776 18.6161 144.838 18.6372 144.901 18.6361C145.119 18.6361 151.824 19.2786 153.192 18.9159C154.072 18.6775 154.228 17.1231 154.311 16.2112C154.414 14.8329 154.311 11.4546 153.73 10.3043C152.943 8.74992 147.129 9.26806 145.44 9.56858C144.992 9.63433 144.564 9.79702 144.186 10.0453C143.967 10.3001 143.839 10.6212 143.823 10.9572C143.813 13.4667 144.084 15.9694 144.632 18.4184ZM144.932 10.8432C146.57 10.3354 151.233 10.1385 152.715 10.8432C153.223 12.1904 153.492 16.8226 152.881 17.9003C151.917 18.149 146.031 18.149 145.046 18.1594C145.015 17.3511 144.539 12.9883 144.932 10.8432ZM130.176 33.9005C130.248 34.1078 130.414 34.1285 130.445 34.1182C130.673 34.1182 137.367 34.7607 138.735 34.398C139.616 34.1596 139.772 32.6052 139.865 31.6933C139.958 30.315 139.865 26.9367 139.285 25.7968C138.487 24.232 132.673 24.7605 130.994 25.0507C130.543 25.115 130.111 25.2777 129.73 25.5274C129.513 25.7878 129.386 26.1112 129.367 26.4496C129.358 28.9557 129.629 31.4549 130.176 33.9005ZM130.487 26.3253C132.124 25.8175 136.777 25.6206 138.259 26.3253C138.766 27.6725 139.036 32.3047 138.424 33.3824C137.461 33.6311 131.585 33.6311 130.601 33.6415C130.559 32.8332 130.082 28.4704 130.487 26.3253ZM154.404 25.3719C156.062 22.9263 157.513 20.719 157.565 20.6154C157.616 20.5117 156.86 19.5791 156.414 20.2423C153.243 25.1232 153.679 24.6569 153.451 24.574C151.627 23.9108 145.741 24.1387 144.818 24.9989C144.197 25.5792 144.435 27.6828 144.507 28.5844C143.844 28.2113 143.336 27.9419 143.15 27.8694C142.673 27.6828 142.704 28.1492 142.963 28.315L144.58 29.3512C144.711 30.7131 144.922 32.0661 145.212 33.4031C145.222 33.4662 145.255 33.5234 145.305 33.5636C145.355 33.6037 145.418 33.6241 145.482 33.6207C145.699 33.6207 152.404 34.2632 153.772 33.9005C155.554 33.4031 155.005 26.8642 154.404 25.3719ZM145.513 25.7968C147.95 25.2421 150.476 25.1962 152.932 25.6621L149.337 31.3306C148.974 31.1233 147.036 29.9834 145.419 29.0715C145.351 27.9897 145.382 26.9039 145.513 25.8279V25.7968ZM153.461 32.8435C152.487 33.1026 146.611 33.1026 145.627 33.113C145.627 32.6984 145.471 31.3409 145.399 29.8383L149.337 32.2839C149.436 32.2948 149.537 32.2772 149.626 32.2332C149.716 32.1892 149.792 32.1205 149.844 32.0352C150.176 31.6103 151.844 29.1854 153.544 26.688C153.865 28.5533 153.969 31.9523 153.482 32.8435H153.461ZM112.258 10.6774C112.539 10.6815 112.816 10.602 113.051 10.449C113.287 10.2959 113.473 10.0763 113.584 9.81786C113.694 9.55944 113.726 9.2739 113.675 8.99744C113.623 8.72099 113.49 8.46608 113.294 8.26505C113.097 8.06402 112.845 7.92593 112.57 7.86828C112.295 7.81064 112.009 7.83604 111.748 7.94126C111.487 8.04649 111.263 8.2268 111.105 8.45932C110.947 8.69185 110.861 8.96611 110.859 9.24733C110.859 9.62128 111.006 9.9804 111.267 10.2477C111.529 10.515 111.884 10.6693 112.258 10.6774Z" fill="#1F1F1F"/>
</svg>
