<svg width="161" height="200" viewBox="0 0 161 200" fill="none" xmlns="http://www.w3.org/2000/svg">
<path d="M44.6916 134.802L48.0833 144.903L52.5185 142.628L47.9163 133.08C47.9163 133.08 44.9107 134.635 44.6916 134.802Z" fill="white"/>
<path d="M66.6489 106.146C72.3423 104.539 77.8514 102.339 83.0854 99.5818L108.987 103.652C108.987 103.652 113.725 106.396 114.299 106.48C115.921 106.348 117.544 106.712 118.954 107.524C120.863 108.849 124.683 108.849 125.674 109.016C127.106 109.479 128.473 110.12 129.744 110.926C130.736 111.51 135.14 112.919 135.891 113.42C136.642 113.921 138.375 114.463 138.792 116.551C139.376 119.116 139.725 121.728 139.836 124.357C139.752 126.266 139.262 131.411 138.511 133.405C137.759 135.398 134.524 145.771 134.336 146.971C134.148 148.171 133.762 156.27 133.293 157.939C132.823 159.609 130.558 168.375 130.162 169.972C129.765 171.569 126.76 179.521 126.259 180.93C125.758 182.339 125.006 184.916 125.215 185.991C125.517 187.155 125.602 188.365 125.466 189.56C125.299 190.896 126.384 197.45 126.05 197.909C125.716 198.368 114.09 198.9 110.031 197.658C105.971 196.417 89.7748 198.159 83.2107 197.825C76.6465 197.491 59.302 197.324 56.8182 196.782C54.3345 196.239 51.2559 196.124 52.7482 194.465C54.2406 192.806 54.4075 190.479 54.491 188.203C54.7096 186.147 55.1254 184.117 55.7329 182.14L50.515 146.397L58.1749 130.743L66.6489 106.146Z" fill="white"/>
<path d="M138.709 95.9169C140.014 96.8353 139.847 96.637 138.709 96.7831C137.572 96.9292 136.977 96.971 136.841 97.7119C136.729 98.3153 136.558 98.9061 136.33 99.4756C136.276 99.4359 136.227 99.3904 136.184 99.3399C134.096 96.2717 135.714 97.0649 131.884 96.7518C131.122 96.7518 133.22 96.0422 133.835 94.6646C134.065 94.1533 132.99 92.2435 133.595 92.5774C135.432 93.548 134.837 93.1932 135.067 93.3288C135.756 93.7567 137.801 92.0765 138.584 91.8469C138.824 93.5375 136.893 94.5811 138.709 95.9169Z" fill="white"/>
<path d="M154.154 63.5674C154.665 63.7552 153.11 64.2039 152.474 64.684C151.43 65.4563 152.411 66.1033 152.328 67.1886C151.514 66.8442 150.595 65.1014 149.385 65.1014C147.204 65.8319 147.068 66.145 146.682 66.145C146.807 65.3623 148.644 63.7761 147.6 62.9308C147.193 62.6177 146.181 61.1254 146.692 61.2401C148.717 61.7098 148.706 61.8037 149.093 61.5323C151.128 60.1339 151.18 57.9841 151.555 60.9271C151.879 63.5674 151.221 62.5238 154.154 63.5674Z" fill="white"/>
<path d="M151.618 29.1896C151.566 29.2627 151.524 29.3566 151.451 29.3879C148.821 30.7445 148.644 30.5776 148.8 31.4751C149.197 33.9484 149.103 33.5622 149.04 33.9901C146.254 31.4646 147.36 31.7881 146.953 31.7151C146.181 31.6003 144.741 32.4665 143.353 32.7587C142.873 32.7587 143.061 32.6543 144.261 30.6715C145.586 28.5113 139.137 25.9545 144.73 27.5407C145.774 27.8434 145.586 27.6973 147.486 25.1405C148.091 24.316 147.705 28.0416 149.114 28.1669C149.604 28.1669 150.282 28.7513 151.399 29.0018C151.481 29.053 151.555 29.1163 151.618 29.1896Z" fill="white"/>
<path d="M43.669 74.6285C48.9704 73.4388 43.669 75.1085 44.8482 77.0914C45.8188 78.8028 46.2153 78.6463 44.3264 78.2289C42.1349 77.7384 43.1263 77.5923 40.8513 79.8986C40.5799 80.1804 40.9035 79.0324 40.9869 77.9471C41.0809 76.653 38.5763 76.2356 38.211 75.5573C38.3884 75.5573 38.0753 75.5573 39.6825 75.4007C41.6653 75.2338 40.726 74.1171 41.5922 72.343C42.3019 72.9587 43.0324 74.7641 43.669 74.6285Z" fill="white"/>
<path d="M54.3346 51.1694C54.5955 51.6077 53.291 51.1694 51.4439 50.4806C50.4003 50.0945 50.6403 49.3118 48.1774 52.7556C47.2278 54.1018 48.6157 49.7918 47.0399 49.2074C43.4708 47.8716 43.4708 48.1638 47.3947 46.7445C48.2505 46.4315 47.8435 44.5634 48.4383 42.9563C52.1639 46.4419 49.0227 46.1497 54.4703 44.8974C53.6667 47.0472 51.997 47.6629 52.9571 48.7795C53.4901 49.5312 53.9513 50.3313 54.3346 51.1694Z" fill="white"/>
<path d="M82.7932 112.417C83.2837 114.734 83.7638 115.005 83.2211 114.922C78.4937 114.181 73.881 109.506 72.9313 105.582C72.7539 104.841 72.6287 104.914 73.4218 104.643C75.749 103.818 76.9491 102.931 76.6569 103.453C76.0725 104.496 76.49 105.843 76.4169 106.323C76.1456 108.128 77.3979 109.652 79.2033 110.612C79.4433 110.737 79.3598 110.716 80.9565 110.821C82.0001 110.57 82.1358 110.466 82.261 110.821C82.4945 111.332 82.6729 111.868 82.7932 112.417Z" fill="white"/>
<path d="M119.987 32.9684C122.847 34.1686 123.65 34.3564 121.719 34.8365C120.509 34.5442 120.363 34.5234 119.632 33.0415C119.559 32.8536 119.789 32.8849 119.987 32.9684Z" fill="white"/>
<path d="M125.706 32.5084C125.883 32.5084 125.873 32.6336 125.8 32.7276C125.372 33.3015 124.881 34.1469 124.078 33.6355C121.991 32.2893 117.921 31.6735 119.037 29.9307C119.496 29.2211 119.121 30.0351 121.5 31.0578C124.078 32.164 125.007 32.5919 125.706 32.5084Z" fill="white"/>
<path d="M126.562 30.2536C127.198 30.3162 126.415 31.4537 125.403 31.4328C123.723 30.8484 118.662 28.9908 120.06 27.8846C120.227 27.7594 120.143 27.4046 120.384 27.4254C120.801 27.4254 120.248 27.8638 123.013 28.97C125.779 30.0762 126.019 30.1701 126.562 30.2536Z" fill="white"/>
<path d="M121.333 25.1936C126.864 29.368 129.056 27.2182 127.386 29.1592C127.073 29.5245 125.862 28.9088 125.403 28.7418C123.17 27.9174 119.444 26.7277 121.333 25.1936Z" fill="white"/>
<path d="M135.964 17.774C136.288 17.8679 136.048 18.6297 135.755 18.4732C134.649 17.9097 135.578 17.6488 135.964 17.774Z" fill="#FFD152"/>
<path d="M124.933 14.9143C124.359 15.3839 124.099 14.476 124.474 14.3716C124.599 14.3403 124.819 14.7369 124.933 14.9143Z" fill="#FFD152"/>
<path d="M128.868 6.37756C141.798 6.30451 144.584 23.315 131.143 24.8491C129.39 25.0578 129.056 24.5569 128.513 25.2561C127.532 26.6441 128.169 27.2702 127.365 27.0615C125.724 26.6424 124.161 25.9661 122.732 25.0578C121.406 24.2543 123.775 24.0142 123.086 22.5219C122.398 21.0296 122.366 22.1671 121.281 20.4347C116.261 12.4304 123.379 6.07492 128.868 6.37756ZM135.317 19.6729C135.975 21.3009 138.02 17.4501 136.444 16.9387C134.868 16.4273 134.451 17.5335 134.201 17.4709C131.779 16.9283 133.282 17.2413 131.884 16.5213C131.237 16.1873 130.725 16.97 130.204 16.2291C129.379 15.0394 129.974 16.2291 126.102 14.6845C125.831 14.5802 125.685 14.2045 125.476 13.954C125.267 13.7036 124.944 13.7036 124.558 13.5992C123.431 13.2966 122.784 15.6029 124.558 15.9055C124.746 15.9055 124.881 15.9055 124.819 16.2291C124.422 17.9301 126.728 19.3598 126.269 20.1843C125.645 21.3773 125.205 22.6581 124.965 23.9829C124.913 24.296 125.194 24.129 125.309 24.223C125.748 24.5987 125.956 22.6367 127.083 20.5182C127.845 19.1094 125.633 17.7005 125.685 16.49C125.748 14.935 126.353 15.8221 127.772 16.2708C128.565 16.5213 129.17 16.2708 129.39 16.7926C129.531 17.0714 129.768 17.2901 130.057 17.4088C130.347 17.5276 130.669 17.5385 130.965 17.4396C131.926 17.1892 131.675 17.9301 132.802 18.1701C133.929 18.4102 133.919 18.358 133.919 18.7754C133.919 18.9215 133.919 19.0781 133.741 19.1198C133.205 19.3028 132.693 19.5517 132.218 19.8608C131.623 20.1425 131.884 19.6625 130.892 20.3095C129.4 21.28 129.651 20.6643 129.024 21.1548C127.981 22.0001 125.695 24.4108 126.426 24.9848C127.156 25.5588 127.24 24.056 128.722 22.6993C130.204 21.3427 129.974 22.0001 130.475 21.6557C131.519 21.0087 131.665 20.9148 131.821 20.9043C132.719 20.8313 133.407 20.0799 134.086 20.0173C135.004 19.9338 134.764 19.1302 134.962 19.1929C135.161 19.2555 135.244 19.4955 135.317 19.6729Z" fill="#FFD152"/>
<path d="M45.8712 16.0304C46.0352 16.5726 46.0307 17.1519 45.8582 17.6915C45.6858 18.2311 45.3535 18.7056 44.9055 19.0522C44.4574 19.3988 43.9147 19.6012 43.349 19.6325C42.7834 19.6639 42.2216 19.5228 41.738 19.2278C41.2543 18.9329 40.8717 18.498 40.6406 17.9808C40.4095 17.4636 40.341 16.8884 40.444 16.3314C40.547 15.7744 40.8167 15.2617 41.2175 14.8614C41.6183 14.461 42.1312 14.1918 42.6883 14.0893C43.3645 13.9673 44.0619 14.0975 44.6485 14.4552C45.2351 14.8129 45.6702 15.3734 45.8712 16.0304Z" fill="white"/>
<path d="M35.529 25.0157C35.9882 24.4939 36.5726 23.9721 36.8544 24.6713C36.8544 24.6713 27.3682 35.2742 27.3473 35.2951C26.575 34.7628 26.2724 35.8482 35.529 25.0157Z" fill="white"/>
<path d="M41.8221 34.2408C42.0099 34.6896 41.9264 34.5226 35.3518 41.0346C35.0179 41.379 35.1744 41.3686 34.8091 36.1402C34.8091 35.6497 38.9835 32.3832 40.3297 30.7761C41.676 29.169 41.3211 29.4403 41.8221 34.2408Z" fill="white"/>
<path d="M30.3842 20.7794C31.1878 20.675 28.9127 22.5222 27.2534 25.0268C26.8777 25.5694 25.4584 27.4688 24.9053 27.5418C24.9053 27.5418 19.6874 27.6984 19.6874 27.6671C19.5413 27.4688 22.3277 24.8076 24.9053 21.8543C25.2289 21.3638 25.2289 21.4473 30.3842 20.7794Z" fill="white"/>
<path d="M55.754 5.63736C55.6515 7.114 55.3279 8.56686 54.7939 9.94739C52.2789 16.0837 52.498 15.5306 51.8093 14.2992C48.6159 8.6116 44.1911 8.03762 45.0259 7.52626C47.1424 5.96777 49.5212 4.80137 52.0493 4.08241C56.0045 3.03882 55.5662 4.08241 55.754 5.63736Z" fill="white"/>
<path d="M119.068 82.0477C118.265 79.3031 120.248 72.384 120.842 70.85C121.649 68.0843 121.884 65.1831 121.531 62.3238C121.114 59.0574 118.818 53.5264 117.607 50.8443C116.397 48.1623 111.137 43.1948 109.467 41.9008C107.797 40.6067 99.7931 37.2463 96.9441 35.994C94.0951 34.7417 88.9711 34.46 88.9711 34.46C88.2064 33.5032 87.1394 32.8344 85.9449 32.5633C84.7505 32.2922 83.4993 32.4347 82.3965 32.9676C79.2657 34.3556 78.7439 37.6951 78.4726 37.7681C72.0023 37.6951 71.0944 42.913 71.0944 42.913C68.6941 45.3446 69.362 46.8787 70.3639 48.4754C71.3657 50.0721 74.6113 50.1138 74.6113 50.1138C74.6113 50.1138 94.3456 45.8247 100.367 55.217C106.389 64.6093 104.02 79.9292 104.02 79.9292L104.187 95.1448C105.143 96.0523 106.338 96.6687 107.631 96.9219C108.925 97.1751 110.264 97.0546 111.492 96.5745C107.745 93.715 108.465 92.087 108.465 92.087C114.143 95.5935 116.647 92.087 116.647 92.087C115.682 91.8983 114.779 91.4762 114.015 90.8577C113.251 90.2392 112.65 89.4431 112.264 88.5388C113.937 89.0455 115.664 89.3503 117.409 89.4467C122.074 89.8955 123.117 87.3596 123.117 87.3596C123.117 87.3596 119.861 84.7923 119.068 82.0477Z" fill="white"/>
<path d="M79.0992 89.6559C78.8073 89.3305 78.6459 88.9087 78.6459 88.4715C78.6459 88.0343 78.8073 87.6125 79.0992 87.287C72.6811 83.3318 74.0587 80.0653 72.6811 80.7228C71.2039 81.3747 69.6264 81.77 68.0163 81.8916C67.5989 82.0169 69.1747 84.7093 72.6498 85.8677C75.5928 86.8487 69.5191 89.6559 68.5903 89.729C67.0771 89.8438 73.4638 93.6738 77.0851 91.2318C77.1702 91.1628 77.2748 91.1222 77.3841 91.116C77.4935 91.1098 77.602 91.1381 77.6944 91.197C77.7867 91.2558 77.8582 91.3423 77.8987 91.4441C77.9392 91.5458 77.9466 91.6578 77.92 91.764C77.6262 93.2225 77.1013 94.6247 76.365 95.9175C78.1704 96.241 80.2367 95.0513 81.7395 94.0286C82.1361 93.7677 81.99 93.3085 82.1465 92.985C82.2091 92.8389 80.8942 91.8684 79.0992 89.6559Z" fill="white"/>
<path d="M62.6622 102.513C64.572 106.479 64.6555 106.28 64.1859 106.447L42.9697 113.45C42.7192 113.45 43.0636 114.045 38.3466 104.715C38.1066 104.245 36.8438 104.882 51.7358 99.8935C54.3239 99.0273 56.7868 98.1612 59.5523 97.2532C60.262 97.0236 59.6671 96.314 62.6622 102.513ZM59.8132 105.905C59.3645 105.132 59.0097 105.665 58.4566 105.685C58.3209 105.685 44.8064 109.86 43.8463 110.319C43.3767 110.517 42.9488 111.143 43.5228 111.29C43.7419 111.342 59.0097 106.833 59.8132 105.905ZM56.5364 101.501C56.8703 101.334 57.0999 100.749 56.3903 100.603C56.265 100.603 55.4615 100.843 54.3031 101.135C50.1809 102.179 49.6069 102.951 48.5425 102.93C47.311 102.93 47.3632 103.431 45.5265 103.838C41.3521 104.767 42.0305 105.164 40.9138 105.216C40.7781 105.216 40.559 105.539 40.5172 105.665C40.4233 106.04 41.5608 106.259 42.1035 105.957C43.264 105.333 44.5314 104.933 45.8396 104.778C47.5615 104.475 47.4989 103.922 48.5111 103.974C50.4418 103.713 51.1723 102.93 52.9255 102.492C54.6788 102.054 55.2006 102.179 56.5364 101.501ZM53.7917 105.31C53.9664 105.321 54.1394 105.27 54.2792 105.164C54.4191 105.059 54.5164 104.907 54.5535 104.736C54.5535 103.536 50.3792 105.445 48.4068 105.779C46.6118 106.082 42.5314 107.272 41.9365 107.919C41.5191 108.378 41.7487 108.639 42.3122 108.67C44.3994 107.96 44.1176 107.867 44.869 107.627C49.2104 106.406 46.2257 107.407 50.8279 106.082C52.9151 105.518 53.0508 105.31 53.7917 105.31Z" fill="white"/>
<path d="M46.1003 130.679C46.4134 131.316 45.2655 131.67 44.5976 131.796C44.201 131.535 45.0776 132.985 35.5183 113.731C29.4029 101.563 29.4029 102.053 30.029 102.053C33.2851 102.064 28.2445 94.8733 46.1003 130.679Z" fill="white"/>
<path d="M32.3461 109.64C43.9717 133.225 43.7525 132.14 43.2516 132.317C36.9901 134.467 40.1208 138.579 39.4738 139.988C39.1294 139.497 17.5584 95.301 17.4123 94.9357C17.5793 94.8731 17.0157 94.5914 26.1576 100.049C29.0901 101.803 27.389 99.5693 32.3461 109.64Z" fill="white"/>
<path d="M64.468 98.0773C60.9094 90.6992 61.1494 91.1375 60.8572 91.2418C57.7264 92.3585 41.342 97.7956 38.5765 98.7035C31.7619 100.958 32.1898 100.519 32.6072 101.333C48.5741 132.547 46.1739 130.783 48.0002 130.293C50.1395 130.241 48.7098 133.799 48.7828 133.987C48.8559 134.175 49.3777 135.48 49.6699 135.375C50.3002 135.101 50.9447 134.861 51.6005 134.655C53.0756 134.437 54.5125 134.012 55.8688 133.392C58.7909 131.9 58.8326 136.586 55.1383 138.391C54.1389 138.999 53.0657 139.476 51.9449 139.811C51.7571 139.811 51.7153 139.957 51.7988 140.124C52.5502 141.71 52.3624 141.585 52.8424 141.585C58.4778 141.585 57.8099 140.677 61.7129 139.852C62.8609 139.602 63.3409 141.011 62.8922 141.939C62.7878 142.148 62.9652 142.127 63.1844 142.065C63.1844 142.065 81.969 136.502 82.783 136.241C83.597 135.981 83.2109 136.92 64.468 98.0773ZM64.8854 107.271C64.7185 107.334 45.3077 113.773 42.97 114.462C42.1039 114.368 42.2708 114.837 37.439 104.788C36.792 103.452 35.9362 104.078 59.7197 96.1676C60.6589 95.8545 60.6172 96.1676 61.9216 98.8392C65.449 106.082 66.2212 106.812 64.8854 107.271Z" fill="white"/>
<path d="M121.155 158.992C122.199 160.547 122.439 158.105 113.767 170.346C112.827 171.619 111.809 172.832 110.72 173.978C109.248 175.679 108.069 177.579 105.742 179.363C100.294 183.537 96.2136 182.494 91.4653 176.932C90.7464 175.709 90.2351 174.376 89.9521 172.987C89.2737 170.242 88.0632 169.48 87.2178 166.37C85.0054 158.241 87.4161 118.96 87.6353 118.762C88.5328 117.937 87.1344 118.344 85.1202 115.714C83.4818 113.627 84.2436 111.394 80.9459 106.03C80.8801 105.885 80.7819 105.757 80.6589 105.655C80.5359 105.554 80.3913 105.482 80.2362 105.446C79.5996 105.341 80.1214 106.166 80.4136 106.813C80.852 107.762 79.9545 107.157 79.7875 107.147C79.3596 107.094 79.0674 107.585 80.5284 108.441C80.7058 108.545 81.1859 108.555 81.3111 108.722C81.4337 108.955 81.5216 109.205 81.572 109.463C81.572 109.609 81.572 109.651 81.4364 109.662C80.2884 109.797 79.7875 110.037 78.8378 109.234C78.2952 108.775 77.3246 107.731 77.3455 107.021C77.3977 104.934 77.0428 103.891 78.8378 102.847C79.537 102.461 79.6623 101.803 79.704 101.031C79.7771 99.6119 81.2068 100.384 81.7912 98.537C82.6261 95.9071 86.4456 98.2239 85.8925 96.7525C84.2019 92.3172 78.9004 89.4473 79.631 88.1741C80.3197 87.0575 82.8348 89.1342 83.4818 89.8856C85.5064 92.1711 89.2215 95.281 89.5555 97.4517C89.7642 98.7561 90.6721 99.2049 91.5801 102.252C93.2185 107.721 95.0761 110.048 95.2952 116.09C95.6396 125.483 105.335 161.528 105.345 161.559C105.616 162.123 106.263 161.883 106.232 161.299C105.856 154.296 101.953 146.573 102.913 146.521C104.496 146.412 106.08 146.721 107.505 147.419C108.465 148.139 114.393 153.409 114.915 153.899C117.19 155.924 119.6 156.613 121.155 158.992Z" fill="white"/>
<path d="M109.342 70.4653C113.746 66.7397 118.954 69.7661 114.56 76.7999C113.684 78.1879 112.807 79.388 108.977 80.9742C103.999 83.0614 103.404 70.3192 103.31 93.4973C103.31 100.072 104.02 102.044 113.256 106.521C113.621 106.699 110.417 109.089 110.396 109.099C104.834 113.086 108.1 111.186 101.943 113.66C100.9 114.056 96.5896 115.841 96.5166 115.183C95.6817 108.202 94.012 106.605 92.864 102.514C91.8204 98.9031 90.6516 97.9848 90.5472 96.7742C90.4011 95.0001 86.3729 91.5563 85.8824 90.9301C85.705 90.7214 85.7259 90.6379 85.9868 90.544C97.748 86.714 95.9635 83.8024 94.7738 84.5016C92.3527 85.9104 81.5098 89.7926 76.4588 84.0007C70.9173 77.6348 70.7921 66.3327 73.088 67.0423C74.0368 67.2522 75.025 67.1977 75.945 66.8849C76.8651 66.5721 77.6817 66.0129 78.3059 65.2682C78.9112 64.6629 78.3059 66.9693 81.228 67.5015C81.8333 67.6163 82.0629 66.8753 81.6976 66.6979C80.8105 66.2492 79.9757 66.0405 79.4956 64.5481C79.1199 63.3897 82.7308 64.3185 82.6264 61.6052C82.6264 60.8851 81.9272 60.8643 81.7706 61.5113C81.4889 62.6279 81.7707 62.4609 80.1009 62.774C79.9548 62.774 79.9131 62.774 79.9652 62.5966C80.8836 59.7059 80.5914 58.8814 81.5306 58.1822C81.9374 57.9444 82.4006 57.8203 82.8718 57.8228C83.343 57.8253 83.8049 57.9544 84.2091 58.1965C84.6134 58.4386 84.9451 58.7849 85.1697 59.1991C85.3943 59.6133 85.5035 60.0803 85.4858 60.5512C85.6215 63.9637 88.9297 68.9625 92.791 68.8164C98.2594 68.5973 99.8352 62.9619 100.827 62.3461C101.484 61.9287 102.173 62.1896 104.949 63.8907C105.763 64.3812 103.394 69.3278 107.255 71.0184C107.662 71.1958 106.775 71.7385 107.766 72.062C107.881 72.1872 108.445 71.2167 109.342 70.4653ZM114.341 73.7422C114.486 73.4506 114.546 73.1244 114.514 72.8005C114.483 72.4766 114.362 72.168 114.164 71.9095C113.966 71.651 113.7 71.453 113.396 71.338C113.092 71.2229 112.761 71.1953 112.442 71.2584C110.751 71.6237 108.904 73.7735 109.801 75.5163C110.104 76.1111 109.801 77.3425 109.175 77.4886C107.933 77.76 107.85 77.1756 107.547 77.7391C107.245 78.3027 107.913 78.7827 108.591 78.7827C110.741 78.7827 111.461 76.3198 110.772 74.9945C110.684 74.8499 110.632 74.686 110.621 74.5169C110.61 74.3478 110.64 74.1786 110.709 74.0239C111.148 72.9803 113.329 71.0079 113.538 73.8048C113.59 74.097 114.122 74.2013 114.341 73.7422ZM81.4054 74.9214C81.4054 74.5457 81.1758 73.45 80.2992 73.4291C79.2556 73.4291 79.0991 74.984 79.8504 75.7459C80.2992 76.2155 81.1549 76.3198 81.4054 74.9214Z" fill="white"/>
<path d="M64.5406 152.7C67.5879 154.787 67.1182 152.794 65.6468 162.687C64.9339 166.956 63.9333 171.171 62.6517 175.304C62.3595 176.16 62.7978 172.852 62.6517 169.345C62.5056 164.587 57.6007 156.634 57.0789 156.822C56.0353 157.167 58.1225 158.388 60.6689 165.442C62.4117 170.389 61.4933 177.193 60.2723 179.009C58.686 181.347 57.3085 182.338 53.3115 181.733C51.5186 181.462 49.846 180.667 48.5049 179.447C47.1638 178.226 46.2145 176.636 45.7768 174.876C45.2133 172.56 44.2949 169.888 44.7332 167.081C46.8204 152.053 45.5681 159.014 48.1771 162.604H48.6467C48.5006 161.466 48.3962 161.56 46.9978 156.968C46.5595 155.507 46.5491 155.299 46.0899 155.006C44.1175 153.775 44.4828 153.577 44.0966 151.489C43.8566 150.227 42.3017 150.561 42.4999 148.787C42.5542 148.286 42.4801 147.78 42.2847 147.317C42.0894 146.853 41.7792 146.447 41.3833 146.136C40.6632 145.457 40.8302 143.454 42.0825 142.149C44.3158 139.833 44.5663 138.799 46.7369 137.192C47.0813 136.931 47.1648 137.025 50.3791 136.274C51.0783 136.107 50.6504 135.94 52.1219 135.679C56.0562 134.969 57.0476 133.592 57.0059 134.468C56.9158 135.174 56.6308 135.841 56.1828 136.394C55.7349 136.947 55.1418 137.365 54.4699 137.599C53.624 138.092 52.7285 138.494 51.7983 138.799C45.5368 140.219 45.8707 144.414 46.8935 143.214C48.2293 141.648 48.031 141.325 48.5319 142.243C48.9076 142.932 48.7197 142.619 47.4883 143.725C46.4447 144.664 42.9591 147.482 44.6497 147.232C44.8898 147.232 45.0254 147.075 47.2379 145.217C48.8137 143.882 49.4503 142.682 54.543 142.629C57.4755 142.629 59.7609 141.283 61.7542 140.897C62.516 140.74 62.3177 143.182 56.9745 144.623C55.8086 145.09 54.599 145.439 53.3637 145.666C52.3867 145.715 51.4446 146.045 50.6504 146.616C49.9199 147.305 49.3772 147.659 49.7529 148.046C49.8886 148.192 50.0138 148.307 50.2121 148.098C51.4748 146.783 52.7793 146.845 55.43 146.313C56.2232 146.157 56.0562 145.76 57.3189 145.635C58.6107 145.413 59.8892 145.12 61.1489 144.758C62.1925 144.758 61.3889 146.971 55.931 149.079C53.2907 150.122 52.0488 150.404 51.12 151.792C50.8695 152.168 50.6608 152.731 51.12 152.94C51.8818 153.284 51.4227 151.688 54.1464 150.696C54.616 150.529 54.7308 150.488 54.8978 152.575C55.2526 157.104 53.5829 159.087 53.4472 160.924C53.4472 161.174 53.7394 161.497 54.0525 161.111C54.5264 160.09 54.9479 159.045 55.3152 157.981C57.6529 150.989 52.1845 148.714 59.4896 150.957C62.7978 151.98 63.257 151.823 64.5406 152.7Z" fill="white"/>
<path d="M47.6452 131.504C49.0645 131.181 47.8853 134.249 45.2867 135.679C43.1995 136.858 42.9908 136.973 42.6986 137.327C42.4064 137.682 42.6986 138.131 42.9699 138.037C44.6814 137.536 47.52 134.478 41.6968 141.168C40.3192 142.754 40.5279 142.869 40.3401 141.47C40.3525 140.939 40.4014 140.409 40.4862 139.884C40.7471 138.642 39.38 135.71 40.841 134.781C42.7317 133.631 44.7398 132.687 46.8312 131.963C47.0827 131.777 47.3561 131.623 47.6452 131.504Z" fill="white"/>
<path d="M73.5679 54.1735C73.5679 54.0274 74.4028 49.9992 75.4255 48.5277C76.4482 47.0562 79.9547 43.3098 79.9547 43.3098C79.9547 43.3098 82.5637 44.6664 82.8037 42.2662C82.8037 42.2662 83.7847 43.195 84.8909 41.473C85.9971 39.7511 88.8878 39.9285 89.9314 40.3877C90.975 40.8469 93.8449 41.3687 95.4312 44.0298C97.0174 46.691 102.455 55.9685 103.425 57.3043C104.396 58.6401 107.474 62.5223 105.189 63.1797L101.014 60.8003C101.014 60.8003 99.5638 56.5529 95.9216 55.9476C92.2795 55.3424 87.9486 54.9771 86.1745 58.0348C86.1745 58.0348 82.6785 55.9476 80.2469 58.1705C80.2469 58.1705 79.6938 54.9041 76.657 54.3927C73.6201 53.8813 73.5679 54.1735 73.5679 54.1735Z" fill="white"/>
<path d="M3.67876 74.1904L3.18827 71.2371L5.53635 73.2199L8.56276 71.8006L7.54004 75.1714L9.68984 78.3022L6.09989 77.6865L4.6806 80.859L3.77268 77.0499L0.652344 75.568L3.67876 74.1904Z" fill="white"/>
<path d="M153.987 73.3035C149.113 77.1856 148.592 84.6264 146.139 82.8419C143.332 80.7547 141.537 78.5736 141.454 75.4428C141.454 74.5767 140.984 73.7314 140.149 74.0444C139.47 74.3403 138.773 74.5913 138.062 74.7958C135.672 75.422 135.766 73.2513 134.66 74.2636C134.214 74.5716 133.798 74.921 133.418 75.3072C133.073 75.6203 133.24 75.4429 132.447 74.848C131.654 74.2532 130.506 75.0672 130.663 75.5263C130.739 75.638 130.85 75.7204 130.979 75.7603C131.108 75.8001 131.247 75.7949 131.372 75.7455C131.988 75.4742 132.082 76.0586 132.708 76.5595C133.752 77.4048 134.576 74.6497 135.474 75.2863C136.966 76.3299 137.644 75.9751 139.919 75.2028C141.328 74.7332 138.625 77.8535 144.271 82.6436C147.402 85.3257 147.934 84.4803 150.387 79.5755C151.284 77.7805 153.048 74.8584 154.645 73.8775C155.302 73.4705 156.074 73.2617 157.681 74.3993C161.449 77.0708 159.769 77.7492 159.278 78.9076C159.195 79.1163 159.643 79.492 159.842 79.2206C161.083 77.5196 160.739 78.0518 161 77.2274C160.551 74.6393 156.325 71.4459 153.987 73.3035Z" fill="#000001"/>
<path d="M152.422 59.9983C152.338 59.4765 152.171 58.9547 152.067 58.4434C152.055 58.3197 152.005 58.2027 151.925 58.1077C151.845 58.0128 151.738 57.9442 151.618 57.9111C151.211 57.7859 151.159 58.0155 149.761 59.6748C148.519 61.1463 149.26 60.8958 146.212 60.1444C146.044 60.1743 145.885 60.2413 145.746 60.3406C145.607 60.4399 145.492 60.569 145.409 60.7184C145.2 61.021 145.221 61.1358 146.15 62.6386C146.943 63.9222 147.193 63.6091 146.818 64.1623C144.845 67.1156 143.958 68.0862 147.59 66.7608C149.677 66.0094 149.594 65.8946 149.896 66.1973C151.305 67.6061 153.246 69.9855 153.361 67.9922C153.41 67.2103 153.289 66.4269 153.006 65.6963C152.86 64.9449 155.73 64.5588 155.897 63.4839C155.911 63.4373 155.915 63.3883 155.91 63.3399C155.904 63.2916 155.889 63.2449 155.864 63.2028C155.84 63.1607 155.807 63.1241 155.767 63.0953C155.728 63.0664 155.683 63.046 155.636 63.0352C151.66 61.6263 152.891 63.0039 152.422 59.9983ZM152.474 64.6632C151.43 65.4354 152.411 66.0825 152.328 67.1678C151.514 66.8234 150.595 65.0806 149.385 65.0806C147.204 65.8111 147.068 66.1242 146.682 66.1242C146.807 65.3415 148.644 63.7553 147.6 62.9099C147.193 62.5969 146.181 61.1045 146.692 61.2193C148.717 61.6889 148.707 61.7829 149.093 61.5115C151.128 60.1131 151.18 57.9633 151.556 60.9062C151.879 63.557 151.222 62.4716 154.154 63.5361C154.634 63.7344 153.131 64.1831 152.474 64.6632Z" fill="#000001"/>
<path d="M139.398 43.0287C139.481 47.203 142.1 49.2902 137.717 48.7267C130.997 47.85 129.65 46.2325 130.287 51.1165C130.37 51.774 130.402 51.5652 127.156 52.8802C125.528 53.5481 126.269 54.3725 127.156 54.0281C130.12 52.8175 131.425 52.6401 131.331 51.3461C131.122 49.0606 130.83 48.6536 131.696 48.7997C137.55 49.739 138.542 49.9581 139.596 49.8433C143.708 49.405 138.469 42.8617 141.276 41.4946C143.248 40.5136 143.906 42.079 153.371 45.8464C153.893 46.0551 154.415 46.2638 154.582 45.7733C154.749 45.2828 154.269 45.2515 154.008 45.1472C144.615 41.2963 145.576 41.1085 143.572 40.451C143.131 40.2447 142.646 40.1514 142.16 40.1794C141.674 40.2075 141.202 40.3562 140.788 40.6119C140.374 40.8677 140.03 41.2225 139.787 41.6444C139.544 42.0663 139.411 42.5421 139.398 43.0287Z" fill="#000001"/>
<path d="M143.447 30.2438C142.664 31.5275 140.848 34.3243 142.528 33.9068C143.154 33.7607 144.355 33.5312 144.615 33.4268C146.212 32.8841 146.264 32.665 146.483 32.8946C148.571 34.9817 150.063 37.2672 149.959 33.4477C149.896 31.6527 149.499 31.3605 150.011 31.1622C150.689 30.87 152.035 30.1186 152.411 30.0247C153.695 29.6386 153.757 28.8037 153.204 28.5532C152.651 28.3028 151.117 28.0106 150.167 27.6036C148.654 26.9252 149.301 27.854 148.331 24.0136C148.308 23.8993 148.249 23.7952 148.164 23.7161C148.078 23.637 147.97 23.5869 147.854 23.573C147.738 23.5591 147.621 23.5822 147.519 23.6388C147.418 23.6954 147.336 23.7828 147.287 23.8884C147.162 24.0554 146.723 24.6815 145.388 26.6435C145.075 27.1131 142.079 25.5373 141.589 26.1217C140.358 27.5514 143.854 29.5759 143.447 30.2438ZM144.699 27.5931C145.742 27.8958 145.555 27.7497 147.454 25.1929C148.059 24.3684 147.673 28.094 149.082 28.2193C149.562 28.2193 150.251 28.8037 151.367 29.0542C151.457 29.0867 151.542 29.1324 151.618 29.1898C151.566 29.2629 151.524 29.3568 151.451 29.3881C148.821 30.7448 148.644 30.5778 148.8 31.4753C149.197 33.9486 149.103 33.5625 149.04 33.9903C146.254 31.4648 147.36 31.7884 146.953 31.7153C146.181 31.6005 144.741 32.4667 143.353 32.7589C142.873 32.7589 143.06 32.6545 144.261 30.6717C145.555 28.5324 139.105 25.9964 144.699 27.5931Z" fill="#000001"/>
<path d="M118.776 32.6338C118.729 33.0413 118.769 33.4541 118.891 33.8455C119.013 34.237 119.216 34.5987 119.486 34.9072C119.756 35.2157 120.088 35.4644 120.46 35.6372C120.832 35.81 121.236 35.9032 121.646 35.9107C123.17 36.0464 123.785 34.7419 124.359 34.8671C125.643 35.1176 126.666 33.6983 126.707 32.686C126.707 32.1538 127.104 31.799 127.313 31.2876C127.521 30.7762 127.25 30.4527 127.521 30.3692C127.921 30.0946 128.243 29.7219 128.456 29.2869C128.67 28.852 128.769 28.3694 128.742 27.8855C128.742 27.7498 129.097 27.2698 128.742 26.8419C128.669 26.748 129.024 26.1844 129.108 26.101C129.191 26.0175 139.126 26.8106 140.869 18.0549C143.415 5.26045 122.867 0.0842414 119.037 12.3777C116.95 18.9941 122.376 22.5006 122.053 23.1789C121.208 24.9217 120.665 24.2225 120.352 24.9843C119.517 26.915 120.352 26.6749 119.903 26.915C118.4 27.6872 119.235 28.6369 118.713 29.0021C118.306 29.3013 118.03 29.746 117.943 30.2437C117.855 30.7414 117.963 31.2536 118.244 31.6737C118.651 32.1538 118.86 32.2581 118.776 32.6338ZM121.719 34.8358C120.508 34.5436 120.362 34.5227 119.632 33.0408C119.538 32.853 119.768 32.8843 119.966 32.9678C122.846 34.1575 123.65 34.3453 121.719 34.8358ZM121.239 20.4343C116.219 12.4717 123.326 6.07445 128.826 6.37709C141.756 6.30404 144.542 23.3146 131.101 24.8486C129.348 25.0574 129.014 24.5564 128.471 25.2556C127.49 26.6436 128.127 27.2698 127.323 27.0611C125.683 26.6419 124.119 25.9656 122.69 25.0574C121.364 24.2538 123.733 24.0138 123.044 22.5214C122.356 21.0291 122.366 22.1666 121.239 20.4343ZM121.291 25.193C126.822 29.3674 129.014 27.2176 127.344 29.1587C127.031 29.5239 125.82 28.9082 125.361 28.7412C123.17 27.9168 119.444 26.7271 121.333 25.193H121.291ZM120.018 27.8855C120.185 27.7603 120.101 27.4054 120.341 27.4263C120.759 27.4263 120.206 27.8646 122.971 28.9708C125.737 30.077 125.977 30.2023 126.52 30.2544C127.062 30.3066 126.457 31.4546 125.413 31.4337C123.723 30.8493 118.672 28.9917 120.06 27.8855H120.018ZM118.974 29.9727C119.434 29.263 119.058 30.077 121.437 31.0998C124.015 32.2164 124.944 32.6338 125.612 32.5503C125.789 32.5503 125.779 32.6756 125.706 32.7695C125.278 33.3435 124.787 34.1888 123.984 33.6774C121.949 32.2581 117.92 31.6737 119.037 29.9309L118.974 29.9727Z" fill="#000001"/>
<path d="M139.408 95.2497C138.594 94.7279 138.907 94.6653 139.085 93.893C139.805 90.7623 139.773 90.9814 139.732 90.7623C139.726 90.6739 139.697 90.5887 139.647 90.5161C139.596 90.4434 139.527 90.3861 139.446 90.3505C139.365 90.3148 139.275 90.3023 139.188 90.3142C139.1 90.3261 139.017 90.362 138.949 90.4179C137.905 91.2423 136.716 91.7328 135.651 92.5051C135.161 92.839 133.512 91.1693 133.136 91.3154C132.583 91.545 132.176 91.8163 132.353 92.4946C133.094 95.1767 132.865 94.8949 132.479 95.1453C131.341 95.8759 130.391 96.1889 130.464 97.1177C130.464 97.8691 132.739 97.8169 133.595 97.8274C134.451 97.8378 134.274 98.2031 134.566 98.6831C135.87 100.833 136.653 102.075 137.3 99.6328C137.864 97.6082 137.164 97.8274 140.629 97.7126C142.111 97.5978 140.994 96.262 139.408 95.2497ZM138.667 96.7629C137.446 96.9194 136.935 96.9508 136.799 97.6917C136.687 98.2951 136.516 98.8859 136.288 99.4554C136.234 99.4157 136.185 99.3702 136.142 99.3197C134.054 96.2515 135.672 97.0447 131.842 96.7316C131.08 96.7316 133.178 96.022 133.794 94.6444C134.023 94.1331 132.948 92.2233 133.553 92.5572C135.39 93.5278 134.795 93.173 135.025 93.3086C135.714 93.7365 137.759 92.0563 138.542 91.8267C138.824 93.5486 136.841 94.5922 138.709 95.9072C140.024 96.8151 139.846 96.6168 138.667 96.7629Z" fill="#000001"/>
<path d="M127.772 109.37C124.808 107.804 122.418 108.973 118.766 106.907C117.717 106.172 116.441 105.832 115.165 105.947C114.278 106.176 106.577 102.816 104.917 99.1632C104.566 98.2105 104.383 97.2043 104.375 96.189C104.302 95.3958 108.205 98.798 111.982 96.9404C112.08 96.9061 112.166 96.8445 112.23 96.7629C112.294 96.6813 112.333 96.5831 112.343 96.4799C112.353 96.3767 112.333 96.2729 112.286 96.1806C112.239 96.0884 112.166 96.0116 112.076 95.9594C110.708 95.3852 109.555 94.396 108.779 93.1313C108.653 92.9225 108.507 92.5051 108.987 92.8286C113.235 95.7194 118.808 92.6303 117.107 91.785C115.594 91.4016 114.251 90.5283 113.287 89.3013C113.078 89.0404 113.287 89.0821 113.412 89.1552C116.543 90.5536 120.947 90.3553 123.431 87.9655C124.725 86.7132 120.571 86.1809 119.663 81.2969C118.755 76.4129 121.751 73.2091 122.272 64.8708C122.544 60.5295 119.309 52.4834 117.263 49.4779C111.701 41.317 103.696 37.3305 93.7092 34.4919C91.3449 33.9477 88.8808 34.016 86.5502 34.6902C86.1328 34.8572 86.2267 35.5459 86.7276 35.4729C90.3319 34.6771 94.1001 35.1412 97.4035 36.7878C101.474 38.708 109.52 40.5239 115.625 49.1126C129.024 67.8972 112.494 77.2896 120.77 85.8679C122.512 87.6733 122.763 87.3811 121.938 87.8716C120.46 88.6984 118.78 89.0937 117.088 89.0126C115.396 88.9314 113.761 88.377 112.369 87.4124C111.722 86.9949 111.054 87.4124 111.398 88.1951C112.849 91.7015 116.376 92.1607 115.468 92.4738C110.668 94.0914 108.727 91.1484 108.048 90.7727C106.608 90.0005 106.347 93.1313 110.313 96.1472C111.137 96.7734 104.208 96.2412 104.27 93.9766C104.844 74.8997 103.008 83.2693 108.549 82.4971C113.151 81.8396 118.463 75.3172 117.19 70.7149C116.334 67.6572 113.506 68.012 112.797 67.5007C105.919 62.5645 102.267 61.0408 100.273 57.9101C97.9149 54.2158 89.1174 52.9426 86.018 57.2944C85.9032 57.4613 85.8093 57.5031 85.6527 57.2944C85.3661 56.9505 85.012 56.6691 84.6123 56.4673C84.2127 56.2656 83.776 56.1479 83.3291 56.1215C82.8822 56.0951 82.4346 56.1606 82.014 56.3138C81.5934 56.4671 81.2087 56.7049 80.8835 57.0126C80.7478 57.1587 80.6852 57.1587 80.633 56.95C80.0904 54.7167 77.0535 53.6627 74.5593 53.527C74.1732 53.527 74.1002 53.6627 75.102 51.0641C75.2899 50.5841 76.3752 50.4797 77.9823 51.6277C79.4329 52.5251 78.4206 49.1648 76.1143 49.217C75.0707 49.217 79.1616 44.74 79.7982 43.999C80.1321 43.6233 80.226 44.2703 81.0505 44.3434C81.3949 44.3434 81.614 43.8007 81.1966 43.4772C75.843 39.3029 81.5201 30.7245 86.5711 33.4901C87.6147 34.0849 88.126 32.9787 87.1137 32.4465C83.5447 30.7037 79.506 33.0831 78.3789 36.9861C78.2328 37.4661 78.2015 36.913 75.7699 37.4766C74.6809 37.7337 73.6793 38.2748 72.8673 39.0447C72.0552 39.8146 71.4616 40.7858 71.1468 41.8597C71.0055 42.3523 70.7311 42.7965 70.3537 43.1433C67.9534 45.7314 69.1014 49.0291 71.8356 49.8536C72.0339 49.9162 72.8166 50.0101 72.8792 49.6448C73.0461 49.0396 72.5557 49.0291 72.1695 48.9143C68.517 47.8186 70.6563 42.9032 71.0633 44.646C71.4703 46.3888 73.8288 48.5804 74.3402 47.6829C74.8516 46.7854 70.625 45.7001 72.1904 41.7866C73.4218 38.6558 78.0867 37.6122 78.0762 38.8332C78.0136 42.6945 79.7251 43.0076 79.3077 43.4459C77.2205 45.627 76.1769 46.3993 74.8933 49.1126C74.8006 49.3467 74.6264 49.5395 74.4028 49.6553C72.827 50.3858 72.2426 52.786 72.8479 52.4312C74.1419 51.565 73.7245 51.6172 73.401 53.2348C73.2444 53.9966 72.2008 53.2974 69.571 54.7167C64.8853 57.3048 67.1603 63.4515 71.1468 66.1753C72.66 67.2189 68.1621 68.6695 72.6287 79.3872C72.6496 79.4217 72.6619 79.4608 72.6644 79.5011C72.667 79.5414 72.6597 79.5817 72.6433 79.6186C72.6269 79.6555 72.6019 79.6879 72.5702 79.713C72.5386 79.7381 72.5014 79.7552 72.4617 79.7629C70.8203 80.5017 69.0437 80.8926 67.2438 80.9108C66.6176 80.8482 66.6385 81.537 66.8263 82.0379C68.3813 86.2122 72.6913 86.5984 71.8773 87.0784C68.59 89.0404 68.6631 88.6751 67.7864 88.8838C67.6248 88.8997 67.476 88.9788 67.3724 89.1039C67.2688 89.229 67.2188 89.39 67.2333 89.5517C67.1603 90.3971 67.8178 90.8771 68.7361 91.5346C72.66 94.3314 76.5213 92.5782 76.7196 92.766C76.4106 93.8181 75.912 94.8049 75.2481 95.6776C73.808 97.5039 77.9093 97.7648 81.3218 95.615C81.3835 95.5995 81.448 95.5995 81.5097 95.615C81.3926 96.3732 81.2252 97.1227 81.0087 97.8587C80.5078 99.518 79.2451 98.9023 78.765 100.624C78.3371 102.221 70.2389 104.454 69.1849 105.122C68.8405 105.331 69.0909 105.487 65.9393 99.0484C61.4727 89.9587 61.7649 89.9692 60.617 90.3553C57.9454 91.211 58.8742 91.6598 57.2044 88.2681C56.3487 86.5253 36.8231 91.618 30.8329 98.7458C29.5702 100.311 30.332 100.697 30.7599 100.311C30.9999 100.102 32.6696 96.8047 42.0619 92.7451C46.5175 90.8141 51.2207 89.5145 56.0356 88.8838C56.5783 88.8212 56.3591 88.6647 57.434 91.0441C57.7054 91.6494 31.6156 99.6954 30.9686 100.52C30.3215 101.344 28.8814 101.083 29.3197 100.749C29.4166 100.684 29.4847 100.583 29.5099 100.469C29.5351 100.354 29.5156 100.234 29.4554 100.134C27.3682 95.3019 24.9888 94.9158 25.281 93.8722C25.281 93.6739 24.3626 91.5137 24.5296 91.2006C24.6966 90.8875 29.6223 95.2706 29.4554 98.1614C29.4554 98.8919 30.6242 99.205 30.4363 97.8692C29.9041 93.9557 24.6966 88.6334 23.3191 90.324C23.079 90.6058 24.0913 92.6616 24.1122 93.2774C23.4443 93.0791 19.7813 90.1466 18.6229 91.5972C18.362 91.9103 18.4872 91.952 20.1152 94.9575C20.5222 95.7194 19.3534 94.8636 18.195 94.1749C14.7199 92.0877 16.1078 94.1018 17.955 98.0153C38.5242 140.375 40.1626 142.89 39.9539 144.058C39.8479 144.683 39.9046 145.324 40.1184 145.92C40.3323 146.516 40.6962 147.046 41.1749 147.461C41.3367 147.628 41.4533 147.833 41.5136 148.058C41.5738 148.282 41.5758 148.519 41.5193 148.744C41.4045 151.322 43.2516 150.904 43.2308 152.345C43.2419 153.323 43.6134 154.263 44.2743 154.985C45.8606 156.143 45.1823 153.879 43.7734 166.819C43.3769 170.44 44.5039 173.394 45.1197 175.638C46.4241 180.313 51.3812 182.88 54.825 182.943C55.1799 182.943 55.326 182.817 54.825 184.372C53.2284 189.371 55.2529 190.404 52.8527 193.473C52.4281 194.089 52.1825 194.812 52.143 195.56C52.1564 195.659 52.2037 195.752 52.277 195.821C52.3503 195.89 52.4451 195.931 52.5455 195.939C52.6459 195.946 52.7457 195.919 52.8283 195.861C52.9108 195.803 52.971 195.719 52.9988 195.622C53.4997 193.754 55.086 192.94 55.1486 190.331C55.1486 189.872 55.2112 186.992 55.3155 186.553C56.2443 182.536 56.0461 182.953 56.5783 182.87C59.9699 182.327 60.69 180.428 62.5998 177.84C63.9356 176.024 66.7742 163.918 67.6612 155.392C67.6612 155.058 67.6612 154.714 67.9639 154.484C68.2665 154.254 69.7693 144.935 69.738 144.048C69.738 143.704 69.1327 143.568 69.0074 143.881C68.6631 144.706 68.1413 149.819 67.4838 153.211C67.4108 153.628 67.2438 153.367 65.6784 152.261C63.5912 150.779 63.2886 151.134 60.69 150.393C56.5157 149.172 57.5593 149.788 59.8865 148.306C63.0172 146.281 62.8085 144.392 62.4537 143.944C62.0989 143.495 60.9718 143.756 62.4537 143.328C76.2604 139.331 81.5514 137.828 83.4403 137.066C84.7448 136.565 84.4839 136.419 84.1708 136.085C84.1708 136.085 82.188 132.057 69.5606 106.354C69.3727 105.957 69.2579 106.103 71.7625 105.31C71.9295 105.31 71.9817 105.31 72.013 105.487C72.6353 108.216 74.0948 110.683 76.1874 112.542C81.7914 117.249 83.8473 115.61 84.2752 116.33C87.8338 122.394 86.018 108.18 85.3188 151.958C85.3188 168.604 86.7902 167.612 88.7731 172.486C88.9296 172.851 89.8166 176.66 90.4324 177.339C96.5374 184.571 101.421 184.445 106.785 180.073C111.283 176.41 118.828 164.565 119.413 165.014C119.997 165.463 120.957 165.504 121.876 166.13C123.118 166.976 125.059 167.8 126.488 167.383C127.668 167.038 127.355 167.852 133.48 149.85C133.804 148.89 133.199 157.677 131.153 165.682C128.336 176.681 123.848 182.964 124.892 187.159C125.309 188.787 124.589 189.371 124.892 192.043C125.935 199.765 125.424 199.275 126.259 199.348C127.094 199.421 126.165 193.347 126.092 192.992C125.455 189.747 126.28 188.818 125.852 187.023C124.746 182.442 130.83 175.074 133.533 158.982C134.722 151.938 133.814 149.193 136.225 142.378C139.231 133.946 141.172 128.008 139.763 119.117C138.719 112.615 136.705 114.087 127.772 109.37ZM30.0293 102.064C33.2853 102.064 28.2239 94.8636 46.0693 130.69C46.3824 131.327 45.2345 131.681 44.5666 131.807C44.17 131.546 45.0466 132.996 35.4873 113.742C29.4032 101.563 29.4032 102.054 30.0293 102.054V102.064ZM19.7187 92.3694C21.1066 92.2025 27.0238 96.2412 28.4535 100.269C26.0221 99.0601 23.6879 97.6645 21.4719 96.0951C21.2736 95.2497 19.8961 92.9747 19.7187 92.359V92.3694ZM39.4738 139.999C39.1294 139.498 17.5584 95.3124 17.4123 94.9471C17.5793 94.8845 17.0158 94.6027 26.1576 100.061C29.0901 101.814 27.3891 99.5911 32.3461 109.651C43.9717 133.236 43.7526 132.151 43.2516 132.329C37.0005 134.468 40.1104 138.569 39.4738 139.988V139.999ZM40.34 141.502C40.3525 140.97 40.4013 140.44 40.4861 139.915C40.747 138.674 39.3799 135.741 40.8409 134.812C42.7316 133.662 44.7398 132.718 46.8311 131.995C47.0815 131.801 47.3549 131.64 47.6451 131.515C49.0644 131.201 47.8852 134.259 45.2866 135.689C43.1995 136.868 42.9907 136.983 42.6985 137.338C42.4063 137.693 42.6985 138.141 42.9699 138.047C44.6813 137.546 47.5199 134.489 41.6967 141.178C40.3191 142.775 40.5279 142.879 40.34 141.491V141.502ZM48.3339 135.24C48.5113 135.678 48.4487 135.605 46.8207 135.929V135.845C47.7286 135.292 47.8643 134.666 48.0417 134.708C48.2191 134.75 48.1878 134.917 48.3339 135.271V135.24ZM56.9331 144.57C55.7672 145.037 54.5576 145.386 53.3223 145.613C52.3453 145.662 51.4031 145.992 50.6089 146.563C49.8784 147.252 49.3358 147.607 49.7115 147.993C49.8471 148.139 49.9724 148.254 50.1706 148.045C51.4334 146.73 52.7379 146.793 55.3886 146.26C56.1817 146.104 56.0147 145.707 57.2775 145.582C58.5692 145.36 59.8478 145.068 61.1075 144.705C62.1511 144.705 61.3475 146.918 55.8895 149.026C53.2388 150.07 52.0074 150.351 51.0786 151.739C50.8281 152.115 50.6194 152.679 51.0786 152.887C51.8404 153.232 51.3812 151.635 54.105 150.644C54.5746 150.477 54.6894 150.435 54.8564 152.522C55.2112 157.051 53.5414 159.034 53.4058 160.871C53.4058 161.121 53.698 161.445 54.0111 161.059C54.3241 160.672 55.1694 158.199 55.2738 157.928C57.6114 150.936 52.143 148.661 59.4482 150.904C62.7981 151.948 63.2155 151.771 64.4991 152.647C67.5464 154.734 67.0768 152.741 65.6053 162.634C64.8925 166.903 63.8918 171.118 62.6102 175.251C62.318 176.107 62.7563 172.799 62.6102 169.292C62.4641 164.534 57.5593 156.582 57.0375 156.769C55.9939 157.114 58.0811 158.335 60.6274 165.389C62.3702 170.336 61.4519 177.14 60.2308 178.956C58.6446 181.294 57.2671 182.285 53.2701 181.68C51.4772 181.41 49.8045 180.614 48.4635 179.394C47.1224 178.173 46.1731 176.583 45.7354 174.824C45.1718 172.507 44.2535 169.835 44.6918 167.028C46.779 152 45.5267 158.961 48.1356 162.551H48.6053C48.4591 161.413 48.3548 161.507 46.9564 156.916C46.5181 155.454 46.5076 155.246 46.0485 154.954C44.0761 153.722 44.4413 153.524 44.0552 151.437C43.8152 150.174 42.2602 150.508 42.4585 148.734C42.5127 148.233 42.4387 147.728 42.2433 147.264C42.0479 146.8 41.7377 146.394 41.3419 146.083C40.6218 145.405 40.7888 143.401 42.0411 142.097C44.2744 139.78 44.5248 138.747 46.6955 137.139C47.0399 136.879 47.1234 136.972 50.3376 136.221C51.0368 136.054 50.6089 135.887 52.0804 135.626C56.0147 134.917 57.0062 133.539 56.9644 134.416C56.8743 135.122 56.5893 135.788 56.1414 136.341C55.6935 136.894 55.1003 137.312 54.4285 137.546C53.5825 138.039 52.6871 138.441 51.7569 138.747C45.4954 140.166 45.8293 144.361 46.852 143.161C48.1878 141.596 47.9895 141.272 48.4905 142.19C48.8661 142.879 48.6783 142.566 47.4469 143.672C46.4033 144.612 42.9177 147.429 44.6083 147.179C44.8483 147.179 44.984 147.022 47.1964 145.165C48.7722 143.829 49.4088 142.629 54.5015 142.577C57.434 142.577 59.7195 141.23 61.7128 140.844C62.4746 140.719 62.2763 143.161 56.9331 144.601V144.57ZM49.7323 142.253C49.5967 142.128 49.6593 142.326 49.0644 141.116C48.9288 140.823 49.1584 140.74 50.6194 140.291C50.8072 140.229 50.9742 140.573 51.4021 141.523C51.496 141.773 51.3186 141.836 49.7323 142.284V142.253ZM82.7307 136.242C81.8958 136.503 63.1633 142.055 63.132 142.065C62.9129 142.128 62.7355 142.149 62.8398 141.94C63.2886 140.98 62.8398 139.571 61.6606 139.853C57.7575 140.677 58.4254 141.575 52.7901 141.585C52.3622 141.585 52.55 141.71 51.7465 140.124C51.663 139.957 51.7465 139.853 51.8926 139.811C53.0133 139.476 54.0865 138.999 55.086 138.392C58.7803 136.586 58.7385 131.901 55.8165 133.393C54.4601 134.012 53.0232 134.438 51.5482 134.656C50.8923 134.861 50.2478 135.102 49.6175 135.376C49.3253 135.48 48.8661 134.332 48.7305 133.988C48.5948 133.643 50.0872 130.241 47.9478 130.294C46.1215 130.784 48.5218 132.548 32.5548 101.334C32.1374 100.52 31.7095 100.958 38.5242 98.704C41.2897 97.7961 57.7158 92.359 60.8048 91.2424C61.097 91.138 60.8048 90.6997 64.4156 98.0779C83.2107 136.92 83.5029 136.033 82.7307 136.273V136.242ZM105.93 64.9334C105.93 64.516 105.721 64.516 110.835 67.8346C111.502 68.2625 109.948 68.0851 108.361 69.9218C108.059 70.2766 108.048 70.2558 107.61 70.047C105.711 69.2017 105.658 67.1354 105.93 64.9648V64.9334ZM87.5103 57.3048C89.5975 55.5933 96.3808 55.635 98.9898 58.5884C101.265 61.1765 95.6294 70.6419 90.0671 66.7493C87.3955 64.8813 84.9118 59.392 87.5103 57.3048ZM74.0271 62.0427C74.0271 61.5209 73.4427 55.0298 74.288 55.0715C75.8752 55.015 77.4437 55.4289 78.7963 56.2612C81.04 57.7327 78.4937 67.8972 73.0253 65.8831C72.4409 65.6535 73.9854 64.2864 74.0271 62.0427ZM71.1468 55.5829C71.6895 55.4159 72.1904 55.2907 72.7957 55.1446C72.9835 55.1446 73.0774 55.1446 73.0566 55.3533C72.5139 60.0599 74.0376 61.3957 72.2321 65.0065C72.0234 65.4448 71.9817 65.4657 71.6269 65.1839C67.2542 61.6148 66.0332 57.1796 71.1468 55.5829ZM73.0774 67.0624C74.0263 67.2722 75.0145 67.2178 75.9345 66.905C76.8545 66.5922 77.6711 66.033 78.2954 65.2883C78.8902 64.683 78.2954 66.9893 81.2175 67.5215C81.8227 67.6363 82.0523 66.8954 81.6871 66.718C80.8 66.2692 79.9651 66.0605 79.4851 64.5682C79.1094 63.4098 82.7202 64.3386 82.6159 61.6253C82.6159 60.9052 81.9167 60.8843 81.7601 61.5313C81.4784 62.648 81.7601 62.481 80.0904 62.7941C79.9443 62.7941 79.9025 62.7941 79.9547 62.6167C80.8731 59.7259 80.5809 58.9015 81.5201 58.2023C81.9269 57.9645 82.3901 57.8403 82.8613 57.8428C83.3325 57.8454 83.7944 57.9744 84.1986 58.2165C84.6028 58.4587 84.9346 58.8049 85.1592 59.2192C85.3838 59.6334 85.493 60.1004 85.4753 60.5712C85.611 63.9838 88.9192 68.9826 92.7804 68.8365C98.2489 68.6173 99.8247 62.9819 100.816 62.3662C101.474 61.9488 102.162 62.2097 104.938 63.9107C105.752 64.4012 103.383 69.3478 107.245 71.0384C107.652 71.2159 106.765 71.7585 107.756 72.082C107.912 72.082 108.476 71.1532 109.374 70.4019C113.777 66.6762 118.985 69.7026 114.591 76.7364C113.715 78.1244 112.838 79.3246 109.008 80.9108C104.03 82.998 103.435 70.2557 103.342 93.4339C103.342 100.009 104.051 101.981 113.287 106.458C113.652 106.635 110.448 109.025 110.428 109.036C104.865 113.022 108.132 111.123 101.974 113.596C100.931 113.993 96.6209 115.777 96.5478 115.12C95.7129 108.138 94.0432 106.541 92.8952 102.451C91.8516 98.8397 90.6828 97.9213 90.5785 96.7108C90.4324 94.9367 86.4041 91.4928 85.9136 90.8667C85.7362 90.658 85.7571 90.5745 86.018 90.4805C97.7792 86.6506 95.9947 83.7389 94.805 84.4381C92.3839 85.847 81.541 89.7291 76.49 83.9372C70.8859 77.6966 70.7607 66.3945 73.0566 67.1041L73.0774 67.0624ZM76.3648 95.9176C77.0995 94.6177 77.6209 93.2084 77.9093 91.7433C77.9359 91.637 77.9285 91.5251 77.888 91.4233C77.8475 91.3216 77.776 91.2351 77.6837 91.1762C77.5913 91.1174 77.4828 91.089 77.3734 91.0953C77.2641 91.1015 77.1595 91.142 77.0744 91.211C73.4531 93.6531 67.0664 89.8231 68.5796 89.7083C69.4875 89.6352 75.5821 86.828 72.6391 85.847C69.164 84.6886 67.5882 81.9962 68.0056 81.8709C69.6357 81.763 71.235 81.3747 72.7331 80.723C74.1106 80.0655 72.7331 83.3319 79.1511 87.2872C78.8593 87.6126 78.6978 88.0344 78.6978 88.4716C78.6978 88.9088 78.8593 89.3306 79.1511 89.6561C80.9461 91.8476 82.2819 92.7869 82.188 92.9956C82.0315 93.3295 82.188 93.7887 81.781 94.0392C80.2261 95.0932 78.1597 96.2829 76.3648 95.9176ZM83.2316 114.88C78.5041 114.139 73.8914 109.463 72.9418 105.54C72.7644 104.799 72.6391 104.872 73.4323 104.6C75.7595 103.776 76.9596 102.889 76.6674 103.411C76.083 104.454 76.5004 105.8 76.4274 106.281C76.156 108.086 77.4084 109.61 79.2138 110.57C79.4538 110.695 79.3703 110.674 80.967 110.778C82.0106 110.528 82.1462 110.424 82.2715 110.778C82.5002 111.299 82.6785 111.841 82.8037 112.396C83.2211 114.702 83.7638 115.005 83.2212 114.921L83.2316 114.88ZM113.777 170.305C112.838 171.577 111.82 172.79 110.73 173.936C109.259 175.638 108.079 177.537 105.752 179.321C100.305 183.496 96.2243 182.452 91.476 176.89C90.7571 175.668 90.2458 174.335 89.9627 172.945C89.2844 170.2 88.0738 169.439 87.2285 166.329C85.0161 158.199 87.4268 118.918 87.646 118.72C88.5435 117.896 87.1451 118.303 85.1309 115.673C83.4925 113.586 84.2543 111.352 80.9566 105.988C80.8907 105.843 80.7926 105.715 80.6696 105.614C80.5465 105.512 80.402 105.441 80.2469 105.404C79.6103 105.3 80.1321 106.124 80.4243 106.771C80.8626 107.721 79.9651 107.115 79.7982 107.105C79.3703 107.053 79.0781 107.543 80.5391 108.399C80.7165 108.503 81.1966 108.514 81.3218 108.681C81.4444 108.914 81.5323 109.163 81.5827 109.422C81.5827 109.568 81.5827 109.61 81.447 109.62C80.2991 109.756 79.7982 109.996 78.8485 109.192C78.3058 108.733 77.3353 107.689 77.3562 106.98C77.4083 104.893 77.0535 103.849 78.8485 102.805C79.5477 102.419 79.6729 101.762 79.7147 100.989C79.7877 99.5702 81.2175 100.342 81.8019 98.4953C82.6367 95.8655 86.4563 98.1822 85.9032 96.7108C84.2126 92.2755 78.9111 89.4056 79.6416 88.1325C80.3304 87.0158 82.835 89.0926 83.4925 89.8439C85.517 92.1294 89.2322 95.2393 89.5662 97.41C89.7749 98.704 90.6828 99.1632 91.5907 102.21C93.2292 107.679 95.0868 110.006 95.3059 116.049C95.6503 125.441 105.345 161.486 105.356 161.518C105.627 162.081 106.274 161.852 106.243 161.257C105.867 154.254 101.964 146.532 102.924 146.48C104.507 146.37 106.091 146.68 107.516 147.377C108.476 148.097 114.404 153.367 114.925 153.858C117.086 155.841 119.496 156.529 121.051 158.909C122.158 160.547 122.45 158.105 113.767 170.347L113.777 170.305ZM82.4698 96.0638C82.9498 93.6009 82.8976 93.6948 83.1898 93.9766C83.7132 94.5509 84.1396 95.2065 84.4526 95.9176C84.6717 96.3246 84.0038 96.1785 83.9934 96.1368C82.5011 96.4081 82.3237 96.5334 82.4072 96.1055L82.4698 96.0638ZM127.261 164.544C127.217 164.631 127.157 164.709 127.083 164.774C127.026 164.716 126.973 164.653 126.927 164.586C124.088 160.412 122.658 159.368 121.991 158.178C121.145 156.686 118.703 155.141 117.232 154.244C116.261 153.649 114.372 151.708 112.88 150.529C109.509 147.868 109.426 146.187 104.615 145.53C103.884 145.426 102.768 145.749 102.59 145.603C102.413 145.457 102.59 145.206 103.436 143.578C104.144 142.108 104.993 140.71 105.971 139.404C110.292 133.309 109.415 133.623 110.887 131.108C113.475 126.641 114.153 127.184 118.296 122.759C123.973 116.685 124.255 116.549 124.631 115.589C124.798 115.141 124.401 114.932 124.193 115.151C111.21 128.864 112.452 126.109 109.791 131.076C103.895 142.097 107.339 134.426 102.308 143.495C101.776 144.445 96.0469 118.261 96.6 116.508C96.7565 116.007 97.3409 116.81 101.818 114.911C108.591 112.02 105.022 114.368 110.688 110.194C113.558 108.107 114.863 105.78 117.774 107.522C121.531 109.777 122.888 108.848 126.415 109.891C128.283 110.444 128.096 111.06 135.933 114.222C138.229 115.151 138.552 117.176 138.824 119.169C140.17 129.678 139.231 130.951 127.198 164.586L127.261 164.544Z" fill="#000001"/>
<path d="M124.61 15.9063C124.798 15.9063 124.933 15.9063 124.871 16.2298C124.474 17.9309 126.781 19.3606 126.321 20.185C125.697 21.3781 125.257 22.6588 125.017 23.9837C124.965 24.2968 125.247 24.1298 125.361 24.2237C125.8 24.5994 126.008 22.6375 127.135 20.519C127.897 19.1101 125.685 17.7013 125.737 16.4907C125.8 14.9358 126.405 15.8228 127.824 16.2716C128.617 16.522 129.223 16.2716 129.442 16.7934C129.583 17.0722 129.82 17.2908 130.109 17.4096C130.399 17.5284 130.721 17.5393 131.018 17.4404C131.978 17.1899 131.727 17.9309 132.854 18.1709C133.981 18.4109 133.971 18.3587 133.971 18.7762C133.971 18.9223 133.971 19.0788 133.794 19.1206C133.257 19.3036 132.745 19.5525 132.27 19.8615C131.675 20.1433 131.936 19.6632 130.945 20.3103C129.452 21.2808 129.703 20.6651 129.077 21.1556C128.033 22.0009 125.747 24.4116 126.478 24.9855C127.208 25.5595 127.292 24.0567 128.774 22.7001C130.256 21.3434 130.026 22.0009 130.527 21.6565C131.571 21.0095 131.717 20.9155 131.873 20.9051C132.771 20.8321 133.46 20.0807 134.138 20.0181C135.056 19.9346 134.816 19.131 135.015 19.1936C135.213 19.2562 135.213 19.4545 135.286 19.6319C135.943 21.2704 137.989 17.4091 136.413 16.8977C134.837 16.3864 134.42 17.4926 134.169 17.4299C131.748 16.8873 133.251 17.2004 131.852 16.4803C131.205 16.1463 130.694 16.929 130.172 16.1881C129.348 14.9984 129.943 16.1881 126.071 14.6436C125.8 14.5392 125.654 14.1635 125.445 13.913C125.236 13.6626 124.913 13.6626 124.526 13.5582C123.431 13.2973 122.784 15.5619 124.61 15.9063ZM135.964 17.7743C136.288 17.8683 136.048 18.6301 135.755 18.4735C134.649 17.91 135.578 17.6491 135.964 17.7743ZM124.485 14.3722C124.61 14.3722 124.829 14.7375 124.944 14.9149C124.37 15.3845 124.099 14.5183 124.474 14.3722H124.485Z" fill="#000001"/>
<path d="M131.894 128.332C128.429 130.106 123.806 133.33 113.11 133.988C112.703 133.988 112.296 134.176 112.348 134.593C112.4 135.011 121.27 135.48 132.176 129.187C133.616 128.342 132.844 127.851 131.894 128.332Z" fill="#000001"/>
<path d="M114.738 131.18C120.321 129.437 127.501 123.875 127.042 123.27C126.134 122.111 123.838 126.766 114.435 130.439C114.101 130.565 114.247 131.076 114.738 131.18Z" fill="#000001"/>
<path d="M110.803 60.1531C110.981 60.341 115.103 64.077 115.551 62.9186C115.718 62.4803 115.447 62.3551 114.007 61.3532C106.504 56.2605 103.321 45.9498 99.7515 43.7374C99.5115 43.5913 99.3132 44.1653 99.4071 44.3427C100.227 45.2466 100.971 46.217 101.63 47.2439C106.003 54.236 104.917 53.7768 110.803 60.1531Z" fill="#000001"/>
<path d="M111.336 113.086C108.967 114.495 108.915 115.173 107.683 115.705C106.869 116.06 100.378 118.596 100.931 119.546C101.234 120.036 101.182 119.64 108.236 116.498C109.239 115.874 110.195 115.176 111.096 114.411C114.665 111.834 115.166 111.875 114.988 111.28C114.675 110.331 112.734 112.261 111.336 113.086Z" fill="#000001"/>
<path d="M108.622 78.7401C110.772 78.7401 111.492 76.2772 110.803 74.9519C110.715 74.8073 110.663 74.6434 110.652 74.4743C110.641 74.3052 110.672 74.136 110.741 73.9813C111.179 72.9377 113.36 70.9653 113.569 73.7622C113.569 74.0961 114.112 74.2005 114.341 73.7622C114.486 73.4706 114.546 73.1444 114.514 72.8205C114.483 72.4966 114.362 72.188 114.164 71.9295C113.966 71.671 113.7 71.473 113.396 71.358C113.092 71.2429 112.761 71.2153 112.442 71.2784C110.751 71.6437 108.904 73.7935 109.802 75.5363C110.104 76.1311 109.802 77.3626 109.175 77.5087C107.934 77.78 107.85 77.1956 107.547 77.7591C107.245 78.3227 107.913 78.7401 108.622 78.7401Z" fill="#000001"/>
<path d="M101.411 31.2141C101.473 30.5045 101.265 28.5112 103.028 28.0312C104.448 27.6346 105.23 27.7703 105.867 26.6641C106.41 25.7248 105.867 25.4326 106.378 24.4621C108.09 21.3313 107.213 21.8114 109.509 20.8095C115.645 18.0858 110.553 14.6106 110.01 16.3638C109.728 17.2091 110.271 17.6892 110.636 16.8752C110.824 16.4473 112.817 17.9918 110.469 19.2754C108.298 20.4547 107.244 20.4443 106.66 21.9366C106.076 23.4289 105.136 24.3786 105.168 25.7561C105.168 26.7371 104.26 26.7058 103.206 26.9145C102.372 27.1429 101.641 27.6514 101.138 28.3545C100.634 29.0576 100.388 29.9126 100.44 30.7758C100.461 32.6543 101.275 32.8421 101.411 31.2141Z" fill="#000001"/>
<path d="M88.2618 39.6365C87.5865 39.6209 86.9155 39.7486 86.2931 40.0112C85.6707 40.2739 85.111 40.6655 84.651 41.1602C84.0353 41.8176 84.651 42.4125 85.2772 41.8803C85.7435 41.3985 86.3229 41.041 86.9627 40.8405C87.6025 40.64 88.2823 40.6028 88.9402 40.7323C96.7462 41.7759 97.2889 51.4082 105.272 60.9258C106.222 62.0424 106.963 61.6354 106.598 60.978C105.124 59.1587 103.762 57.2524 102.517 55.2695C95.9322 43.4561 95.2956 40.6801 88.2618 39.6365Z" fill="#000001"/>
<path d="M88.8877 49.3202C88.5224 49.7064 88.2511 50.5412 88.7937 50.3638C89.5451 50.0612 90.2548 49.1741 92.1437 49.195C94.7631 49.195 95.7128 53.0354 95.8902 51.0839C95.671 47.9844 91.8723 46.1164 88.8877 49.3202Z" fill="#000001"/>
<path d="M90.6931 61.6039C91.2566 61.6039 91.2879 61.2282 91.434 60.6543C91.2671 59.5481 90.3904 59.6107 90.1817 60.2473C89.973 60.8839 90.0774 61.5726 90.6931 61.6039Z" fill="#000001"/>
<path d="M82.24 41.0239C82.24 41.7231 82.2401 42.9963 82.9601 42.8815C83.9098 42.7354 82.3444 40.9613 83.795 38.7071C83.9563 38.3947 84.1852 38.1221 84.465 37.9091C84.7448 37.6961 85.0684 37.548 85.4126 37.4757C85.5332 37.4265 85.639 37.3467 85.7195 37.2442C85.8 37.1418 85.8524 37.0202 85.8717 36.8913C85.8196 35.5138 82.1983 37.027 82.24 41.0239Z" fill="#000001"/>
<path d="M75.321 2.37033C75.6341 2.45382 76.0829 2.00507 76.5838 1.92158C77.3352 1.79635 79.3284 1.73374 79.7146 2.49556C80.9564 4.88538 76.7508 7.87005 76.2394 11.1678C75.9159 13.255 78.1074 13.7976 81.4573 14.7264C84.3481 15.5196 78.9632 19.2034 80.612 21.4263C80.8834 21.7811 81.6556 22.4699 82.2818 23.1273C83.8576 24.7762 81.8122 26.9782 82.8453 27.1973C83.8785 27.4165 84.6403 23.9727 82.8453 22.2299C80.8521 20.2262 80.6433 20.9254 82.7618 17.2206C83.3149 16.2501 83.6176 14.549 82.407 14.0272C81.1964 13.5054 81.3634 13.8916 78.4622 12.7645C74.0374 11.0634 82.4488 6.01246 80.4555 2.07812C79.9963 0.951045 79.0258 1.07628 77.7004 0.951045C75.0288 0.88843 74.9349 2.26597 75.321 2.37033Z" fill="#000001"/>
<path d="M81.4053 74.9208C81.4053 74.5451 81.1757 73.4493 80.2991 73.4285C79.2555 73.4285 79.0989 74.9834 79.8503 75.7452C80.2991 76.2149 81.1548 76.3192 81.4053 74.9208Z" fill="#000001"/>
<path d="M77.596 59.8396C77.5125 58.796 76.6881 58.796 76.5524 59.1925C75.895 60.3718 77.2621 61.478 77.596 59.8396Z" fill="#000001"/>
<path d="M59.6672 96.1669C35.8837 104.088 36.7082 103.472 37.3865 104.787C42.2183 114.837 42.0514 114.367 42.9175 114.461C45.2969 113.772 64.7077 107.333 64.8329 107.271C66.1687 106.811 65.3965 106.081 61.8274 98.8385C60.5751 96.2086 60.6168 95.8538 59.6672 96.1669ZM64.1755 106.446L42.9697 113.449C42.7193 113.449 43.0636 114.044 38.3466 104.714C38.1066 104.244 36.8438 104.881 51.7359 99.8925C54.324 99.0263 56.7868 98.1601 59.5524 97.2522C60.2724 97.0226 59.6985 96.313 62.6831 102.47C64.572 106.478 64.6555 106.29 64.1859 106.446H64.1755Z" fill="#000001"/>
<path d="M58.4567 105.686C58.3211 105.686 44.8066 109.861 43.8465 110.32C43.3769 110.518 42.949 111.144 43.523 111.29C43.7108 111.29 58.9785 106.834 59.7821 105.906C59.3647 105.133 59.0098 105.666 58.4567 105.686Z" fill="#000001"/>
<path d="M45.8608 104.779C47.5827 104.476 47.5201 103.923 48.5324 103.975C50.463 103.714 51.1936 102.931 52.9468 102.493C54.7 102.055 55.2009 102.18 56.5681 101.449C56.902 101.283 57.1316 100.698 56.422 100.552C56.2967 100.552 55.4932 100.792 54.3348 101.084C50.2126 102.128 49.6386 102.9 48.5741 102.879C47.3427 102.879 47.3949 103.38 45.5582 103.787C41.3838 104.716 42.0621 105.112 40.9455 105.165C40.8098 105.165 40.5907 105.488 40.5489 105.613C40.455 105.989 41.5925 106.208 42.1352 105.906C43.2961 105.301 44.5596 104.919 45.8608 104.779Z" fill="#000001"/>
<path d="M49.388 52.7027C50.9116 50.6782 50.0141 50.9704 55.0338 52.7027C55.1383 52.7511 55.2554 52.7651 55.3683 52.7425C55.4811 52.72 55.5839 52.6621 55.6618 52.5773C55.7396 52.4925 55.7885 52.3851 55.8013 52.2707C55.8141 52.1563 55.7902 52.0408 55.733 51.9409C55.1836 50.7487 54.5489 49.5978 53.8337 48.4971C53.4058 47.9544 55.6078 45.6063 55.6495 44.3227C55.7121 42.4338 51.8404 45.575 50.9951 44.4688C50.3168 43.5817 49.2836 42.6008 48.6053 41.5259C48.3027 41.0354 47.7182 40.858 47.6243 41.4424C46.8208 46.7751 48.1148 45.4602 45.1406 46.6082C43.4813 47.2552 43.4291 47.2447 43.3352 47.777C43.043 49.4572 46.9251 49.6972 46.9355 50.459C46.9982 53.8924 46.8625 53.6837 46.9355 54.4038C46.9502 54.5004 46.9908 54.5912 47.0528 54.6667C47.1148 54.7422 47.1961 54.7995 47.288 54.8326C47.3799 54.8658 47.4791 54.8735 47.575 54.8549C47.6709 54.8364 47.7601 54.7923 47.833 54.7273C48.4071 54.0971 48.9272 53.4199 49.388 52.7027ZM47.0399 49.2067C43.4708 47.8709 43.4708 48.1631 47.3947 46.7438C48.2505 46.4307 47.8435 44.5627 48.4383 42.9556C52.1639 46.4412 49.0227 46.149 54.4703 44.8967C53.6667 47.0465 51.997 47.6622 52.9571 48.7788C53.4937 49.5301 53.9584 50.3302 54.345 51.1686C54.6059 51.607 53.3014 51.1686 51.4543 50.4799C50.4107 50.0937 50.6507 49.311 48.1879 52.7549C47.2278 54.1011 48.6157 49.7911 47.0399 49.2067Z" fill="#000001"/>
<path d="M29.2989 34.4608C29.7999 33.9182 29.8103 33.9182 30.2695 34.4608C30.7369 35.0166 31.0914 35.6582 31.3131 36.3497C31.5009 37.0176 30.7913 36.6628 30.5721 36.6733C29.5285 36.6733 29.9564 37.4559 30.2173 37.5812C32.7845 38.8231 33.8907 35.8697 33.9638 36.8402C34.0786 38.1552 34.0681 39.5849 34.1308 41.3068C34.1308 42.0895 34.7673 42.6843 35.2996 42.2043C35.8318 41.7242 37.2511 40.2841 39.2652 38.3221C42.563 35.0974 42.6986 35.1914 42.6569 34.5548C42.1768 27.5627 41.6133 29.3368 43.9092 26.8426C46.6852 23.8475 52.2579 17.753 54.0633 14.1004C56.8497 8.5798 57.9559 2.767 55.3574 2.47479C51.8822 2.08867 45.8398 5.12551 42.8343 7.7658C40.6789 9.61155 38.666 11.6175 36.8128 13.7664C30.5512 20.6437 32.3253 19.5271 29.5077 19.9028C23.841 20.6333 25.8238 19.4123 18.7795 27.0931C17.9134 28.0428 18.5291 28.6898 19.0926 28.6898C20.7841 28.5131 22.486 28.4573 24.1853 28.5228C23.8904 28.828 23.6738 29.2 23.5538 29.607C23.4339 30.0141 23.4143 30.4441 23.4966 30.8605C23.7143 31.6876 24.1504 32.4409 24.7593 33.0416C25.1037 33.2607 25.3542 32.8746 25.2185 32.4676C25.1559 32.2589 24.081 30.6726 24.3941 30.2865C24.7071 29.9004 25.5003 30.2865 27.8066 32.0397C28.4432 32.5198 27.2222 32.9789 26.189 34.5026C25.5942 35.4001 26.6482 35.8593 26.93 36.068C27.2118 36.2767 27.4727 36.3184 27.7544 36.1202L29.2989 34.4608ZM24.1853 41.4842C16.8802 52.9637 15.2522 64.9859 20.8876 79.9301C20.992 80.191 21.3468 81.3702 21.7016 81.1302C22.8287 80.3893 16.8698 70.997 18.8317 57.1798C20.6371 44.4689 29.0276 37.1324 29.2676 36.0262C29.3929 35.4836 29.1946 35.254 28.5475 35.5044C26.9487 37.388 25.4907 39.3866 24.1853 41.4842ZM27.4413 30.5787C25.4063 29.0446 24.6028 29.7229 24.9889 29.0655C25.1768 28.742 25.3646 28.3767 25.6672 28.5124C27.1178 28.6376 27.6188 29.1907 29.372 30.3804C29.6746 30.5891 29.4346 30.8187 28.9546 31.2883C28.6728 31.6014 28.7354 31.5388 27.4831 30.5787H27.4413ZM27.3161 35.2957C26.5439 34.7635 26.1995 35.8488 35.4979 25.0163C35.957 24.4946 36.5415 23.9728 36.8232 24.672C36.8545 24.7033 27.3683 35.2748 27.3161 35.2957ZM32.8993 36.3393C31.981 37.122 32.8054 36.3393 31.2191 34.2521C30.4886 33.292 30.3947 33.292 30.5304 33.1355C31.3757 32.1441 31.1983 31.6745 33.2228 35.6297C33.4316 35.9114 33.2228 36.068 32.9306 36.3184L32.8993 36.3393ZM35.3205 41.0563C34.9865 41.4007 35.143 41.3903 34.7778 36.1619C34.7778 35.6714 38.9521 32.405 40.2984 30.7978C41.6446 29.1907 41.342 29.462 41.7907 34.2626C42.0099 34.6904 41.9264 34.5235 35.3518 41.0355L35.3205 41.0563ZM45.0572 7.52577C47.1642 5.97061 49.532 4.80434 52.0492 4.08192C56.0044 3.03833 55.5661 4.08192 55.754 5.63687C55.6525 7.11366 55.3289 8.5667 54.7939 9.9469C52.2788 16.0832 52.498 15.5301 51.8092 14.2987C48.6158 8.61111 44.2014 8.058 45.0572 7.52577ZM43.7109 8.56936C45.0467 7.30662 52.6336 15.1022 51.5379 16.5633C48.334 20.8629 37.1885 33.3859 34.2456 35.1914C33.6327 33.9985 32.9352 32.8511 32.1584 31.7579C31.8975 31.3718 31.8662 31.6327 35.55 27.5314C37.6372 25.152 38.2321 24.8807 37.5016 23.9832C37.1885 23.5971 36.3536 23.0335 35.8214 23.5762C35.2891 24.1189 34.9969 24.4841 32.3775 27.4897C29.9668 30.2447 30.4678 29.9317 29.612 29.2846C26.1682 26.6861 25.5524 28.7315 27.7544 25.9243C32.6928 19.8038 38.0117 14.0004 43.6796 8.54849L43.7109 8.56936ZM24.8324 21.823C25.2602 21.322 25.2602 21.4055 30.3843 20.7794C31.1878 20.675 28.9128 22.5222 27.2535 25.0268C26.8778 25.5695 25.4585 27.4688 24.9054 27.5418C24.9054 27.5418 19.6875 27.6984 19.6875 27.6671C19.4683 27.4792 22.2547 24.8181 24.8324 21.823Z" fill="#000001"/>
<path d="M50.8281 106.124C52.9153 105.519 53.051 105.331 53.7919 105.32C53.9666 105.332 54.1396 105.28 54.2794 105.175C54.4193 105.07 54.5166 104.917 54.5537 104.746C54.5537 103.546 50.3794 105.456 48.407 105.79C46.612 106.093 42.5316 107.282 41.9367 107.929C41.5193 108.389 41.7489 108.649 42.3124 108.681C44.3996 107.971 44.1178 107.877 44.8692 107.637C49.2314 106.447 46.2259 107.449 50.8281 106.124Z" fill="#000001"/>
<path d="M47.1441 72.958C46.4971 73.0415 44.3473 73.5111 44.0133 73.6051C43.3976 73.7616 41.467 69.4933 40.9765 71.0796C39.7764 74.9826 41.4252 74.346 38.3675 74.6069C37.1152 74.7113 37.0943 75.0452 37.1256 75.6505C37.1256 76.0575 37.2717 76.141 38.0231 76.6002C41.4148 78.6874 39.9329 77.1741 39.6511 81.0354C39.6511 81.5677 39.9225 81.8181 40.3503 81.6824C41.3209 81.3589 42.855 78.5517 43.5646 78.9169C44.5913 79.2721 45.6364 79.5717 46.6954 79.8144C47.2902 79.9814 47.5407 79.6683 47.4676 79.2091C47.3528 78.4786 46.5493 78.1656 45.7457 76.6837C45.5683 76.3393 45.61 76.4958 47.6033 74.106C47.9477 73.6677 48.1042 72.8432 47.1441 72.958ZM44.8482 77.1324C45.8188 78.8439 46.2153 78.6873 44.3264 78.2699C42.1349 77.7794 43.1263 77.6333 40.8513 79.9397C40.5799 80.2214 40.9034 79.0735 40.9869 77.9881C41.0809 76.6941 38.5762 76.2767 38.211 75.5983C38.3884 75.5983 38.0753 75.5983 39.6824 75.4418C41.6653 75.2748 40.726 74.1582 41.5922 72.3841C42.3019 72.9893 43.0324 74.8052 43.6794 74.6695C48.9704 73.4381 43.7003 75.1078 44.8482 77.1324Z" fill="#000001"/>
<path d="M43.2414 20.5915C48.2819 20.3306 47.9271 12.9524 43.0849 13.0672C37.7521 13.7143 38.7226 20.7794 43.2414 20.5915ZM42.6883 14.09C43.0946 14.0179 43.5119 14.0366 43.9102 14.1448C44.3084 14.253 44.6778 14.448 44.9918 14.7158C45.3058 14.9836 45.5567 15.3175 45.7264 15.6937C45.8961 16.0699 45.9804 16.479 45.9733 16.8916C45.9663 17.3042 45.868 17.7102 45.6855 18.0804C45.503 18.4505 45.2409 18.7757 44.9179 19.0326C44.595 19.2895 44.2191 19.4718 43.8174 19.5663C43.4157 19.6608 42.998 19.6652 42.5944 19.5793C41.9598 19.4441 41.3919 19.0926 40.9881 18.5848C40.5842 18.077 40.3694 17.4446 40.3805 16.7959C40.3916 16.1472 40.6279 15.5225 41.0489 15.0289C41.4699 14.5352 42.0495 14.2033 42.6883 14.09Z" fill="#000001"/>
<path d="M31.7305 90.0113C31.0418 90.1365 30.9061 91.0549 31.7931 91.0549C36.3223 90.9818 36.5519 82.7792 32.1897 82.8418C31.7155 82.8244 31.242 82.8915 30.7913 83.0401C30.7287 82.4453 31.8349 79.8467 30.6661 77.8222C29.372 75.5889 25.6255 75.735 24.4045 78.8136C23.9358 80.1452 23.7351 81.5564 23.8139 82.9659C23.8927 84.3755 24.2495 85.7555 24.8637 87.0266C25.1037 87.4962 25.709 87.2249 25.5629 86.5987C22.4321 77.6969 28.558 75.401 29.9356 78.6153C31.0835 81.2973 28.5998 84.2611 29.6747 84.8768C30.4365 85.3047 30.8226 83.6245 32.2941 83.8332C34.2038 84.1672 34.5482 86.2439 34.2351 87.6319C33.7029 89.9174 32.2628 89.9069 31.7305 90.0113Z" fill="#000001"/>
<path d="M20.9294 82.0794C15.0957 72.4993 13.6242 55.7496 20.8355 42.0995C22.4942 39.1912 24.3527 36.4016 26.3978 33.7507C27.3683 32.8011 26.3978 32.3001 25.8656 32.9054C19.8232 40.054 15.0853 50.4064 15.0853 59.7361C15.0853 73.4072 18.5082 80.0653 20.2197 82.1107C21.0546 83.0708 21.4825 82.9873 20.9294 82.0794Z" fill="#000001"/>
<path d="M16.0869 90.3245C10.8689 91.963 11.4638 85.9101 16.6296 88.0078C16.6933 88.0464 16.7647 88.0706 16.8387 88.0787C16.9128 88.0868 16.9877 88.0787 17.0583 88.0548C17.1289 88.031 17.1934 87.992 17.2473 87.9406C17.3012 87.8892 17.3433 87.8266 17.3705 87.7573C17.6523 87.1207 17.0992 86.9642 16.5669 86.7868C13.7179 85.8371 16.8905 80.4 20.8352 87.0372C21.1587 87.5799 21.7119 87.2042 21.5866 86.7868C20.7517 83.8125 17.4123 81.5688 15.3251 83.3951C14.8812 83.7703 14.5844 84.2903 14.487 84.8632C14.3896 85.4362 14.4979 86.0251 14.7928 86.5259C12.33 86.5885 11.6621 87.5695 11.3803 88.8531C10.8168 91.8795 15.6903 92.2343 16.9322 91.0446C17.4123 90.5646 17.0157 90.0323 16.0869 90.3245Z" fill="#000001"/>
<path d="M9.00102 71.7795C8.84448 71.4664 8.74012 70.8611 8.02004 71.2994C5.08755 73.084 5.6824 72.8022 4.88927 71.9569C3.69957 70.715 3.39693 70.235 2.80209 70.3811C2.54119 70.4541 2.60381 70.9864 2.66642 71.2681C3.3865 74.6076 3.61609 73.7206 2.25942 74.2215C1.94634 74.3467 1.67501 74.4928 0.40183 75.0251C0.281932 75.08 0.180329 75.1682 0.109098 75.2792C0.0378658 75.3902 0 75.5193 0 75.6512C0 75.7831 0.0378658 75.9122 0.109098 76.0232C0.180329 76.1342 0.281932 76.2224 0.40183 76.2774C4.28399 77.7279 3.40737 77.4566 3.66827 79.095C3.97091 80.9735 4.02309 81.4431 4.41965 81.4849C4.58132 81.5067 4.74565 81.4745 4.88717 81.3934C5.02869 81.3122 5.13948 81.1867 5.20235 81.0361C6.83035 77.0809 5.76588 78.1245 7.28953 78.3958C9.90894 78.8655 10.0446 79.1264 10.4203 78.6672C10.796 78.208 10.0342 77.5297 9.65848 77.1018C7.1956 74.2632 7.92612 76.1417 9.00102 71.7795ZM8.22876 77.4879C7.67118 77.4463 7.12961 77.2824 6.6425 77.0079C5.32758 76.58 5.32758 79.2098 4.80578 79.6586C4.67945 79.107 4.60952 78.5441 4.59706 77.9784C4.59706 76.8305 3.97091 76.747 2.07157 75.7034C1.65414 75.4634 2.60381 75.3694 3.6787 74.8268C4.7536 74.2841 3.89786 73.2405 3.87699 72.51C3.87699 72.0717 4.6075 73.1257 5.06668 73.6997C5.77632 74.5867 5.85981 73.1779 7.85307 72.583C7.51912 74.305 6.36073 74.7537 7.47737 75.9434C9.10537 77.6862 8.66707 77.5297 8.22876 77.4879Z" fill="#000001"/>
</svg>
